<?xml version="1.0" encoding="UTF-8"?>
<!DOCTYPE svg PUBLIC "-//W3C//DTD SVG 1.1//EN" "http://www.w3.org/Graphics/SVG/1.1/DTD/svg11.dtd">
<!-- Creator: CorelDRAW X6 -->
<svg xmlns="http://www.w3.org/2000/svg" xml:space="preserve" width="152.481mm" height="111.326mm" version="1.1" style="shape-rendering:geometricPrecision; text-rendering:geometricPrecision; image-rendering:optimizeQuality; fill-rule:evenodd; clip-rule:evenodd"
viewBox="0 0 15248 11133"
 xmlns:xlink="http://www.w3.org/1999/xlink"
 enable-background="new 0 0 792 612">
 <defs>
  <style type="text/css">
   <![CDATA[
    .fil0 {fill:black}
   ]]>
  </style>
 </defs>
 <g id="Layer_x0020_1">
  <metadata id="CorelCorpID_0Corel-Layer"/>
  <g id="_209626688">
   <path class="fil0" d="M11229 7625l-78 0 -253 0 0 768 0 1208c82,-33 167,-57 253,-75l0 -1173c458,-116 826,-455 981,-895 -179,-78 -344,-180 -491,-304 -37,224 -149,471 -412,471z"/>
   <path class="fil0" d="M10392 8337l0 1107c90,56 175,120 253,193l0 -1248 0 -1016 -188 0c-25,0 -44,-4 -65,-7 -105,-15 -167,-62 -200,-104 -67,-86 -60,-188 -53,-230l0 -418c0,-70 57,-127 127,-127 70,0 127,57 127,127l-4 467c-2,10 -1,39 4,39l0 0c3,0 21,0 65,0l188 0 0 -506c0,-17 4,-34 10,-49 19,-45 64,-77 117,-77 70,0 127,57 127,127l0 759 253 0 78 0c144,0 175,-318 175,-397l0 -56c-101,-118 -189,-247 -262,-386 -26,-50 -51,-100 -72,-152 -101,-241 -157,-505 -157,-781 0,-5 1,-11 1,-16 -36,-3 -72,-6 -109,-6 -779,0 -1410,631 -1410,1410 0,635 420,1172 997,1348z"/>
   <path class="fil0" d="M4140 10101c295,-352 734,-549 1208,-549 269,0 522,71 743,194l0 -9712 -2783 0 0 9505c329,94 621,292 832,561zm-73 -1970l253 0 0 506 -253 0 0 -506zm0 -759l253 0 0 506 -253 0 0 -506zm0 -759l253 0 0 506 -253 0 0 -506zm0 -759l253 0 0 506 -253 0 0 -506zm0 -759l253 0 0 506 -253 0 0 -506zm0 -759l253 0 0 506 -253 0 0 -506zm0 -759l253 0 0 506 -253 0 0 -506zm0 -759l253 0 0 506 -253 0 0 -506zm0 -759l253 0 0 506 -253 0 0 -506zm1265 506l-253 0 0 -506 253 0 0 506zm0 759l-253 0 0 -506 253 0 0 506zm0 759l-253 0 0 -506 253 0 0 506zm0 759l-253 0 0 -506 253 0 0 506zm0 759l-253 0 0 -506 253 0 0 506zm0 759l-253 0 0 -506 253 0 0 506zm0 759l-253 0 0 -506 253 0 0 506zm0 759l-253 0 0 -506 253 0 0 506zm0 759l-253 0 0 -506 253 0 0 506zm-759 -506l253 0 0 506 -253 0 0 -506zm0 -759l253 0 0 506 -253 0 0 -506zm0 -759l253 0 0 506 -253 0 0 -506zm0 -759l253 0 0 506 -253 0 0 -506zm0 -759l253 0 0 506 -253 0 0 -506zm0 -759l253 0 0 506 -253 0 0 -506zm0 -759l253 0 0 506 -253 0 0 -506zm0 -759l253 0 0 506 -253 0 0 -506zm253 -253l-253 0 0 -506 253 0 0 506zm506 -1518l0 759 -253 0 0 -759 253 0zm-506 0l0 759 -253 0 0 -759 253 0zm-759 0l253 0 0 759 -253 0 0 -759z"/>
   <path class="fil0" d="M1389 10800c0,-396 159,-705 401,-924 77,-70 162,-130 253,-181 28,-16 56,-31 86,-45l-86 0 0 -506 506 0 0 369c112,-21 226,-33 340,-33 56,0 111,4 166,10l0 -3888 -3036 0 0 5566 1401 0 -3 -18c-19,-107 -28,-261 -28,-350zm-864 -2415l506 0 0 506 -506 0 0 -506zm0 -759l506 0 0 506 -506 0 0 -506zm0 -759l506 0 0 506 -506 0 0 -506zm1265 506l-506 0 0 -506 506 0 0 506zm0 759l-506 0 0 -506 506 0 0 506zm-506 253l506 0 0 506 -506 0 0 -506zm1265 506l-506 0 0 -506 506 0 0 506zm0 -759l-506 0 0 -506 506 0 0 506zm0 -759l-506 0 0 -506 506 0 0 506zm0 -759l-506 0 0 -506 506 0 0 506zm-759 0l-506 0 0 -506 506 0 0 506zm-1265 -506l506 0 0 506 -506 0 0 -506zm0 3036l506 0 0 506 -506 0 0 -506zm759 0l506 0 0 506 -506 0 0 -506z"/>
   <path class="fil0" d="M6917 11094l3 74 1078 0 -3 -18c-19,-107 -28,-261 -28,-350 0,-633 371,-1180 907,-1437l0 -5279 -2530 0 0 5839c334,284 554,704 573,1171zm1451 -3215l-253 0 0 -253 253 0 0 253zm-1012 -253l506 0 0 253 -506 0 0 -253zm0 -759l506 0 0 506 -506 0 0 -506zm0 -759l506 0 0 506 -506 0 0 -506zm0 -759l506 0 0 506 -506 0 0 -506zm1012 506l-253 0 0 -506 253 0 0 506zm0 759l-253 0 0 -506 253 0 0 506zm0 759l-253 0 0 -506 253 0 0 506zm0 -2277l-253 0 0 -506 253 0 0 506zm-506 0l-506 0 0 -506 506 0 0 506zm-1012 -506l253 0 0 506 -253 0 0 -506zm0 759l253 0 0 506 -253 0 0 -506zm0 759l253 0 0 506 -253 0 0 -506zm0 759l253 0 0 506 -253 0 0 -506zm0 759l253 0 0 253 -253 0 0 -253zm0 506l253 0 253 0 506 0 253 0 253 0 0 253 -1518 0 0 -253 0 0zm0 506l1518 0 0 253 -1518 0 0 -253zm0 506l1518 0 0 253 -1518 0 0 -253z"/>
   <path class="fil0" d="M11404 6486c71,123 156,236 253,338 153,160 335,291 538,385 148,69 307,117 474,142l0 128 0 128 0 2411c25,27 50,54 73,83 55,-66 116,-124 180,-178l0 -2297 0 -127 0 -127 0 -1265 -253 0 -95 0c-302,0 -411,-262 -411,-438l0 -574c0,-70 57,-127 127,-127 70,0 127,57 127,127l0 574c1,43 14,185 158,185l95 0 253 0 0 -759c0,-17 4,-34 10,-49 19,-45 64,-77 117,-77 70,0 127,57 127,127l0 1518 253 0 45 0c56,0 97,-16 129,-50 81,-88 85,-274 80,-332l-1 -630c0,-70 57,-127 127,-127 70,0 127,57 127,127l0 619c3,24 23,330 -147,514 -79,86 -188,132 -315,132l-45 0 -253 0 0 490 0 128 0 128 0 2137c81,-44 165,-82 253,-112l0 -2072 0 -131 0 -130c741,-213 1285,-894 1285,-1703 0,-979 -794,-1773 -1773,-1773 -979,0 -1773,794 -1773,1773 0,9 1,18 1,28 5,312 91,604 237,858z"/>
   <path class="fil0" d="M6344 11168l321 0c-13,-331 -134,-622 -321,-850 -75,-91 -158,-174 -253,-242 -212,-150 -466,-239 -743,-239 -545,0 -1012,267 -1214,737 -147,-365 -450,-650 -826,-774 -81,-27 -166,-44 -253,-55 -54,-7 -109,-13 -166,-13 -289,0 -605,100 -846,294 -48,39 -93,82 -135,129 -161,180 -266,416 -266,708 0,82 10,51 24,304l1388 0 253 0 2783 0 253 0 0 0z"/>
   <path class="fil0" d="M13950 9837c-186,0 -362,33 -522,93 -90,33 -175,76 -253,127 -94,61 -180,134 -253,220 -75,88 -139,186 -186,298 -19,-47 -43,-91 -67,-135 -227,-420 -667,-707 -1178,-707 -119,0 -232,21 -340,50 -88,24 -173,56 -253,97 -84,43 -165,91 -238,149 -5,-6 -10,-12 -15,-18 -72,-98 -158,-186 -253,-262 -228,-181 -515,-291 -829,-291 -252,0 -488,78 -689,209 -391,254 -654,708 -654,1197 0,82 10,51 24,304l629 0 3894 0 407 0 154 0 1937 0c-29,-759 -605,-1331 -1317,-1331z"/>
  </g>
 </g>
</svg>
