<?xml version="1.0" encoding="utf-8"?>
<!-- Generator: Adobe Illustrator 17.0.0, SVG Export Plug-In . SVG Version: 6.00 Build 0)  -->
<!DOCTYPE svg PUBLIC "-//W3C//DTD SVG 1.1//EN" "http://www.w3.org/Graphics/SVG/1.1/DTD/svg11.dtd">
<svg version="1.1" id="Layer_1" xmlns="http://www.w3.org/2000/svg" xmlns:xlink="http://www.w3.org/1999/xlink" x="0px" y="0px"
	 width="32px" height="32px" viewBox="0 0 32 32" enable-background="new 0 0 32 32" xml:space="preserve">
<g>
	<path d="M15.394,10.593c0.7-0.789,1.953-0.959,2.827-0.461V2.355h-7.771V2.339V1.307h-3.1v1.032v0.016H0.19v20.606h5.57
		l-3.219,6.846c-0.242,0.516-0.021,1.133,0.494,1.376c0.517,0.241,1.13,0.022,1.373-0.493l3.633-7.724l0.003-0.005h3.174
		l0.003,0.005l3.633,7.725c0.177,0.373,0.547,0.592,0.936,0.592c0.146,0,0.295-0.03,0.438-0.098
		c0.516-0.242,0.736-0.858,0.493-1.372l-3.213-6.846l-0.002-0.006h4.716v-6.804l-2.641-2.351
		C14.643,12.974,14.562,11.531,15.394,10.593z M3.464,9.209h2.838v9.255H3.464V9.209z M10.318,18.464H7.87H7.481v-5.064h2.837v2.773
		V18.464z M14.291,18.464h-2.838V4.625h2.838V18.464z"/>
	<circle cx="25.976" cy="5.096" r="3.077"/>
	<path d="M28.554,9.356l-2.578,3.558l-2.547-3.317l-3.049,3.75l-2.447-2.173c-0.512-0.457-1.3-0.411-1.76,0.102
		c-0.454,0.515-0.411,1.302,0.104,1.761l3.417,3.037c0.228,0.204,0.521,0.316,0.825,0.316c0.031,0,0.06-0.001,0.091-0.006
		c0.339-0.026,0.661-0.19,0.877-0.454l1.361-1.682v4.633c0,0.58,0,1.122,0.262,1.585v10.098c0,0.691,0.645,1.222,1.332,1.222
		c0.691,0,1.337-0.441,1.337-1.271h0.33c0,0.829,0.583,1.271,1.272,1.271c0.686,0,1.272-0.53,1.272-1.222V20.465
		c0.262-0.465,0.262-1.005,0.262-1.585v-4.024c0.524,1.111,0.56,2.591,0.554,4.453c-0.001,0.69,0.643,1.294,1.333,1.294h0.001
		c0.687,0,1.244-0.598,1.248-1.287C32.069,12.924,29.995,10.348,28.554,9.356z"/>
	<path d="M27.415,8.493l-0.732,0.314c-0.152-0.256-0.425-0.426-0.744-0.426c-0.319,0-0.594,0.173-0.739,0.432l-0.732-0.308
		c-0.106-0.045-0.253-0.033-0.348,0.029c-0.099,0.065-0.18,0.172-0.18,0.289v0.914c0,0.109,0.074,0.212,0.161,0.278
		c0.09,0.065,0.217,0.084,0.321,0.054c0.29-0.09,0.659-0.197,0.864-0.259c0.157,0.18,0.396,0.296,0.65,0.296
		c0.271,0,0.508-0.124,0.667-0.315c0.204,0.062,0.559,0.172,0.847,0.259c0.104,0.031,0.18,0.012,0.271-0.054
		c0.087-0.064,0.104-0.167,0.104-0.277V8.811c0-0.115-0.024-0.223-0.122-0.287C27.606,8.459,27.522,8.45,27.415,8.493z"/>
</g>
</svg>
