<?xml version="1.0" encoding="utf-8"?>
<!-- Generator: Adobe Illustrator 16.0.0, SVG Export Plug-In . SVG Version: 6.00 Build 0)  -->
<!DOCTYPE svg PUBLIC "-//W3C//DTD SVG 1.1//EN" "http://www.w3.org/Graphics/SVG/1.1/DTD/svg11.dtd">
<svg version="1.1" id="Artwork" xmlns="http://www.w3.org/2000/svg" xmlns:xlink="http://www.w3.org/1999/xlink" x="0px" y="0px"
	 width="512px" height="512px" viewBox="0 0 512 512" enable-background="new 0 0 512 512" xml:space="preserve">
<g>
	<path d="M79.16,120.444h359.617c29.944,0,54.223-24.278,54.223-54.222S468.722,12,438.777,12H79.16
		c-29.944,0-54.223,24.278-54.223,54.222S49.216,120.444,79.16,120.444z"/>
	<path d="M438.777,201.778H79.16c-29.944,0-54.223,24.278-54.223,54.222s24.278,54.222,54.223,54.222h359.617
		C468.722,310.222,493,285.944,493,256S468.722,201.778,438.777,201.778z"/>
	<path d="M438.777,391.556H79.16c-29.944,0-54.223,24.278-54.223,54.222S49.216,500,79.16,500h359.617
		C468.722,500,493,475.722,493,445.778S468.722,391.556,438.777,391.556z"/>
</g>
</svg>
