<?xml version="1.0" encoding="utf-8"?>
<!-- Generator: Adobe Illustrator 16.0.0, SVG Export Plug-In . SVG Version: 6.00 Build 0)  -->
<!DOCTYPE svg PUBLIC "-//W3C//DTD SVG 1.1//EN" "http://www.w3.org/Graphics/SVG/1.1/DTD/svg11.dtd">
<svg version="1.1" id="Artwork" xmlns="http://www.w3.org/2000/svg" xmlns:xlink="http://www.w3.org/1999/xlink" x="0px" y="0px"
	 width="512px" height="512px" viewBox="0 0 512 512" enable-background="new 0 0 512 512" xml:space="preserve">
<g>
	<path d="M437.395,241.521c-12.438-0.003-24.01,3.457-33.869,9.468c-3.71,2.262-8.353,2.345-12.141,0.216
		c-3.787-2.129-6.12-6.137-6.12-10.482v-78.158c0-12.027-10.111-21.7-22.139-21.7h-95.749c-4.252,0-8.187-2.248-10.348-5.909
		c-2.161-3.662-2.23-8.196-0.172-11.917c5.22-9.429,8.19-20.296,8.19-31.821c0-36.233-29.373-65.627-65.617-65.627
		c-36.232,0-65.601,29.404-65.601,65.638c0,11.523,2.97,22.385,8.187,31.811c2.061,3.723,1.999,8.258-0.163,11.923
		c-2.163,3.665-6.102,5.902-10.356,5.902H35.751c-12.032,0-22.013,9.673-22.013,21.7v76.237c0,4.231,2.226,8.15,5.859,10.318
		c3.633,2.168,8.143,2.27,11.864,0.257c9.267-5.012,19.876-7.858,31.151-7.855c36.239-0.005,65.612,29.378,65.612,65.612
		c0,36.238-29.373,65.616-65.612,65.606c-11.276,0-21.885-2.846-31.152-7.857c-3.725-2.014-8.234-1.92-11.871,0.25
		c-3.636,2.17-5.852,6.092-5.852,10.326v80.76c0,12.033,9.98,21.784,22.013,21.784h327.375c12.027,0,22.139-9.751,22.139-21.784
		v-82.681c0-4.342,2.343-8.346,6.127-10.474s8.426-2.053,12.134,0.207c9.858,6.01,21.432,9.469,33.869,9.469
		c36.239,0.01,65.606-29.368,65.606-65.606C503.001,270.899,473.634,241.516,437.395,241.521z"/>
</g>
</svg>
