<?xml version="1.0" encoding="iso-8859-1"?>
<!-- Generator: Adobe Illustrator 16.0.0, SVG Export Plug-In . SVG Version: 6.00 Build 0)  -->
<!DOCTYPE svg PUBLIC "-//W3C//DTD SVG 1.1//EN" "http://www.w3.org/Graphics/SVG/1.1/DTD/svg11.dtd">
<svg version="1.1" id="Capa_1" xmlns="http://www.w3.org/2000/svg" xmlns:xlink="http://www.w3.org/1999/xlink" x="0px" y="0px"
	 width="188.288px" height="188.287px" viewBox="0 0 188.288 188.287" style="enable-background:new 0 0 188.288 188.287;"
	 xml:space="preserve">
<g>
	<g>
		<path d="M81.374,54.906c-0.15-0.634-0.371-2.108-1.37-1.998c-1.366,0.15-1.576,1.219-1.676,2.411
			c-0.142,1.693,0.043,3.414,1.771,4.081c0.84,0.324,1.602-0.357,1.884-1.07C82.447,57.161,81.645,56.048,81.374,54.906z"/>
		<path d="M115.095,55.864c-0.231-1.184-0.244-2.302-0.79-3.392c-0.44-0.88-1.892-0.882-2.331,0
			c-0.906,1.819-1.449,5.424,0.203,6.914c0.83,0.748,2.092,0.628,2.692-0.347C115.548,57.94,115.333,57.074,115.095,55.864z"/>
		<path d="M105.122,60.419c-0.93-1.047-2.322-0.105-2.459,1.019c-0.224,1.838,0.682,3.539-0.671,5.156
			c-1.173,1.401-3.18,1.838-4.914,1.91c-4.602,0.188-7.306-2.587-7.197-7.066c0.02-0.818-1.176-1.168-1.563-0.423
			c-3.185,6.132,3.235,10.523,8.76,10.68c2.761,0.079,5.711-0.9,7.572-2.993C106.557,66.556,107.11,62.658,105.122,60.419z"/>
		<path d="M168.083,99.883c-0.081-0.021-0.129-0.091-0.221-0.093c-0.362-0.007-0.707,0.042-1.061,0.067
			c0.115-8.415,0.701-16.879,0.089-25.281c-0.405-5.547,0.39-11.891-0.612-17.275c0.251-0.87-0.427-1.935-1.518-1.614
			c-16.02,4.727-30.63,12.084-46.372,17.19c3.139-2.689,5.643-6.024,7.083-10.055c3.783,0.925,7.854-0.614,9.364-4.559
			c0.694-1.812,0.484-3.808-0.783-5.317c-1.648-1.964-4.455-2.384-6.873-2.385c-0.181,0-0.369,0.077-0.554,0.145
			c-0.194-1.566-0.47-3.169-0.921-4.853c2.007-0.175,4.006-0.39,5.995-0.661c4.139-0.563,3.158-7.857-0.989-7.308
			c-0.357,0.047-0.723,0.064-1.082,0.107c1.596-8.434-1.495-17.307-6.927-23.75c-4.256-5.049-12.431-10.233-19.252-7.979
			c-0.149-0.776-0.363-1.492-0.747-2.041c-4-5.712-13.035-4.72-18.664-2.31c-0.946,0.405-1.423,1.598-1.459,2.544
			c-0.029,0.746-0.048,1.551-0.072,2.333c-8.805-0.197-14.867,11.838-16.872,18.937c-1.047,3.707-2.354,11.083-0.351,15.461
			c-1.976,0.397-3.844,0.967-5.494,1.829c-1.577,0.825-1.434,3.143,0,4.003c2.044,1.227,4.626,1.706,7.38,1.82
			c-0.401,1.762-0.616,3.422-0.747,5.035c-0.742-0.295-1.595-0.373-2.506-0.165c-2.058,0.471-3.571,2.602-4.295,4.446
			c-0.739,1.881-0.586,4.224,0.771,5.785c1.727,1.987,5.246,2.472,7.596,1.446c2.832,7.024,8.991,11.571,16.286,13.795
			c-21.41,1.192-45.32-2.239-60.642-15.092c-1.134-0.951-2.446,0.28-1.881,1.443c-1.306,3.163-0.395,8.452-0.422,11.657
			c-0.06,7.292,0.152,14.562,0.808,21.83c-2.673-0.123-5.856,1.504-7.492,3.357c-4.302,4.874-2.561,12.279,3.567,14.619
			c1.46,0.557,2.93,0.654,4.348,0.451c-1.667,4.609-3.196,11.798-1.538,16.197c0.331,0.879,1.084,1.18,1.764,1.043
			c2.708,5.904,11.617,9.396,16.927,11.485c11.091,4.364,22.243,6.878,33.653,8.24c-0.465,3.317-0.366,6.655-0.302,10.005
			c0.107,5.593-1.646,5.218-6.072,7.829c-5.369,3.167-8.175,8.321-8.391,14.454c-0.034,0.97,1.038,1.853,1.987,1.514
			c7.051-2.518,14.011-2.898,21.398-2.622c3.335,0.125,7.139,0.058,8.822-3.221c2.707-5.274,1.465-12.343,0.591-18.843
			c-0.002-0.006-0.001-0.012-0.002-0.019c-0.352-2.622-0.649-5.159-0.594-7.435c0.004-0.159-0.043-0.283-0.079-0.416
			c1.803,0.054,3.604,0.107,5.425,0.125c4.033,0.037,9.612,0.303,15.887,0.419c0.963,8.825,1.678,17.634,2.432,26.479
			c0.079,0.924,0.705,1.664,1.681,1.68c8.925,0.144,18.079-0.879,26.432,2.925c1.3,0.592,2.679-0.112,2.773-1.591
			c0.581-9.158-5.779-17.895-15.041-18.573c-0.384-3.681-0.202-7.368-0.669-11.048c-0.009-0.067-0.044-0.113-0.06-0.176
			c16.936-1.094,33.715-5.144,37.863-17.892c0.133-0.407,0.078-0.778-0.053-1.114c0.027-0.129,0.065-0.25,0.062-0.399
			c-0.093-3.449-0.371-6.829-0.206-10.292c0.132-2.783,0.559-5.592,0.615-8.385c4.641-0.636,7.574-4.772,8.1-9.431
			C176.479,103.866,172.979,98.751,168.083,99.883z M126.86,53.605c0.108,0.024,0.209,0.089,0.321,0.085
			c2.488-0.084,5.612,0.629,4.655,3.747c-0.741,2.415-3.354,3.352-5.704,3.231C126.681,58.487,126.934,56.131,126.86,53.605z
			 M62.876,62.032c-0.787-0.717-0.586-1.876-0.27-2.833c0.607-1.836,1.999-3.005,3.694-2.939c-0.007,2.379,0.288,4.576,0.832,6.603
			C65.682,62.775,64.003,63.059,62.876,62.032z M102.038,19.365c0.269-2.274,1.452-6.628,1.592-10.307
			c6.169,0.763,11.388,4.055,16.065,8.192c6.039,5.34,6.948,13.539,6.424,21.092c-8.451,0.773-17.058,0.757-25.659,0.837
			C100.391,32.592,101.268,25.892,102.038,19.365z M95.167,5.55c5.022,0.145,2.795,5.326,2.485,8.695
			c-0.766,8.27-2.086,16.683-1.936,25.007c-1.97,0.039-3.937,0.102-5.9,0.188c0.259-5.066-0.668-10.26-0.926-15.32
			c-0.302-5.926-0.342-11.838-0.396-17.766C90.608,5.581,92.929,5.485,95.167,5.55z M69.632,27.318
			c1.776-7.644,6.272-13.296,12.807-17.007c-0.118,9.679,0.535,21,4.403,29.291c-1.476,0.089-2.953,0.176-4.421,0.311
			c-4.053,0.372-8.935,0.262-13.555,0.748C67.509,36.925,68.842,30.716,69.632,27.318z M80.11,73.967
			c-9.289-4.373-9.892-16.084-10.588-25.121c4.535-0.129,9.292-1,12.899-1.324c13.264-1.19,26.83-0.562,40.108-1.449
			c3.407,17.201-7.263,29.9-24.462,31.041C91.868,77.525,85.745,76.62,80.11,73.967z M20.628,113.621
			c-9.25-1.496-1.743-15.395,4.349-10.461c0.438,0.355,1.085,0.201,1.282-0.247c0.555,0.407,1.079,0.86,1.466,1.542
			c0.759,1.339,0.456,2.986-0.025,4.347C26.734,111.539,23.645,114.109,20.628,113.621z M66.971,183.15
			c-0.953-0.773-1.94-1.5-2.931-2.224c0.243-0.377,0.57-0.67,0.841-1.018c1.385,1.038,2.819,1.987,4.362,2.766
			C68.483,182.816,67.725,182.975,66.971,183.15z M71.205,182.363c-0.047-0.082-0.075-0.176-0.166-0.231
			c-1.764-1.095-3.543-2.153-5.284-3.28c0.381-0.408,0.821-0.766,1.24-1.142c2.233,1.308,4.15,3.046,6.316,4.438
			C72.61,182.206,71.908,182.266,71.205,182.363z M76.795,182.051c-0.647-0.031-1.3-0.003-1.953,0.018
			c0.065-0.262,0.033-0.549-0.262-0.736c-2.283-1.462-4.578-2.982-7.048-4.116c0.618-0.517,1.354-0.954,2.037-1.425
			c1.73,1.363,3.434,2.761,5.194,4.089c0.953,0.72,1.973,1.549,3.058,2.243C77.478,182.097,77.128,182.066,76.795,182.051z
			 M82.301,182.361c-0.045-0.104-0.058-0.211-0.159-0.311c-1.732-1.704-4.273-2.671-6.332-3.964
			c-1.682-1.056-3.355-2.11-5.055-3.128c0.527-0.332,1.084-0.655,1.634-0.979c2.57,1.174,4.985,2.59,7.361,4.119
			c1.909,1.229,3.769,2.701,5.806,3.756C84.604,182.223,83.486,182.352,82.301,182.361z M87.628,180.176
			c-3.751-3.099-8.836-5.49-13.433-7.227c0.572-0.316,1.134-0.633,1.736-0.946c0.153-0.08,0.277-0.196,0.393-0.315
			c1.856,1.42,3.771,2.76,5.767,3.979c1.773,1.084,3.995,2.753,6.177,2.937C88.111,179.204,87.908,179.743,87.628,180.176z
			 M87.847,157.143c-1.467-0.683-2.982-1.242-4.481-1.839c1.494,0.095,2.987,0.193,4.492,0.257
			c-0.048,0.156-0.091,0.318-0.079,0.514C87.801,156.431,87.825,156.786,87.847,157.143z M87.708,159.779
			c0.109,0.041,0.21,0.041,0.312,0.049c0.037,0.566,0.072,1.135,0.109,1.701c-1.839-0.862-3.703-1.686-5.498-2.623
			c-2.432-1.269-4.879-2.492-7.444-3.473c-0.032-0.271-0.035-0.541-0.073-0.812c1.323,0.144,2.656,0.246,3.987,0.36
			c0.062,0.117,0.087,0.246,0.211,0.342C81.825,157.234,84.762,158.667,87.708,159.779z M88.321,164.533
			c0.024,0.398,0.054,0.799,0.077,1.197c-3.802-2.594-8.502-4.699-12.778-5.47c-0.068-1.086-0.194-2.174-0.293-3.261
			C79.716,159.124,83.652,163.113,88.321,164.533z M88.552,176.018c-1.576-1.037-3.695-1.548-5.315-2.312
			c-2.251-1.062-4.386-2.327-6.436-3.73c-0.006-0.031-0.001-0.062-0.009-0.092c-0.291-1.105-0.476-2.214-0.634-3.324
			c3.935,2.43,8.095,5.547,12.455,6.209C88.605,173.852,88.613,174.932,88.552,176.018z M81.9,167.611
			c-1.979-0.935-3.95-1.879-5.946-2.771c-0.094-0.934-0.142-1.868-0.205-2.802c4.78,1.542,8.425,4.985,12.817,7.219
			c0.014,0.435,0.054,0.87,0.062,1.306C86.498,169.4,84.09,168.645,81.9,167.611z M114.869,158.277
			c-0.035-0.01-0.053,0.016-0.087,0.009c-0.153-0.685-0.291-1.373-0.469-2.05c0.256,0.002,0.527-0.002,0.786,0
			c0.043,0.037,0.036,0.09,0.091,0.123c3.43,2.066,7.461,4.556,11.427,5.371c0.011,0.465,0.031,0.929,0.041,1.393
			c-0.062-0.053-0.116-0.111-0.201-0.148C122.654,161.263,118.88,159.461,114.869,158.277z M119.313,156.238
			c2.284-0.019,4.598-0.062,6.941-0.163c0.135,1.013,0.202,2.026,0.26,3.041C124.158,158.061,121.712,157.215,119.313,156.238z
			 M115.207,160.214c3.562,1.383,6.878,3.295,10.464,4.626c0.417,0.155,0.783-0.02,1.019-0.316c0.023,0.961,0.058,1.922,0.119,2.881
			c-3.414-1.461-6.863-2.82-10.178-4.125c-0.348-0.137-0.622,0.041-0.82,0.291C115.626,162.447,115.424,161.329,115.207,160.214z
			 M117.701,181.053c-0.073-0.91-0.151-1.828-0.225-2.744c0.541,0.399,1.074,0.742,1.407,0.988c0.893,0.662,1.843,1.236,2.786,1.819
			C120.357,181.111,119.037,181.1,117.701,181.053z M126.261,181.124c-1.282-1.364-3.545-2.097-5.138-2.963
			c-1.341-0.731-2.604-1.558-3.857-2.413c-0.071-0.834-0.158-1.668-0.236-2.502c3.459,2.783,7.142,5.66,11.063,7.912
			C127.483,181.148,126.875,181.127,126.261,181.124z M133.748,181.445c-5.483-3.689-11.43-6.797-16.935-10.493
			c-0.058-0.542-0.127-1.082-0.189-1.623c6.286,3.569,12.031,8.606,18.301,12.287C134.533,181.566,134.141,181.484,133.748,181.445z
			 M139.644,177.148c0.692,1.186,1.226,2.486,1.563,3.877c-7.523-5.444-16.437-9.901-24.816-13.698
			c-0.106-0.825-0.258-1.64-0.381-2.461C124.094,168.439,131.335,174.204,139.644,177.148z M164.136,136.277
			c-0.061,0.089-0.138,0.147-0.186,0.254c-8.429,18.789-51.001,14.199-67.798,14.41c-12.508,0.155-24.861-1.114-37.112-3.631
			c-10.504-2.156-27.552-6.209-34.928-14.996c0.104-2.23-0.222-4.553-0.15-6.789c0.09-2.787,0.388-5.653,0.215-8.439
			c2.998-0.99,5.571-3.426,6.892-6.377c2.017-4.503-0.244-11.971-6.143-11.516c1.113-8.486,0.159-17.859-0.289-26.407
			c-0.003-0.053-0.427-2.822-0.997-5.106c14.324,15.389,44.158,15.759,63.176,15.235c25.457-0.701,54.63-9.832,76.427-23.331
			c-1.144,3.243-0.415,7.906-0.272,10.677c0.517,9.969,0.419,19.849,0.435,29.835c0,0.204,0.055,0.37,0.109,0.536
			c-3.082,1.285-5.353,3.995-5.777,7.679c-0.581,5.034,2.646,8.769,7.403,9.459C163.347,123.393,162.558,130.878,164.136,136.277z
			 M166.045,114c-3.084-0.027-4.852-2.789-4.435-5.663c0.461-3.176,2.928-5.385,5.862-6.271c0.106,0.07,0.174,0.178,0.316,0.213
			c3.407,0.83,4.748,2.546,4.478,6.108C172.002,111.865,169.389,114.029,166.045,114z"/>
	</g>
</g>
<g>
</g>
<g>
</g>
<g>
</g>
<g>
</g>
<g>
</g>
<g>
</g>
<g>
</g>
<g>
</g>
<g>
</g>
<g>
</g>
<g>
</g>
<g>
</g>
<g>
</g>
<g>
</g>
<g>
</g>
</svg>
