<?xml version="1.0" encoding="iso-8859-1"?>
<!-- Generator: Adobe Illustrator 16.0.0, SVG Export Plug-In . SVG Version: 6.00 Build 0)  -->
<!DOCTYPE svg PUBLIC "-//W3C//DTD SVG 1.1//EN" "http://www.w3.org/Graphics/SVG/1.1/DTD/svg11.dtd">
<svg version="1.1" id="Capa_1" xmlns="http://www.w3.org/2000/svg" xmlns:xlink="http://www.w3.org/1999/xlink" x="0px" y="0px"
	 width="546.897px" height="546.897px" viewBox="0 0 546.897 546.897" style="enable-background:new 0 0 546.897 546.897;"
	 xml:space="preserve">
<g>
	<path d="M241.35,445.893h-5.677v-4.779h5.677v-5.675h4.779v5.675h5.677v4.779h-5.677v5.68h-4.779V445.893z M355.052,441.113h-16.13
		v4.779h16.13V441.113z M546.887,499.163H371.779v10.352c0,2.641-2.138,4.778-4.779,4.778H224.432c-2.644,0-4.779-2.138-4.779-4.778
		v-10.949H77.795c-1.323,0-2.39-1.073-2.39-2.39V301.53L0.459,122.536c-1.018-2.289-0.301-4.979,1.746-6.436l9.007-6.438
		c0.11-0.077,0.224-0.124,0.336-0.196c0.119-0.072,0.238-0.143,0.367-0.21c0.268-0.128,0.537-0.236,0.816-0.315
		c0.096-0.035,0.196-0.082,0.301-0.101c0.388-0.096,0.784-0.145,1.176-0.149c0.019,0,0.04-0.009,0.073-0.009l243.691,26.472
		c2.107,0,4.004,1.258,4.835,3.178l2.95,6.877l2.322,5.439l64.94,151.619c0.518,0.812,0.816,1.783,0.816,2.819
		c0,2.912-2.353,5.27-5.27,5.27c-0.014,0.004-0.042,0.004-0.069,0h-91.373v17.226l54.073,2.562c1.769,0.089,3.197,1.47,3.337,3.234
		c0.136,1.773-1.055,3.36-2.795,3.715l-57.424,11.808l-77.067,11.005c-0.168,0.028-0.333,0.037-0.501,0.037
		c-1.428,0-2.744-0.887-3.279-2.259c-0.579-1.53-0.028-3.262,1.333-4.172l38.664-25.776l-5.143-17.385H98.976h-2.137H82.602
		c-0.871,0-1.683-0.252-2.418-0.645v184.079h139.474v-70.291c0-2.637,2.135-4.779,4.779-4.779h6.069v-11.149
		c0-1.315,1.076-2.39,2.39-2.39h18.519c1.323,0,2.39,1.074,2.39,2.39v11.149h83.037v-11.149c0-1.315,1.073-2.39,2.39-2.39h18.519
		c1.321,0,2.39,1.074,2.39,2.39v11.149h6.87c2.642,0,4.778,2.143,4.778,4.779v70.894h170.335V37.383H428.007V84.08
		c0.112,0.077,0.243,0.11,0.341,0.201l54.601,47.427c1.129,0.98,1.53,2.558,1.003,3.962c-0.518,1.4-1.861,2.329-3.351,2.329h-25.809
		c-1.778,14.316-14.002,25.447-28.792,25.447c-14.785,0-27.008-11.131-28.786-25.447h-25.809c-1.494,0-2.833-0.929-3.356-2.329
		c-0.522-1.405-0.121-2.982,1.004-3.962l54.185-47.067V32.604h123.659v466.559H546.887z M447.572,138.003h-43.143
		c1.713,10.356,10.734,18.279,21.571,18.279C436.842,156.282,445.855,148.359,447.572,138.003z M426.005,91.745h-0.019l-45,39.089
		h19.564h50.895h19.56L426.005,91.745z M147.967,299.822l-11.451-27.036l-8.188-5.342l-43.88-1.596l14.318,33.974H147.967z
		 M239.472,230.754l-9.147-21.648l-7.929-5.171l-43.432-2.814l-4.219,5.346l8.744,20.675l8.613,5.988l43.131,2.17L239.472,230.754z
		 M236.65,238.894l-42.748-2.151l-4.145,5.253l8.303,19.632l7.351,5.104l43.487,1.582l4.427-4.758l-8.039-19.016L236.65,238.894z
		 M224.546,195.445l-8.87-21.011l-7.528-4.91l-44.951-3.517l-3.615,4.579l9.038,21.396l7.876,5.477l43.562,2.819L224.546,195.445z
		 M155.121,169.062l-6.438-4.198l-50.113-3.922l-3.652,4.621l9.304,21.975l8.298,5.764l48.407,3.139l3.958-4.251L155.121,169.062z
		 M110.427,202.152l9.724,22.987l6.788,4.711l48.673,2.453l4.292-4.608l-9.332-22.083l-8.555-5.589l-47.495-3.071L110.427,202.152z
		 M125.968,238.87l8.569,20.248l7.656,5.313l48.659,1.769l3.67-3.932l-9.07-21.468l-7.46-4.866l-47.81-2.408L125.968,238.87z
		 M210.396,299.822l-10.375-24.539l-8.503-5.54l-46.141-1.683l-4.583,5.804l10.986,25.958H210.396z M221.153,343.693l-23.251-10.474
		l-26.322,17.553L221.153,343.693z M230.109,334.279l-14.255-0.677l14.255,6.432V334.279z M230.109,310.356h-34.452l4.579,15.48
		l29.874,1.419V310.356z M237.124,334.61v6.553l25.875-5.325L237.124,334.61z M268.648,299.822l-9.603-22.724l-7.957-5.195
		l-41.827-1.521l-4.879,6.189l9.822,23.251H268.648z M309.45,274.022l-42.073-1.53l-4.21,5.339l9.29,21.991h48.026L309.45,274.022z
		 M295.682,241.867l-42.214-2.122l-4.156,5.274l7.79,18.444l7.813,5.433l43.005,1.563L295.682,241.867z M281.074,207.734
		l-42.92-2.782l-3.757,4.761l8.961,21.205l7.442,5.171l43.352,2.184L281.074,207.734z M223.676,170.733l-3.741,4.742l8.448,20.01
		l8.45,5.873l42.697,2.759l-12.846-30.014L223.676,170.733z M205.106,140.402l8.61,20.381l9.166,6.366l42.237,3.304l-6.973-16.27
		l-2.327-5.437l-1.309-3.064L205.106,140.402z M144.067,133.873l9.089,21.52l10.223,7.104l42.384,3.311l4.312-4.627l-8.961-21.209
		L144.067,133.873z M78.539,126.867l10.548,24.922l7.934,5.509l48.211,3.776l4.482-4.807l-9.654-22.819L78.539,126.867z
		 M36.704,152.578l44.001,3.447l4.378-4.705l-10.538-24.873l-51.161-5.479L36.704,152.578z M52.226,189.401l44.239,2.863
		l4.098-4.394l-9.507-22.451l-8.812-5.755l-44.006-3.439L52.226,189.401z M68.031,226.888l43.934,2.208l4.163-4.466l-9.922-23.434
		l-8.137-5.309l-44.319-2.868L68.031,226.888z M82.938,262.273l43.989,1.605l4.007-4.296l-8.823-20.822l-9.353-6.104l-43.217-2.18
		L82.938,262.273z M235.281,418.716h13.74v-8.76h-13.74V418.716z M362.22,428.274H229.211v76.466H362.22V428.274z M392.739,156.104
		l-12.746,14.734c-0.863,0.999-0.751,2.511,0.247,3.37c0.453,0.392,1.009,0.583,1.56,0.583c0.672,0,1.334-0.283,1.806-0.826
		l12.746-14.734c0.868-0.999,0.756-2.509-0.243-3.37C395.11,155,393.607,155.101,392.739,156.104z M425.977,194.251
		c1.316,0,2.386-1.064,2.39-2.383l0.042-19.48c0.005-1.318-1.063-2.394-2.385-2.394h-0.004c-1.312,0-2.386,1.066-2.39,2.385
		l-0.042,19.478C423.583,193.177,424.657,194.251,425.977,194.251L425.977,194.251z M474.053,175.928
		c0.724,0,1.446-0.329,1.908-0.959c0.789-1.057,0.574-2.553-0.48-3.342l-15.611-11.665c-1.05-0.789-2.553-0.574-3.342,0.487
		c-0.788,1.057-0.573,2.553,0.481,3.342l15.606,11.666C473.049,175.776,473.549,175.928,474.053,175.928z M390.442,210.357
		c0.299,0.126,0.616,0.187,0.925,0.187c0.929,0,1.82-0.543,2.207-1.46l16.807-39.824c0.509-1.221-0.057-2.621-1.274-3.132
		c-1.204-0.506-2.618,0.054-3.132,1.276l-16.811,39.824C388.655,208.441,389.229,209.841,390.442,210.357z M442.55,167.9
		c-1.218,0.506-1.783,1.911-1.274,3.125l16.807,39.829c0.387,0.908,1.278,1.463,2.207,1.463c0.309,0,0.626-0.063,0.925-0.191
		c1.218-0.506,1.787-1.911,1.278-3.125l-16.811-39.829C445.168,167.952,443.764,167.39,442.55,167.9z"/>
</g>
<g>
</g>
<g>
</g>
<g>
</g>
<g>
</g>
<g>
</g>
<g>
</g>
<g>
</g>
<g>
</g>
<g>
</g>
<g>
</g>
<g>
</g>
<g>
</g>
<g>
</g>
<g>
</g>
<g>
</g>
</svg>
