<?xml version="1.0" encoding="iso-8859-1"?>
<!-- Generator: Adobe Illustrator 16.0.0, SVG Export Plug-In . SVG Version: 6.00 Build 0)  -->
<!DOCTYPE svg PUBLIC "-//W3C//DTD SVG 1.1//EN" "http://www.w3.org/Graphics/SVG/1.1/DTD/svg11.dtd">
<svg version="1.1" id="Capa_1" xmlns="http://www.w3.org/2000/svg" xmlns:xlink="http://www.w3.org/1999/xlink" x="0px" y="0px"
	 width="542.389px" height="542.389px" viewBox="0 0 542.389 542.389" style="enable-background:new 0 0 542.389 542.389;"
	 xml:space="preserve">
<g>
	<path d="M118.628,483.467c0,4.326-3.505,7.836-7.838,7.836c-4.326,0-7.848-3.51-7.848-7.836c0-4.331,3.517-7.846,7.848-7.846
		C115.124,475.626,118.628,479.136,118.628,483.467z M526.102,524.855c0,0.042-0.019,0.069-0.019,0.107v17.427H271.825v-15.729
		c-0.457-0.858-0.672-1.82-0.425-2.776l5.918-23.187c-14.099-0.2-51.898-3.006-61.517-26.742
		c-6.004-14.412-0.301-30.438,4.726-44.58c1.514-4.279,2.954-8.335,3.985-12.083c4.938-17.311,6.133-35.987,3.36-52.621
		c-7.824-51.697-45.816-82.351-78.02-103.301c-1.365-0.84-3.454-2.012-5.983-3.43c-16.381-9.208-46.874-26.351-46.386-43.227
		c0.044-1.615,0.378-3.165,0.961-4.653l-8.655-7.896c-4.756,2.655-9.822,5.063-14.825,7.416
		c-16.933,7.985-34.448,16.246-38.401,33.771c-7.985,32.912,15.121,38.643,39.582,44.701c19.235,4.766,39.04,9.731,40.641,29.197
		h46.869c3.188,0,5.764,2.586,5.764,5.769v178.357c0,3.183-2.577,5.769-5.764,5.769H57.928c-3.192,0-5.768-2.586-5.768-5.769
		V323.017c0-3.188,2.576-5.769,5.768-5.769h53.077c-1.601-14.98-17.684-19.004-36.24-23.601
		c-24.908-6.17-53.13-13.171-43.805-51.614c4.56-20.222,23.37-29.09,41.553-37.668c4.431-2.091,8.718-4.158,12.757-6.324
		l-68.046-62.067c-0.621-0.565-0.955-1.382-0.936-2.222l0.73-23.741c-1.071-1.218-0.506-3.291,1.549-5.162l9.659-8.77
		c0.124-0.103,0.248-0.182,0.357-0.289c0.154-0.107,0.278-0.215,0.416-0.322c0.292-0.214,0.593-0.415,0.91-0.606
		c0.1-0.07,0.21-0.149,0.32-0.21c0.429-0.238,0.889-0.458,1.332-0.654c0.023-0.004,0.054-0.019,0.086-0.032L312.956,0.704
		c2.403-0.961,4.695-0.938,5.839,0.065l96.398,85.426c0.667,0.355,1.097,0.905,1.204,1.647c0.103,0.747-0.247,1.563-0.742,2.38
		c0.032,0.261,0.131,0.522,0.084,0.798l-3.104,19.583c-0.154,0.994-0.831,1.844-1.765,2.212L122.546,229.816
		c-0.343,0.14-0.711,0.205-1.081,0.205c-0.583,0-1.141-0.21-1.643-0.56c-0.04-0.033-0.091-0.019-0.131-0.052
		c-0.033-0.014-0.033-0.051-0.051-0.065c-0.044-0.033-0.096-0.047-0.119-0.075l-16.211-14.785c-0.009,0.135-0.054,0.256-0.054,0.396
		c-0.396,13.385,30.32,30.658,43.444,38.032c2.608,1.465,4.767,2.684,6.235,3.584c33.288,21.637,72.47,53.345,80.638,107.272
		c2.901,17.413,1.664,36.982-3.502,55.072c-1.071,3.925-2.543,8.074-4.1,12.47c-4.679,13.152-9.978,28.063-4.823,40.45
		c8.631,21.301,45.819,23.153,57.645,23.186l8.237-32.217V330.923c0-4.326,3.501-7.836,7.837-7.836h199.718
		c4.331,0,7.831,3.51,7.831,7.836v131.729l22.93,59.855C525.817,523.166,526.102,523.977,526.102,524.855z M63.692,464.709h94.2
		V348.654h-94.2V464.709z M157.893,495.611v-25.137h-94.2v25.137H157.893z M157.893,328.786h-94.2v14.1h94.2V328.786z
		 M172.167,136.031l11.787,10.604l9.266,0.304l55.83-21.156l3.799-4.508l-12.48-11.248l-8.993-0.061l-54.927,20.297L172.167,136.031
		z M172.379,129.11l55.914-20.657l4.45-5.283l-12.846-11.569l-10.333-0.065l-54.621,19.658l-4.177,5.633l13.393,12.027
		L172.379,129.11z M250.158,128.022l-52.938,20.05l-4.665,6.282l15.098,13.59l67.047-27.003l-14.286-12.849L250.158,128.022z
		 M177.669,155.474l-50.349,19.074l19.705,17.814l56.278-22.673l-15.751-14.15L177.669,155.474z M341.322,114.096l-13.207-11.906
		l-9.614-0.065l-47.989,18.174l-4.976,6.692l13.523,12.181L341.322,114.096z M320.246,95.096l-11.065-9.955l-10.431-0.079
		l-49.098,18.15l-4.23,5.68l11.422,10.281l8.912,0.285l49.884-18.901L320.246,95.096z M301.167,77.921l-12.592-11.332l-9.572-0.07
		l-49.939,17.987l-4.306,5.787l12.043,10.828l10.421,0.327l49.548-18.309L301.167,77.921z M280.646,59.421l-12.224-11.005
		l-9.084-0.056l-51.753,18.178l-3.689,4.961l12.431,11.197l9.558,0.308l50.09-18.047L280.646,59.421z M198.652,72.456l-7.761-0.047
		l-57.715,20.265l-3.72,4.994l12.799,11.5l10.055,0.327l55.676-20.05l4.1-4.877L198.652,72.456z M125.018,99.357l-10.629-0.079
		l-50.678,17.8l19.254,17.389l50.869-18.323l4.263-5.041L125.018,99.357z M85.07,136.372l19.641,17.754l50.473-18.659l4.319-5.125
		l-13.64-12.256l-9.836-0.065L85.07,136.372z M106.804,156.006l18.438,16.675l50.472-19.117l4.158-4.938l-12.125-10.888
		l-11.309-0.08L106.804,156.006z M114.001,203.293c-3.636,1.783-6.347,3.692-8.14,5.708l13.507,12.335l2.17-15.164
		c0.033-0.224,0.187-0.401,0.257-0.611l-6.38-5.815C115.898,201.113,115.35,202.649,114.001,203.293z M409.247,95.138
		L127.011,208.637l-1.984,13.945l282.158-114.488L409.247,95.138z M385.455,76.759l-48.258,18.29l-4.289,5.769l12.778,11.523
		l54.932-22.126L385.455,76.759z M366.553,60l-48.481,17.922l-4.233,5.712l10.707,9.661l9.465,0.299l49.335-18.687L366.553,60z
		 M346.503,42.213L297.125,59.99l-3.822,5.148l12.326,11.098l9.017,0.29l49.808-18.402L346.503,42.213z M326.72,24.688
		l-49.504,17.385l-3.809,5.139l11.616,10.478l10.249,0.322l49.098-17.688L326.72,24.688z M252.996,28.842l11.856,10.664
		l11.107,0.364l48.617-17.082L310.016,9.871L252.996,28.842z M182.54,52.266l12.519,11.267l12.398,0.396l48.794-17.138l4.483-5.315
		l-12.34-11.108L182.54,52.266z M106.933,77.426l14.505,13.044l9.609,0.304l55.506-19.504l4.66-5.507l-13.277-11.947L106.933,77.426
		z M43.257,98.601l18.351,16.563l50.659-17.796l4.548-5.39l-14.494-13.031L43.257,98.601z M90.498,195.004
		c3.307-2.04,6.419-4.177,9.005-6.632c0.753-0.714,1.771-0.901,2.709-0.649l-79.576-72.489l-0.541,17.371L90.498,195.004z
		 M101.605,205.132c2.331-2.576,5.605-4.933,9.882-7.02c0.63-0.308,1.309-0.327,1.956-0.168l-9.243-8.41
		c0.353,1.027,0.119,2.212-0.724,3.015c-2.513,2.39-5.47,4.48-8.557,6.473L101.605,205.132z M297.807,457.14h193.787V334.816
		H297.807V457.14z M516.343,520.934l-19.466-50.806c-0.733,0.233-1.494,0.462-2.301,0.462H294.853c-0.593,0-1.12-0.215-1.671-0.331
		l-12.951,50.68h236.112V520.934z M369.736,497.361l-5.871,18.099h61.675l-5.876-18.099H369.736z"/>
</g>
<g>
</g>
<g>
</g>
<g>
</g>
<g>
</g>
<g>
</g>
<g>
</g>
<g>
</g>
<g>
</g>
<g>
</g>
<g>
</g>
<g>
</g>
<g>
</g>
<g>
</g>
<g>
</g>
<g>
</g>
</svg>
