<?xml version="1.0" encoding="iso-8859-1"?>
<!-- Generator: Adobe Illustrator 16.0.0, SVG Export Plug-In . SVG Version: 6.00 Build 0)  -->
<!DOCTYPE svg PUBLIC "-//W3C//DTD SVG 1.1//EN" "http://www.w3.org/Graphics/SVG/1.1/DTD/svg11.dtd">
<svg version="1.1" id="Capa_1" xmlns="http://www.w3.org/2000/svg" xmlns:xlink="http://www.w3.org/1999/xlink" x="0px" y="0px"
	 width="525.007px" height="525.007px" viewBox="0 0 525.007 525.007" style="enable-background:new 0 0 525.007 525.007;"
	 xml:space="preserve">
<g>
	<path d="M121.721,199.691c-0.971,1.792-0.908,3.708,0.138,4.287c0.016,0.009,0.03,0.014,0.04,0.019l33.19,18.19l2.543,1.405
		l12.531,6.863l2.656,1.454l32.464,17.791l0.77,0.432l5.162,2.833c0.758,0.415,1.848,0.04,2.795-0.976l89.909-98.662
		c1.12-1.216,1.75-3.026,1.508-4.326l-1.111-5.764c-0.022-0.072-0.037-0.119-0.069-0.182c-0.015-0.079-0.033-0.142-0.07-0.214
		c-0.051-0.133-0.112-0.243-0.173-0.364c-0.037-0.037-0.056-0.075-0.074-0.114c-0.117-0.138-0.243-0.243-0.373-0.329
		c-0.01,0-0.023-0.004-0.038-0.009l-97.383-32.172c-0.761-0.42-1.879-0.031-2.826,1.003l-80.355,87.251
		C122.496,198.506,122.06,199.047,121.721,199.691z M147.15,209.408l11.117-12.125l4.621-1.615l15.686,7.397l-0.287,4.789
		l-11.355,12.403L147.15,209.408z M203.563,186.243l-0.023-3.708l10.771-11.782l4.989-1.743l18.276,7.547l-0.254,4.037
		l-11.236,12.258l-4.046,1.563L203.563,186.243z M219.646,196.049l-0.259,4.121l-9.878,10.799l-4.56,1.755l-18.271-8.587
		l-0.014-3.164l10.466-11.451l4.35-1.514L219.646,196.049z M220.883,167.008l-0.014-3.412l11.292-12.331l3.729-1.309l19.518,7.544
		l-0.21,3.591L244.463,172.8l-4.942,1.911L220.883,167.008z M230.035,151.312l-10.447,11.408l-4.683,1.816l-16.771-6.94l-0.023-3.86
		l10.256-11.227l4.387-1.524l17.511,6.768L230.035,151.312z M212.778,166.31l-0.269,4.137l-10.083,11.035l-5.139,1.988l-16.402-7.25
		l-0.014-3.664l10.576-11.546l4.6-1.608L212.778,166.31z M195.424,185.34l-0.248,4.067l-9.593,10.48l-4.371,1.683l-16.326-7.689
		l-0.021-3.811l9.287-10.151l5.022-1.762L195.424,185.34z M168.336,221.006l11.971-13.089l4.947-1.731l17.32,8.158l-0.269,4.499
		l-12.692,13.833L168.336,221.006z M208.876,243.249l-17.877-9.812l13.22-14.424l4.753-1.673l16.47,7.757L208.876,243.249z
		 M227.181,223.199l-16.512-7.775l-0.01-3.451l10.17-11.096l5.444-1.911l16.431,7.255L227.181,223.199z M244.463,204.314
		l-16.708-7.386l-0.028-3.593l11.451-12.496l4.734-1.659l17.059,7.059L244.463,204.314z M262.737,184.309l-17.032-7.05l-0.005-3.519
		l10.963-11.98l5.125-1.802l17.126,6.644L262.737,184.309z M296.111,147.786l-15.43,16.865l-17.13-6.627l-0.016-3.78l12.144-13.262
		L296.111,147.786z M274.106,140.44l-12.182,13.296l-4.73,1.825l-18.769-7.273l-0.019-3.857l11.146-12.167L274.106,140.44z
		 M247.956,131.722l-10.489,11.477l-6.1,2.354l-16.507-6.394l-0.019-3.713l10.347-11.312L247.956,131.722z M203.874,117.037
		l19.718,6.567l-9.95,10.881l-5.463,2.093l-16.444-6.356L203.874,117.037z M189.947,132.159l16.757,6.485l-0.24,3.675l-9.773,10.671
		l-5.029,1.937l-16.431-6.793L189.947,132.159z M173.465,150.066l16.517,6.828l-0.212,3.694l-10.366,11.304l-4.434,1.711
		l-16.479-7.278L173.465,150.066z M156.733,168.23l16.053,7.087l-0.259,4.103l-8.998,9.824l-4.669,1.815l-16.144-7.603
		L156.733,168.23z M140.971,185.35l15.8,7.441l-0.264,4.123l-10.737,11.733l-17.441-9.567L140.971,185.35z M523.696,203.199
		L373.8,100.133c-0.757-0.697-1.783-1.031-3.271-1.05c-0.379,0.051-0.738,0.152-1.093,0.315L118.419,43.034
		c-1.008,0-1.979,0.392-2.734,1.094L1.292,150.951c-0.94,0.873-1.414,2.149-1.265,3.358c0.119,1.253,0.831,2.399,1.916,3.073
		L20.716,168.8l5.528,146.567l0.565,1.979c0.215,0.369,0.479,0.695,0.768,0.967l221.807,162.871
		c0.693,0.509,1.541,0.789,2.409,0.789c0.697,0,1.412-0.201,1.64-0.388l239.9-86.729l0.761-0.42
		c0.275-0.187,0.476-0.373,0.625-0.513l0.816-0.985c0.206-0.392,0.341-0.808,0.411-1.293l0.42-174.698l25.637-6.837
		c1.433-0.387,2.543-1.521,2.884-2.94C525.241,205.733,524.798,204.223,523.696,203.199z M10.736,153.228L119.92,51.276
		l243.612,55.825L219.856,280.477L46.369,174.911l0.172-13.892l18.538,10.161l2.18,1.199l10.716,5.864l2.279,1.242l27.737,15.212
		l0.669,0.364l4.429,2.427c0.646,0.353,1.559,0.028,2.385-0.835l76.862-84.357c0.957-1.041,1.5-2.585,1.291-3.699l-0.955-4.931
		c-0.021-0.058-0.026-0.1-0.058-0.154c-0.01-0.063-0.019-0.119-0.047-0.182c-0.058-0.114-0.105-0.205-0.154-0.306
		c-0.033-0.028-0.047-0.065-0.068-0.105c-0.101-0.11-0.201-0.201-0.315-0.283c-0.014,0-0.028,0-0.038-0.004l-83.256-27.503
		c-0.651-0.364-1.612-0.028-2.42,0.856l-68.699,74.601c-0.396,0.343-0.763,0.803-1.064,1.354c-0.833,1.533-0.779,3.178,0.115,3.673
		c0.023,0.009,0.037,0.009,0.037,0.021l6.275,3.435l-0.168,13.684L10.736,153.228z M142.146,270.386l-0.156,15.327l-87.631,19.951
		v-17.44L142.146,270.386z M107.02,272.645l-9.113-7.038l22.227-4.573c1.094-0.225,1.888-1.172,1.907-2.292l0.527-27.962
		l70.988,43.201l-46.778,10.65l0.201-20.106L107.02,272.645z M55.827,234.116v15.049c-0.065,0.005-0.128-0.014-0.201,0
		l-10.197,1.897l0.826-66.725l62.894,38.275l-51.352,9.147C56.66,231.959,55.827,232.954,55.827,234.116z M60.606,236.118
		l54.712-9.745l2.522,1.528l-0.539,28.843l-56.695,11.653V236.118z M85.925,268.071l5.812-1.195l4.497,3.481l-12.163,2.408
		l2.446-4.358L85.925,268.071z M106.532,140.44l-0.023-3.174l9.21-10.06l4.277-1.496l15.628,6.457l-0.222,3.456l-9.596,10.48
		l-3.475,1.328L106.532,140.44z M120.279,148.822l-0.217,3.528l-8.459,9.231l-3.89,1.496l-15.618-7.339l-0.019-2.712l8.951-9.782
		l3.713-1.295L120.279,148.822z M121.343,123.996l-0.014-2.915l9.659-10.538l3.188-1.125l16.675,6.457l-0.168,3.06l-9.189,10.027
		l-4.226,1.633L121.343,123.996z M129.167,110.585l-8.938,9.745l-3.995,1.554l-14.333-5.937l-0.037-3.297l8.774-9.598l3.75-1.297
		l14.974,5.787L129.167,110.585z M114.398,123.398l-0.229,3.54l-8.606,9.435l-4.392,1.696l-14.027-6.193l-0.009-3.136l9.026-9.857
		l3.948-1.381L114.398,123.398z M99.581,139.67l-0.226,3.475l-8.191,8.956l-3.741,1.44l-13.957-6.571l-0.019-3.265l7.938-8.674
		l4.292-1.505L99.581,139.67z M85.176,154.819l-0.25,4.098l-9.7,10.594l-16.909-9.267l9.481-10.366l3.953-1.381L85.176,154.819z
		 M86.653,158.973l4.228-1.486l14.812,6.977l-0.238,3.853l-10.849,11.829l-18.199-9.978L86.653,158.973z M107.087,168.461
		l4.072-1.435l14.078,6.63l-14.165,15.513L95.8,180.79L107.087,168.461z M112.613,165.393l-0.012-2.944l8.69-9.486l4.653-1.64
		l14.041,6.2l-13.271,14.517L112.613,165.393z M127.207,149.579l-0.019-3.073l9.782-10.681l4.049-1.426l14.58,6.042l-14.106,15.45
		L127.207,149.579z M142.553,132.766v-3.015l9.367-10.237l4.382-1.54l14.655,5.677l-13.84,15.143L142.553,132.766z M157.837,116.316
		l-0.035-3.237l10.401-11.336l17.457,5.817l-13.185,14.424L157.837,116.316z M156.433,112.655l-4.04,1.552l-16.052-6.216
		l-0.014-3.288l9.519-10.415l20.995,6.999L156.433,112.655z M135.524,103.641l-5.22,2.014l-14.106-5.463l-0.026-3.178l8.842-9.668
		l19.471,6.485L135.524,103.641z M115.15,96.192l-4.674,1.788l-14.05-5.44l10.375-11.273l16.862,5.619L115.15,96.192z
		 M109.213,99.746l-0.196,3.141l-8.347,9.122l-4.298,1.664l-14.05-5.82l12.575-13.654L109.213,99.746z M94.916,115.346l-0.178,3.164
		l-8.86,9.658l-3.78,1.468l-14.087-6.229l12.797-13.903L94.916,115.346z M80.224,131.106L80,134.616l-7.689,8.396l-3.99,1.547
		l-13.808-6.494l11.98-13.024L80.224,131.106z M66.523,146.036l-0.226,3.533l-9.175,10.029l-14.912-8.177l10.807-11.742
		L66.523,146.036z M29.031,173.861l13.658,8.31l-0.88,71.033c-0.004,0.534,0.231,1.05,0.642,1.396c0.325,0.271,0.73,0.42,1.151,0.42
		c0.104,0,0.222-0.009,0.326-0.035l11.89-2.217v18.561c0,0.715,0.32,1.4,0.88,1.849c0.434,0.354,0.966,0.541,1.51,0.541
		c0.159,0,0.319-0.019,0.483-0.051l21.912-4.504l-5.601,9.987l-25.426,5.162v22.435l-15.411,3.51L29.031,173.861z M247.737,469.903
		L39.865,317.29l163.656-37.253l15.432,9.395c0.64,0.388,1.365,0.594,2.117,0.594l0.296-0.043c0.142,0.023,0.31,0.043,0.492,0.043
		l25.884-6.759v186.637H247.737z M354.202,436.529l-98.342,35.53V281.139l8.322-2.212l90.021,46.097l0,0V436.529L354.202,436.529z
		 M416.97,413.852v-56.686l64.91,33.238L416.97,413.852z M487.998,384.431l-71.019-36.356V308.68l-51.012,13.287l-90.111-46.135
		l96.912-25.76v16.496l-15.831,16.12l14.053-3.281c0.21,2.721,2.025,4.597,4.135,4.191c2.151-0.416,3.78-3.038,3.636-5.849
		c-0.005-0.061-0.033-0.098-0.037-0.148l14.052-3.276l-17.627-7.599v-17.293l113.046-30.042L487.998,384.431z M264.469,270.441
		c-0.616,0-1.23,0.149-1.807,0.439l-31.533,8.419l141.093-169.564l140.55,94.434L264.469,270.441z M369.66,282.259
		c0.237,0.233,0.242,0.616,0.014,0.85l-2.954,3.024c-0.117,0.116-0.275,0.177-0.43,0.177c-0.149,0-0.303-0.056-0.415-0.168
		c-0.238-0.233-0.243-0.606-0.015-0.849l2.955-3.024C369.058,282.039,369.436,282.03,369.66,282.259z M384.454,282.259
		c-0.056,0.289-0.303,0.485-0.588,0.485c-0.037,0-0.074-0.01-0.112-0.01l-4.148-0.821c-0.322-0.061-0.532-0.373-0.477-0.695
		c0.062-0.321,0.341-0.541,0.705-0.471l4.149,0.812C384.301,281.619,384.511,281.932,384.454,282.259z M372.507,284.088
		c0.299,0.146,0.42,0.505,0.28,0.803l-1.298,2.688c-0.098,0.215-0.308,0.336-0.537,0.336c-0.088,0-0.177-0.019-0.261-0.056
		c-0.294-0.149-0.42-0.499-0.275-0.803l1.293-2.688C371.854,284.079,372.218,283.958,372.507,284.088z M375.979,285.078v6.65
		c0,0.322-0.271,0.598-0.598,0.598c-0.332,0-0.598-0.275-0.598-0.598v-6.65c0-0.327,0.266-0.598,0.598-0.598
		C375.708,284.48,375.979,284.742,375.979,285.078z M380.235,284.56c0.285,0.163,0.383,0.527,0.22,0.817
		c-0.107,0.191-0.309,0.298-0.514,0.298c-0.103,0-0.21-0.027-0.304-0.079l-2.464-1.424c-0.289-0.168-0.383-0.531-0.22-0.816
		c0.159-0.294,0.527-0.383,0.817-0.219L380.235,284.56z"/>
</g>
<g>
</g>
<g>
</g>
<g>
</g>
<g>
</g>
<g>
</g>
<g>
</g>
<g>
</g>
<g>
</g>
<g>
</g>
<g>
</g>
<g>
</g>
<g>
</g>
<g>
</g>
<g>
</g>
<g>
</g>
</svg>
