<?xml version="1.0" encoding="iso-8859-1"?>
<!-- Generator: Adobe Illustrator 19.0.0, SVG Export Plug-In . SVG Version: 6.00 Build 0)  -->
<svg version="1.1" id="Capa_1" xmlns="http://www.w3.org/2000/svg" xmlns:xlink="http://www.w3.org/1999/xlink" x="0px" y="0px"
	 viewBox="0 0 512 512" style="enable-background:new 0 0 512 512;" xml:space="preserve">
<g>
	<g>
		<path style="fill:#5C546A;" d="M472,344H40c-8.837,0-16-7.163-16-16v-16h448V344z"/>
	</g>
	<g>
		<path style="fill:#8A8895;" d="M168,144H48c-4.422,0-8,3.582-8,8v96c0,4.422,3.578,8,8,8h120c4.422,0,8-3.578,8-8v-96
			C176,147.582,172.422,144,168,144z"/>
	</g>
	<g>
		<path style="fill:#FFD100;" d="M264,120H144c-4.422,0-8,3.582-8,8v96c0,4.422,3.578,8,8,8h120c4.422,0,8-3.578,8-8v-96
			C272,123.582,268.422,120,264,120z"/>
	</g>
	<g>
		<path style="fill:#E7001E;" d="M389.898,314.594l-88-96C300.383,216.938,298.242,216,296,216H16c-8.82,0-16,7.18-16,16v64
			c0,17.648,14.352,32,32,32h352c3.172,0,6.047-1.875,7.32-4.781C392.602,320.32,392.039,316.93,389.898,314.594z"/>
	</g>
	<g>
		<path style="fill:#FF4F19;" d="M485.727,216l-64.525-12.547l-21.443-59.695C393.344,129.324,379,120,363.203,120H312
			c-13.234,0-24,10.766-24,24v136c0,26.469,21.531,48,48,48h152c13.234,0,24-10.766,24-24v-64
			C512,224.531,500.953,218.773,485.727,216z"/>
	</g>
	<g>
		<path style="fill:#FFD100;" d="M512,264h-28c-6.627,0-12-5.373-12-12v0c0-6.627,5.373-12,12-12h28"/>
	</g>
	<g>
		<g>
			<rect x="96" y="144" style="fill:#5C546A;" width="16" height="72"/>
		</g>
	</g>
	<g>
		<g>
			<rect x="64" y="144" style="fill:#5C546A;" width="16" height="72"/>
		</g>
	</g>
	<g>
		<path style="fill:#FF4F19;" d="M0,288c13.255,0,24-10.745,24-24v-24c0-4.418-3.582-8-8-8H0V288L0,288z"/>
	</g>
	<g>
		<g>
			<circle style="fill:#5C546A;" cx="112.001" cy="336" r="56"/>
		</g>
		<g>
			<circle style="fill:#8A8895;" cx="112.001" cy="336" r="32"/>
		</g>
	</g>
	<g>
		<g>
			<circle style="fill:#5C546A;" cx="432" cy="336" r="56"/>
		</g>
		<g>
			<circle style="fill:#8A8895;" cx="432" cy="336" r="32"/>
		</g>
	</g>
	<g>
		<path style="fill:#5C546A;" d="M399.758,143.758c-1.25-2.813-2.879-5.364-4.684-7.758H312v51.453c0,8.836,7.164,16,16,16h93.201
			L399.758,143.758z"/>
	</g>
	<g>
		<rect x="496" y="240" style="fill:#FFFFFF;" width="16" height="24"/>
	</g>
	<g>
		<rect x="136" y="144" style="fill:#FF9500;" width="136" height="16"/>
	</g>
	<g>
		<rect x="136" y="184" style="fill:#FF9500;" width="136" height="16"/>
	</g>
</g>
<g>
</g>
<g>
</g>
<g>
</g>
<g>
</g>
<g>
</g>
<g>
</g>
<g>
</g>
<g>
</g>
<g>
</g>
<g>
</g>
<g>
</g>
<g>
</g>
<g>
</g>
<g>
</g>
<g>
</g>
</svg>
