<?xml version="1.0" encoding="UTF-8" standalone="no"?>
<svg width="1173" xmlns="http://www.w3.org/2000/svg" height="853">
 <g fill-rule="evenodd">
  <path d="m897 168h1q0 1 1 0h1q2 1 2 2 0 2-1 2t-1 1-35 15l-35 14h-2l-1 1-1 1h-2v-1h1v-1h1v-2l-1-1-1-1 2-1 1-1 35-14q34-14 35-14z" stroke="#0b0b0b" fill="#0b0b0b"/>
  <path d="m573 576h-2l-1-1q0-1 2-1 2-2 4-2h1v-1q0-1 7-3 6-1 6-22 0-20 1-20t1 34-1 34-1-12-4-12-4 1-4 2q-3 1-3 2t-2 1z" stroke="#0a0a0a" fill="#0a0a0a"/>
  <path d="m736 83v-1h2l4 4q5 4 14 6t28 2q18 0 19-1h1t1 0v1h1v1q0 1-1 1h-1q-1 0-4 2-2 0-22 0t-30-4l-10-4h-1v-1q-1 0-2-3l-1-2h1v-1h1z" stroke="#0b0b0b" fill="#0b0b0b"/>
  <path d="m421 581v1h3v2l1 1v1h-4v-1l-1-1v-2h-1q-1 0-3-1t-2-2-3-2-3-2-3-2q-2-1-2-2t-1-1h-1v-1q0-1-2-1t-2-2 1 0q0 1 3 2t3 2 4 2q5 2 5 3t1 1 1 1 2 1 2 1 1 1 1 1z" stroke="#1a1a1a" fill="#1a1a1a"/>
  <path d="m775 22l-7-2h-5v-2l1-1v-1h1v-1h1v-1h3l1-1q1-1 4-2 4-1 16-2 13-1 16 0 2 1 3 3t-4 5-14 5-16 0z" stroke="#f3f3f3" fill="#f3f3f3"/>
  <path d="m686 245v1q-1 2 0 2 2 1 1 1 0 1 0 1t-39 17l-39 17h-2l-1 1h-1v-1h-5v-2h1l1-1 2-1h2l32-14q32-14 32-15h2q1-1 1-1h3l4-2q5-2 6-3z" stroke="#0e0e0e" fill="#0e0e0e"/>
  <path d="m400 281v-1h4v1h1v1h1t1-1h1v1q1 0 1 0 1 0 1 1v1h1v-1h1v1q0 2 15 11t16 9l1 1 1 1h1v1h1v1h-2v1h-1v1h-3l-1-1-1-1h-1l-1-1q-1-1-14-8-13-8-13-9t-2-1q-1 0-2-1 0 0-1-1l-1-1v-1q0-1 0-1t-1-1-2-1-1-1z" stroke="#151515" fill="#151515"/>
  <path d="m624 182h-2t-1 0h-1t-1 1q0 1-2 1t-4 2l-2 2h-1t0 1h-1q-1 1-19 7-17 8-36 16l-19 8-1 1h-1v-2h-2v1l-1 1v-5h1l1-1 2-1 36-14q35-16 36-16h1q1 1 1 0l2 1q1 1 3-1t2-3q1 0 1-1l5-2q5-2 7-2t2 2q-1 2-3 2-2 2-3 2z" stroke="#0e0e0e" fill="#0e0e0e"/>
  <path d="m401 690h-3t0-1q-1-1-4-2-4-2-4-3t-1-1q-1-1-2-2-1-2-3-2-1-1-2-2-1-2-2-2h-1v-1q0-1-1-1t-2-1q0 0 0-1-1-1 0-1 2 0 2 1t1 1 1 1 1 1 1 1 3 1q3 1 3 2t1 1 1 2q1 2 3 2t2 1 1 1 1 1 2 2q1 1 2 2z" stroke="#191919" fill="#191919"/>
  <path d="m0 426v-426h403l1 1q0 1 8 1 7 0 13 0 5 0 6 0t11 0 59 0 81 0q33 0 45 0 11 0 12-1t1-1h2l1 1q1 1 5 0 4 0 3 0 0-1 0-1h121l4 1h4v2h-2l-2 1h-3l-1 1q-1 1-3 1t-7 3-5 5q-1 1-1 14-1 14-32 23-30 9-58 17-27 8-166 48l-139 42h-2v-2l-1-1v-7q-1-6-2-11 0-5-2-5-1 0-1-1t-11-2q-10-1-21 3-11 3-15 9t-5 11q-1 6-1 15t-32 19q-31 10-43 12t-15 2q-4 1-4 29 1 27 0 28-1 0-2 7 0 7 2 10 2 4 3 4t1 1 4 2q3 1 8 122 6 121 8 175 2 55 1 61-1 5 81 73 81 68 118 100 36 31 38 33 2 1 5 1t6-3 84-47q81-42 206-108t185-96q59-30 60-31 1 0 1-1t3-3q2-2 4-7 0-6 0-18t0-34-2-26-4-8q-2-3-2-7t4-7q4-4 5-24 1-21 1-36-2-16-2-20t2-10q0-6 0-15t-2-11 0-6q0-4-2-8t-2-6q0-3 1-3t1-2q1-1 2-2 2 0 2-6t0-28 0-41q0-20 3-24 3-3 4-4 1 0 2-1 0-1 1-1t0-35q0-35-3-38-2-3-77-32-76-29-96-38-20-8-25-10-5-3-9-3-3 0-3-6-1-5-1-14t-1-10q-2-1-3-5-1-5-2-5 0 0 0-1h-1v-1h-1l-2-1h-1v-2h7q7-1 7-1h52l1 1q0 1 107 1t121 0q13 0 41 1h28v850h-1173v-427z" stroke="#fdfdfd" fill="#fdfdfd"/>
  <path d="m346 649h-2v-1q0-1-1-1t-1-1-2-2-2-2-1-1q-1-1 1 0 3 0 4 1 0 2 0 2 1 1 3 1t3 2q0 2 1 2t1 1-2 1q-1 0-1-1t-1-1z" stroke="#1d1d1d" fill="#1d1d1d"/>
  <path d="m308 216v-1h-1v-1h-1v-2l-1-2-1-1v-2l1-1 1-1v-1h3l1 1 1 1 5 2q5 2 16 2 10 0 18-2 7-2 8-4 1 0 3 0 1 0-1 5t-7 7q-4 2-4 3t-3 1-4 2q-2 0-11 2-9 0-15-2-6-4-7-5t-1-1z" stroke="#f1f1f1" fill="#f1f1f1"/>
  <path d="m504 697h-1v1h-2v-1h-1v-2h3v-2h2q2 0 2-1t7-2q6-2 6-3t6-3q5-1 5-2t1 0q0 0 0 1t-2 1-2 1-4 1q-3 1-3 2t-2 1-2 1-1 1q-2 0-2 1t-2 1-2 1-3 2q-3 0-3 1z" stroke="#1b1b1b" fill="#1b1b1b"/>
  <path d="m746 124h2v1l-1 1v1h1l1 1h3t-16 8l-17 7q0-1-1-1-2-1-1-2t0-2h-1v-1h1v-1h2l13-6q13-6 14-6z" stroke="#121212" fill="#121212"/>
  <path d="m416 281h1v1h2l3 1q2 1 3 2 0 1 3 3 2 1 27 16 25 16 27 16h1v1h1v1h1v1h1v5h-1v1h-1v-1h-2l-1-1-1-1h-2v-1t-4-2l-4-2v-1h-2l-1-1h-1q0-1-10-6l-9-6h-1v-1h-1l-1-1-1-1q-1 0-16-9t-15-11v-1h-1v1h-1v-1q0-1-1-1 0 0-1 0v-3q0-1 4 0 3 1 4 2z" stroke="#ececec" fill="#ececec"/>
  <path d="m404 1l-1-1h248t0 1q1 0-18 0-18 1-51 1-32 0-81 0t-59 0-11 0-6 0q-6 0-13 0-8 0-8-1z" stroke="#0c0c0c" fill="#0c0c0c"/>
  <path d="m461 794v19h-1l-1-1h-1v-1h-1v-1h-1v-1h-1v-1h-1q-1 0-4-4-4-4-25-22t-67-57q-45-39-46-39t-1-1-7-7q-8-6-26-22-20-17-25-152-5-136-7-166 0-30 0-30 1 0 101 62t101 62q0 1 2 37t4 107q2 72 3 85t2 63 2 70zm-163-367l-1-1h-2v-1q0-1-1-1t-1-1-3-1-3-1-1-1-1-1-2-1-3-2q0-2-1-2-1-1 1-2 1 0 2 1t2 1 2 1q0 1 0 2 1 1 2 1 2 0 2 1t2 1 2 1 1 1 1 1 3 2 3 3q0 1-1 1t-1-1-2-1zm133 141h1-4l-2-1h-3v-1q0-1-2-1t-2-1-1-1-1-1-5-2q-4-2-6-5-1-3 0-3 2 0 3 2t5 3q5 2 6 3 1 2 2 3t4 1q4 1 4 2 0 2 1 2zm-10 13v1h3v2l1 1v1h-4v-1l-1-1v-2h-1q-1 0-3-1t-2-2-3-2-3-2-3-2q-2-1-2-2t-1-1h-1v-1q0-1-2-1t-2-2 1 0q0 1 3 2t3 2 4 2q5 2 5 3t1 1 1 1 2 1 2 1 1 1 1 1zm-13 11l-3-2-3-2q-2-1-2-2-1 0-4-3-4-3-5-3t-1-1-1-1-1-1 2-1q1 0 1 1t2 1 2 1 1 1 1 1 1 1 1 1 3 2q2 1 2 2t4 3 4 3-4-1zm-62 57h-2v-1q0-1-1-1t-1-1-2-2-2-2-1-1q-1-1 1 0 3 0 4 1 0 2 0 2 1 1 3 1t3 2q0 2 1 2t1 1-2 1q-1 0-1-1t-1-1zm53 39v1h1q1 1 1 1h1q1 0 1 1t1 1q2 0 2 2 1 2 2 2 2 0 3 2 1 1 1 2h2q1 1 2 2 0 2 4 4 3 2 3 2h1q2 1 2 2t1 1 1 1 2 1 2 1v1h1v1h1l1 1 1 1h1v1h1v3h-1v-1h-1v-1h-2v-2h-2l-2-1q-1 0-1-1t-1-1q-1-1-2-2-1-2-3-2t-3-1v-1t-1-1q0-1-1-1-2-1-5-4l-3-3t-4-2q-3-2-3-3t-1-1-1-1-1-1-1-1v-1h-1t0-1q-1-1-4-2-4-2-4-3t-1-1q-1-1-2-2-1-2-3-2-1-1-2-2-1-2-2-2h-1v-1q0-1-1-1t-2-1q0 0 0-1-1-1 0-1 2 0 2 1t1 1 1 1 1 1 1 1 3 1q3 1 3 2t1 1 1 2q1 2 3 2t2 1 1 1 1 1 1 1 1 1z" stroke="#f2f2f2" fill="#f2f2f2"/>
  <path d="m700 239h-2q-1 1-6 3l-6 3q-1 1-6 3l-4 2h-2l-2 1h-3v-1h3l1-1 1-1h3v-3q-1-3 9-7 9-4 12-5 4-1 4 2t-1 3-1 1z" stroke="#e7e7e7" fill="#e7e7e7"/>
  <path d="m708 154v-1h1l1 1h1v1h1v1h1l1 1h1v1q0 1 9 7 8 7 8 7h1v1h1v1h1l20 16q20 16 20 17h1v5l1 1 1 1v2h1-3l-1-1-1-1h-1v-1h-1v-1h-1t-3-2l-3-2v-1h-1v-1h-1l-1-1-1-1h-1v-1h-1v-1h-1q-1 0-24-17l-22-17q0-1-1-1v-1q-1 0-1 0v-2q0-3-1-6l-1-2v-2z" stroke="#f1f1f1" fill="#f1f1f1"/>
  <path d="m706 169l-2-3 2 1q2 1 2 0 1-1 2-1 0 0 1 0v1q1 0 1 1l22 17q23 17 24 17h1v1h1v1h1l1 1 1 1h1v1h-1l-1-1h-3l-1 1-1 1h-1l-1-1-1-1t-23-17q-22-17-25-20z" stroke="#121212" fill="#121212"/>
  <path d="m926 140h2v1h-1v1h-1v2h3v-1h1v1q0 1-45 19l-45 19h-3v-1h-1v1h-1v1h-1v-1h-2v-1h1v-1h1v-1l1-1h1v-1h1l1-1 44-18q43-18 44-18z" stroke="#0d0d0d" fill="#0d0d0d"/>
  <path d="m408 592l-3-2-3-2q-2-1-2-2-1 0-4-3-4-3-5-3t-1-1-1-1-1-1 2-1q1 0 1 1t2 1 2 1 1 1 1 1 1 1 1 1 3 2q2 1 2 2t4 3 4 3-4-1z" stroke="#1b1b1b" fill="#1b1b1b"/>
  <path d="m436 255h2l1 1h1v1h-1v1h-1v1q-1 1-1 2h-1q0 1 0 1-1 0-6 2l-5 2v1h-1v1h-1l-1 1h-1v-1t1-1v-1q-1 0-1-2v-2l7-3q6-3 8-4z" stroke="#171717" fill="#171717"/>
  <path d="m730 67h2v2q0 2 1 7l1 6v2l1 2q1 3 2 3v1h1l10 4q10 4 30 4t22 0q3-2 4-2h2t0 1h1v1h1l1-1 1-1h2l1-1 1-1 6-4q6-4 10-12t4-10v-1h1v1l26 11q27 12 27 11t1-1 1 1q-1 2 16 8 17 8 26 11 10 3 20 7 9 4 9 5t3 1q2 0 3 1 0 1 17 9 18 8 20 8h1l1 1 1 1h3v2h-1l-1 1-2 1h-3l-1 1q-1 1-120 46-120 45-196 74-75 29-90 35-16 6-26 9t-10 4-51 19-58 20q-7 0-7-1-1-2-6-5-6-4-103-65l-97-61v-1h-1v-1h-1l-1-1-1-1h-1v-1h1v-1h5l25-8q24-8 26-9l2-1h2l2-1h1v1l-1 1v1l-2 2q0 3 0 11 2 8 2 9t10 7q9 5 23 5t24-6q10-8 14-12 3-5 3-12 0-8-2-12-3-4-6-3-2 0-3-5l-1-4v-1h1v-1l36-10q36-10 185-56 148-44 150-45zm117 24l40 19q40 18 41 19l1 1h2l1 1 1 1h1t3 1 3 4q0 2 4 7 2 4 2 8-1 4-24 12l-22 9q0 1-35 15l-35 14h-2l-1 1-1 1h-3l-1 1-1 1h-1q-2 0-19 7t-17 9-3 2-10-5l-7-6h-1v-1h-2v-1h-1v-1h-2v-1h-1v-1h-1l-1-1-1-1t-24-19l-24-19q-1 0-1-1h-1q0-1 0-1v-1h1v-1h1v-1l-1-4q-1-4-1-6t0-6l1-5h1l4-2q4-2 5-3h2v-1h2l13-6q13-6 14-6h2l1-1 1-1h3l27-12q27-10 28-11h2v-1h2l1-1 1-1h3l11-5q11-5 15-3t4 3zm-146 9l-18 8h-3v-3h-1v-1h2l1-1 1-1h2l1-1q2-1 14-5 13-6 16-6t3 2-18 8zm-77 82h-1q-1 1-6 4l-6 2q-1 1-1 1h-1q-1 1-19 7-17 8-36 16l-19 8-1 1h-1q0 1-11 5t-22 8l-10 4t-3 2q-3 1-26 11l-22 9-1 1h-1v1q-1 0-1 0-1 0-6 2l-5 2v1h-1v1h-1l-1 1h-2v3h1v1h1v1h2l33 18q33 18 35 18 2 1 6 1 4-1 5-1h1l2-1 1-1 91-39q92-39 93-40l1-1h2l1-1 1-1h1v-1h-1v-1h-1l-1-1-1-1h-1t-8-6l-9-6v-1h-1v-1h-1t-1-1l-1-1h-1v-1h-1v-1h-2v-1h-1v-1t-14-10l-14-10v-1h-1v-1h-1v-1h-1v-1h-1v-2h-1 6l1 1h1v2l15 11q16 10 17 11l1 1 15 10q15 10 15 11h2q2 0 1 11-1 10-2 10 0 0-7 2l-6 2-1 1q-1 1-3 1h-1t-39 17l-39 17h-2l-1 1h-2q0 1-26 12l-27 11-1 1-1 1h-3l-1 1-1 1h-2l-2 1q-1 1-23 11t-28 10q-6 2-13-3l-8-5h-2l-1-1-1-1h-1v-1h-1q-1-1-7-5l-7-4-1-1-1-1h-1q-1 0-1-1l-1-1h-2l-1-1-1-1h-1l-1-1q-1-1-14-8-13-8-13-9t-2-1q-1 0-2-1 0 0-1-1l-1-1v-1q0-1 0-1t-2-1l-1-2h-1q0-1 0-1v-2h-1v-1h1v-2h1v-1h1l2-3q2-3 5-3 3-2 4-2t1-2q1-1 2-1 1-1 3-1h2l7-3q6-3 8-4h1v-1l24-9q23-10 25-10 1-1 2 0v-1h1v-1h1v-1h3l18-8q18-8 19-8h1l1-1 2-1 36-14q35-16 36-16h2l2-1q3-1 4-2h1q0-1 1-1l5-2q5-2 7-2t2 2q-1 2-3 2-2 2-3 2zm-212 19l1 1h1v4h-7v-1h-1q0-1-2-3t-5-3q-2-1-6 1l-4 2-1 1-1 1h-4v-1h-1v-1l1-2 1-1v-1l4-2q4-2 5-2h1v-3h-1q-1 0-3-3-2-2-2-4t2-2 7 4 9 2 6-2 1 2q0 2-3 4-4 3-1 6 2 2 3 3z" stroke="#fbfbfb" fill="#fbfbfb"/>
  <path d="m413 703l-3-3h4q1 1 2 2 0 2 4 4 3 2 3 2h-1q-2 0-2 1 0 0-1-1 0-1-1-1-2-1-5-4z" stroke="#2a2a2a" fill="#2a2a2a"/>
  <path d="m916 326v6l-1-6q0-5-1-5t-1-1-1-1-1-1-6-1h-6v1q-1 1-3 0-2 0 0 0l1-1 1-1q1-2 3-1 2 0 2-1t5-1q6 0 7 3t1 10z" stroke="#161616" fill="#161616"/>
  <g stroke="#121212" fill="#121212">
   <path d="m847 91v1h-1q-1 0-1-1-1 0-3-1-2 0-14 5l-11 5-1 1-1 1h-3v-1l-1-1-1-1v-1h2l1-1 1-1h3l11-5q11-5 15-3t4 3z"/>
   <path d="m447 307l9 6q10 5 10 6h-2v2h-1v1h-1v1q-1-1-7-5l-7-4-1-1-1-1h-1q-1 0-1-1l-1-1h1v-1h1v-1h2v-1z"/>
  </g>
  <path d="m398 690v-1h2q0 1 0 1h2q1 0 1 1t1 1q2 0 2 2 1 2 2 2 2 0 3 2 1 1 1 2h-2t-4-2q-3-2-3-3t-1-1-1-1-1-1-2-2z" stroke="#1c1c1c" fill="#1c1c1c"/>
  <path d="m696 223v-1h4l2 1h4q2 0 1 11-1 10-2 10h-1t0-1q0 0 0-1-1 0-1-2 0-1-1-1h-2q0-1 1-1t1-3-4-2q-3 1-12 5-10 4-9 7v3h-3v1t-1 1h-4v1h-1q-1 1-36 14l-34 13-1 1-1 1h-2l-1 1h-1q-1 1-1 1h-1q-2 0-41 16l-39 16-1 1-1 1h-5v-1l1-1v-4l2-1 1-1 91-39q92-39 93-40l1-1h2l1-1 1-1h1v-2l-1-1z" stroke="#090909" fill="#090909"/>
  <path d="m314 176l-2-23h1v1h1q2 0 6 2 5 2 10 0 6 0 13-4t9 18 0 25-9 6q-8 3-15 3-6 0-9-2t-5-26z" stroke="#f8f8f8" fill="#f8f8f8"/>
  <path d="m615 180h1v1q-1 1 1 2t2-1q0-1 1-1 2 1 2 1h1t-7 4l-6 3v-1q0-1-1-2l-2-2 3-2q4-2 5-2zm-3 4q0-1 1-1 0 1 0 1 1 0 1 1t-1 1q0 0 0-1-1 0-1-1z" stroke="#131313" fill="#131313"/>
  <path d="m431 568h1-4l-2-1h-3v-1q0-1-2-1t-2-1-1-1-1-1-5-2q-4-2-6-5-1-3 0-3 2 0 3 2t5 3q5 2 6 3 1 2 2 3t4 1q4 1 4 2 0 2 1 2z" stroke="#222" fill="#222"/>
  <path d="m934 132t3 1 3 4q0 2 4 7 2 4 2 8-1 4-24 12l-22 9q0-1 1-1t1-2q0-1-2-2h-2t2-1l1-1 17-6q17-8 18-8h1l1-1 1-1h2v-1h-1v-3l-1-1-1-1v-3h-1v1h-1q-1 0-4 1l-2 1v-1h-1v1h-3v-2h1v-1h1v-1l1-1 1-1h3v-1h1v-1h-1v-2l1-1v-1z" stroke="#0c0c0c" fill="#0c0c0c"/>
  <path d="m948 395q0-1 4-1 3 0 3 1t-7 3q-8 1-8 2-1 0-2 0-2 0-2-1t6-2 6-2z" stroke="#1e1e1e" fill="#1e1e1e"/>
  <path d="m761 51l-1-25h1v1h1v1h2q1 0 2 1t12 1q12 0 18 0 6-2 12-5 6-4 6 14 1 19 1 20-1 1-2 5-1 3-5 7-4 3-13 5t-15 2q-7 0-13 0-6-2-6-27z" stroke="#fafafa" fill="#fafafa"/>
  <path d="m824 68v-1l1-1v-2h3l1 1h1v3l-1 2-1 1v1q0 2-3 6-2 4-9 8l-7 4-1 1-1 1h-1l-1 1h-2q-1 1-19 1-19 0-28-2t-14-6l-4-4v-1l-1-5-1-4v-2l2-3q1-3 4-3 2-1 2 4 0 6 1 8 1 3 5 6 3 2 13 4t20 2 17-2 10-4q3 0 6-2 2-1 5-6 3-4 3-6zm-7 13q1-1 1-1t1 1q0 1-1 1-2 0-1-1z" stroke="#ededed" fill="#ededed"/>
  <path d="m437 382l-1 18v1l1 2v2h-1l-1-1h-1v-1h-1v-1h-2l-72-45q-71-45-102-65-31-19-34-24t-3-23 73 29q73 46 108 68 36 23 36 40z" stroke="#fafafa" fill="#fafafa"/>
  <path d="m929 354l1-5h1l1 1q2 2 2 3t3 1 3 1q-1 1-2 1t-2 1q-2 1-2 3t-1 2h-1v2h-1v1h1v2h-1v1h3q3 0 4-1l1-1h4v1h-1v1h-4v1h-1v1q-1 0-1 0t-1 1q-1 2-3 3h-1v1q1 0 1 1v6q0 1 2 1 3 0 3-1l1-1v5h-2q-2 0-2 1t-1 1-1 6l-1 6h-1v-20q0-20-1-20t0-6z" stroke="#161616" fill="#161616"/>
  <path d="m466 405l-2 1h-2v1h-1v-1h-1v-1l-1-19q-1-18 205-98 206-78 284-108t77-16-2 20-5 10q-3 4-30 14-26 10-28 11-3 0-4 1 0 0-5 2t-8 3q-3 0-3 1-1 0-16 6-14 6-31 12t-30 12-17 7q-5 1-18 7-12 4-14 5-2 0-3 1 0 1-25 10-25 8-31 10t-11 5q-6 3-18 7t-15 5q-3 0-3 1t-4 2q-4 2-20 7-15 5-15 6t-31 12q-30 11-81 30t-67 25q-17 6-20 8-3 0-4 1z" stroke="#fbfbfb" fill="#fbfbfb"/>
  <g stroke="#111" fill="#111">
   <path d="m412 201l1 1h1v4h-7v-1h-1q0-1-2-3t-5-3q-2-1-6 1l-4 2-1 1-1 1h-4v-1h-1v-1l1-2 1-1v-1l4-2q4-2 5-2h1v-3h-1q-1 0-3-3-2-2-2-4t2-2 7 4 9 2 6-2 1 2q0 2-3 4-4 3-1 6 2 2 3 3z"/>
   <path d="m808 99h2l1 1 1 1v1t-29 13l-29 13h-5l-1-1h-1v-1l1-1v-1l1-1 1-1h3l27-12q27-10 28-11z"/>
  </g>
  <path d="m876 495l-4 1v-1h1q1 0 1-1t2-1 2-1v-1l6-3q6-2 8-3h1v-1q0-1 3-2 4 0 4 1t-2 1q-2 1-2 2t-2 1q-3 0-3 1t-5 2q-6 2-6 3t-4 2z" stroke="#181818" fill="#181818"/>
  <path d="m930 418v-18h1v16q0 15 1 15t1 3v3h-1v-1q0-1-1-1t-1-17z" stroke="#101010" fill="#101010"/>
  <path d="m734 168v-1l18 13q19 14 19 15t3 3q4 2 32-10 28-10 29-11h1v1q0 1-1 1l-1 1h-1v1h-1v1h4v-1h1v1h1t-1 1l-1 1h-2q-1 0-25 10l-24 10-1 1-1 1h-1v1h-1v-1h-1v3l1 1 1 1v2h1v1h2l1-1 2-1 14-6q15-6 16-6h1l1-1 2-1h2l1 1 1 1v2h-1v1h-1v1h-1l-1 1-1 1h-1q-2 0-19 7t-17 9-3 2-10-5l-7-6h-1v-1h-2v-1h-1v-1h-2v-1h-1v-1l1-1 1-1h3l1 1h2v1l3 2q3 2 3 2h1v1h1v1h1l1 1 1 1h3-1v-2l-1-1-1-1v-5h-1q0-1-20-17l-20-16h-1v-1h-1v-1h1q1 0 1-1 1-1 0-1-1-1-1-2z" stroke="#0d0d0d" fill="#0d0d0d"/>
  <path d="m1004 548v2h-2q-1 0-162 84-162 84-252 131t-98 50l-8 3h-2l-2-34q-2-33-4-128-2-96-3-98-1-1 0-6 1-4-1-11 0-7-2-57 0-49 1-53 2-5 49-23 46-18 254-98 207-80 221-85t13 47q0 53-2 112 0 60-2 69t0 15q0 5 0 37-1 33-1 36 1 4 2 5 1 0 1 2zm-92-249v-1h4q4 0 4 1t3 1 3 1 1 1 1 1 1 1 1 1q-1 1-4 0-2-1-2-2-1-1-7-1h-9q-2 0-2 1 0 0-6 1-5 1-5 2t-2 1-2 1-3 2q-4 1-4 2t-2 1-2 1v1h-4v2h-2l-3-1h1l1-1 1-1h1l1-1 2-1h2q2-1 2-2t2-1 2-1 2-1 2-1q1 0 7-3t10-3h4q1 0 1-1zm4 27v6l-1-6q0-5-1-5t-1-1-1-1-1-1-6-1h-6v1q-1 1-3 0-2 0 0 0l1-1 1-1q1-2 3-1 2 0 2-1t5-1q6 0 7 3t1 10zm22 13q1-1 4-1h3v-1q1 0 3-1 2 0 2-1t4-1q5-1 5-2t2-1q2 1-1 2-4 1-4 2t-2 1q-3 0-3 1t-2 1-2 1-1 1q-2 0-2 1t-3 1l-3-1v1t-2 1-2 2q0 2-2 3l-1 1 1 1q2 2 2 3t3 1 3 1q-1 1-2 1t-2 1q-2 1-2 3t-1 2h-1v2h-1v1h1v2h-1v1h3q3 0 4-1l1-1h4v1h-1v1h-4v1h-1v1q-1 0-1 0t-1 1q-1 2-3 3h-1v1q1 0 1 1v6q0 1 2 1 3 0 3-1l1-1v5h-2q-2 0-2 1t-1 1-1 6l-1 6v16q0 15 1 15t1 3v3l-1 11q-1 11-2 11h-1v5h-2v1l-1 1v-3h2v-3q0-3 1-3t1-5q0-6 1-6t1-4v-6q0-1-1-1t-1-17v-38q0-20-1-20t0-6l1-5v-3q0-3-1-3h-1v-3q0-2 1-2t1-8q0-7 1-7t1 3 1 3 1 3q0 2-1 2t-1 2 3 2 3 1zm10 56q0-1 4-1 3 0 3 1t-7 3q-8 1-8 2-1 0-2 0-2 0-2-1t6-2 6-2zm-6 14l2-1h1v1q1 0 1-1t6-2q5-1 5-2t3-1q2 0 2 1t-2 1-2 1-2 1q-1-1-2 0 0 1-7 3t-7 3-1-1q0-2 3-3zm-66 86l-4 1h-1q-1 0-1 2-1 2-3 2t-2 1-2 1-2 1-3 2l-4 1h-1v-1h-1v2h-2l-2 1-1-1v-1h3v-1h1v-1h3v-1q0-1 2-1t2-1 4-2q5-1 5-2t1-1 2-1h3q1 0 1-1t2-1 2-1v-1l6-3q6-2 8-3h1v-1q0-1 3-2 4 0 4 1t-2 1q-2 1-2 2t-2 1q-3 0-3 1t-5 2q-6 2-6 3t-4 2zm-319 33h1l2-1q2-1 5-1 2-1 2-2 1-1 3 0 2 0 2-1t2-1 2-1 2-1q3 0 3-1 1-1 1 1t-1 2-1 1-6 1q-6 1-6 2t-7 3-7 1 1-1q1-1 2-1zm16 48h-2l-1-1q0-1 2-1 2-2 4-2h1v-1q0-1 7-3 6-1 6-22 0-20 1-20t1 34-1 34-1-12-4-12-4 1-4 2q-3 1-3 2t-2 1zm-9-33v-1l3-1q3-1 3-2t2-1 4 0q3-1 3-2t2-2q3 0 2 2 0 2-1 2-2 0-4 0-1 0-1 2 0 1-2 1-3 0-7 1-4 2-4 1zm-45 21l-1 1v-1h-3q-1 0-1 1t-3 1-3 1-3 1l-3 1q0 1 0 0h-2q-1 0-1 1t-3 1l-2 1h-1l-1 1h-2v-2h1l1-1h2l1-1 1-1h5q1-1 1-1l2-1q1 0 1-1t2-1q3 1 4 0 1-2 2-2t2 0v1h1v-2h4q3 0 3-1t2-1 2-1 2-1 2-1 3 0q2 0 0 1-2 0-2 1t-4 2q-3 0-3 1t-3 1-3 2zm184-9q2 1 1 1t-4 1q-4 1-4 2t-2 1-2 1-2 1-4 2q-2 1-4 1t3-3q4-2 4-3t5-2q6-1 6-1 1-1 3-1zm-66 32h-1t-1 1q0 1-2 1t-2 1-3 1-3 1-3 1q-2 0-2 1t-4 1h-4v-1h-1v1h-1v-1h-1v1h-1v-1h-1v-1h-1v-2h2v2h4q4 0 4-1t3-1 3-1 4-2q3 0 5-1 3 0 3-1 1 0 2 0v-2q1-1 3-1 1 0 4-1 2 0 2-1t3-1q4-1 4-2t3-1 3-1 4-2q3-1 3-2t3-1q2 0 1 1-2 0-2 1t-2 1-2 1-2 1-2 1-2 1-2 1-1 1q-2 0-2 1t-3 1-3 1-2 1-2 1-2 1-3 1zm-88 106h-2v2h-2l-2-1h3v-2h2v-1h1v1h1v-1q0-1 2-1 1 0 1-1t2-1 2-1 3-1 3-1 3-1q4-1 4-2 0-2 3-2 3 1 3 0t2-1q1-1 2 1 0 1-2 1-1 0-1 1t-2 1-2 1q-1 1-5 2-4 0-4 1t-3 2-3 1q-1 1-4 1t-3 1-2 1zm-45 4h-1v1h-2v-1h-1v-2h3v-2h2q2 0 2-1t7-2q6-2 6-3t6-3q5-1 5-2t1 0q0 0 0 1t-2 1-2 1-4 1q-3 1-3 2t-2 1-2 1-1 1q-2 0-2 1t-2 1-2 1-3 2q-3 0-3 1zm2 19h-1l-1-1-2-1h3v-2h2v1h1v-3h2q2 0 2-1t2-1 2-1 2-1q3-1 3-2t2-1 2-1 2-1 2-1 3-1q2 0 2-1t2 0q2 0 0 1t-4 3q-1 0-4 1t-3 2-2 1-2 1-2 1-2 1-2 1-2 1-3 3q-4 2-4 2z" stroke="#f5f5f5" fill="#f5f5f5"/>
  <path d="m633 176h6l1 1h1v2l15 11q16 10 17 11l1 1v2h-1v1h-1v2l-1-1h-1v-1h-1v-1h-2v-1h-1v-1t-14-10l-14-10v-1h-1v-1h-1v-1h-1v-1h-1v-2h-1z" stroke="#1a1a1a" fill="#1a1a1a"/>
  <path d="m549 693h-2v2h-2l-2-1h3v-2h2v-1h1v1h1v-1q0-1 2-1 1 0 1-1t2-1 2-1 3-1 3-1 3-1q4-1 4-2 0-2 3-2 3 1 3 0t2-1q1-1 2 1 0 1-2 1-1 0-1 1t-2 1-2 1q-1 1-5 2-4 0-4 1t-3 2-3 1q-1 1-4 1t-3 1-2 1z" stroke="#1e1e1e" fill="#1e1e1e"/>
  <path d="m557 528h1l2-1q2-1 5-1 2-1 2-2 1-1 3 0 2 0 2-1t2-1 2-1 2-1q3 0 3-1 1-1 1 1t-1 2-1 1-6 1q-6 1-6 2t-7 3-7 1 1-1q1-1 2-1z" stroke="#181818" fill="#181818"/>
  <path d="m772 0h51t-7 1h-7v2h1l2 1h1v1h1q0 1 0 1 1 0 2 5 1 4 3 5 1 1 1 10t1 14q0 6 3 6 4 0 9 3 5 2 25 10 20 9 96 38 75 29 77 32 3 3 3 38 1 35 0 35t-1 1q-1 1-2 1-1 1-4 4-3 4-3 24 0 19 0 41t0 28-2 6q-1 1-2 2 0 2-1 2t-1 3q0 2 2 6t2 8q-2 4 0 6t2 11 0 15q-2 6-2 10t2 20q0 15-1 36-1 20-5 24-4 3-4 7t2 7q2 4 4 8t2 26 0 34 0 18q-2 5-4 7-3 2-3 3t-1 1q-1 1-60 31-60 30-185 96t-206 108q-81 44-84 47t-6 3-5-1q-2-2-38-33-37-32-118-100-82-68-81-73 1-6-1-61-2-54-8-175-5-121-8-122-4-1-4-2t-1-1-3-4q-2-3-2-10 1-7 2-7 1-1 0-28 0-28 4-29 3 0 15-2t43-12q32-10 32-19t1-15q1-5 5-11t15-9q11-4 21-3 11 1 11 2t1 1q2 0 2 5 1 5 2 11v7l1 1v2h2l139-42q139-40 166-48 28-8 58-17 31-9 32-23 0-13 1-14 0-2 5-5t7-3 3-1l1-1h3l2-1h2v-2h-4l-4-1zm3 22l-7-2h-5v-2l1-1v-1h1v-1h1v-1h3l1-1q1-1 4-2 4-1 16-2 13-1 16 0 2 1 3 3t-4 5-14 5-16 0zm-14 29l-1-25h1v1h1v1h2q1 0 2 1t12 1q12 0 18 0 6-2 12-5 6-4 6 14 1 19 1 20-1 1-2 5-1 3-5 7-4 3-13 5t-15 2q-7 0-13 0-6-2-6-27zm63 17v-1l1-1v-2h3l1 1h1v3l-1 2-1 1v1q0 2-3 6-2 4-9 8l-7 4-1 1-1 1h-1v1h-1v1h1v3h1v1h1l1-1 1-1h2l1-1 1-1 6-4q6-4 10-12t4-10v-1h1v1l26 11q27 12 27 11t1-1 1 1q-1 2 16 8 17 8 26 11 10 3 20 7 9 4 9 5t3 1q2 0 3 1 0 1 17 9 18 8 20 8h1l1 1 1 1h3v2h-1l-1 1-2 1h-3l-1 1q-1 1-120 46-120 45-196 74-75 29-90 35-16 6-26 9t-10 4-51 19-58 20q-7 0-7-1-1-2-6-5-6-4-103-65l-97-61v-1h-1v-1h-1l-1-1-1-1h-1v-1h1v-1h5l25-8q24-8 26-9l2-1h2l2-1h1v1l-1 1v1l-2 2q0 3 0 11 2 8 2 9t10 7q9 5 23 5t24-6q10-8 14-12 3-5 3-12 0-8-2-12-3-4-6-3-2 0-3-5l-1-4v-1h1v-1l36-10q36-10 185-56 148-44 150-45h2v2q0 2 1 7l1 6v2h1v-1h1v-1h2v-1l-1-5-1-4v-2l2-3q1-3 4-3 2-1 2 4 0 6 1 8 1 3 5 6 3 2 13 4t20 2 17-2 10-4q3 0 6-2 2-1 5-6 3-4 3-6zm-511 74l1-2h1l1-1q2-1 7-2t13-2q7-1 9 1 2 0 3 3 0 2-6 6-6 3-14 4-7 1-12-1-5-1-5-3 1-2 2-3zm1 34l-2-23h1v1h1q2 0 6 2 5 2 10 0 6 0 13-4t9 18 0 25-9 6q-8 3-15 3-6 0-9-2t-5-26zm152 229l-2 1h-2v1h-1v-1h-1v-1l-1-19q-1-18 205-98 206-78 284-108t77-16-2 20-5 10q-3 4-30 14-26 10-28 11-3 0-4 1 0 0-5 2t-8 3q-3 0-3 1-1 0-16 6-14 6-31 12t-30 12-17 7q-5 1-18 7-12 4-14 5-2 0-3 1 0 1-25 10-25 8-31 10t-11 5q-6 3-18 7t-15 5q-3 0-3 1t-4 2q-4 2-20 7-15 5-15 6t-31 12q-30 11-81 30t-67 25q-17 6-20 8-3 0-4 1zm-158-189v-1h-1v-1h-1v-2l-1-2-1-1v-2l1-1 1-1v-1h3l1 1 1 1 5 2q5 2 16 2 10 0 18-2 7-2 8-4 1 0 3 0 1 0-1 5t-7 7q-4 2-4 3t-3 1-4 2q-2 0-11 2-9 0-15-2-6-4-7-5t-1-1zm696 332v2h-2q-1 0-162 84-162 84-252 131t-98 50l-8 3h-2l-2-34q-2-33-4-128-2-96-3-98-1-1 0-6 1-4-1-11 0-7-2-57 0-49 1-53 2-5 49-23 46-18 254-98 207-80 221-85t13 47q0 53-2 112 0 60-2 69t0 15q0 5 0 37-1 33-1 36 1 4 2 5 1 0 1 2zm-567-166l-1 18v1l1 2v2h-1l-1-1h-1v-1h-1v-1h-2l-72-45q-71-45-102-65-31-19-34-24t-3-23 73 29q73 46 108 68 36 23 36 40zm24 412v19h-1l-1-1h-1v-1h-1v-1h-1v-1h-1v-1h-1q-1 0-4-4-4-4-25-22t-67-57q-45-39-46-39t-1-1-7-7q-8-6-26-22-20-17-25-152-5-136-7-166 0-30 0-30 1 0 101 62t101 62q0 1 2 37t4 107q2 72 3 85t2 63 2 70z" stroke="#030303" fill="#030303"/>
  <path d="m942 409l2-1h1v1q1 0 1-1t6-2q5-1 5-2t3-1q2 0 2 1t-2 1-2 1-2 1q-1-1-2 0 0 1-7 3t-7 3-1-1q0-2 3-3z" stroke="#1c1c1c" fill="#1c1c1c"/>
  <path d="m936 142h1v-1h1v3l1 1 1 1v3h1v1h-2l-1 1-1 1h-1q-1 0-18 8l-17 6-1 1q-1 1-1 1h-2q-1 0-35 14l-35 14-1 1-2 1h-2l-2 1-1 1h-1q-1 0-16 6l-14 6-2 1-1 1h-2v-1h-1v-2l-1-1-1-1v-3h1v1h1v-1h1l1-1 1-1 25-10q25-10 25-11h1q2-1 2-1h2l45-19q45-18 45-19l2-1q3-1 4-1z" stroke="#f1f1f1" fill="#f1f1f1"/>
  <path d="m715 137h1v1h1q1 1 0 2t1 2q1 0 1 1h-1q0 1-1 1h-1l-2 1-1 1h-2v1l1 1v1h1v1h2l9 8q10 8 10 8v2q0 1 1 2 1 0 0 1 0 1-1 1h-2t-8-7q-9-6-9-7v-1h-1l-1-1h-1v-1h-1v-1h-1l-1-1h-1v3l1 2q1 3 1 5v2h1v1h1v2h-6v-1h-1v-1h-1v-1h1v-1h1v-1l-1-4q-1-4-1-6t0-6l1-5h1l4-2q4-2 5-3z" stroke="#101010" fill="#101010"/>
  <path d="m564 543v-1l3-1q3-1 3-2t2-1 4 0q3-1 3-2t2-2q3 0 2 2 0 2-1 2-2 0-4 0-1 0-1 2 0 1-2 1-3 0-7 1-4 2-4 1z" stroke="#202020" fill="#202020"/>
  <path d="m938 339v3t-2 1-2 2q0 2-2 3l-1 1h-1v-3q0-3-1-3h-1v-3q0-2 1-2t1-8q0-7 1-7t1 3 1 3 1 3q0 2-1 2t-1 2 3 2 3 1z" stroke="#0f0f0f" fill="#0f0f0f"/>
  <path d="m313 142l1-2h1l1-1q2-1 7-2t13-2q7-1 9 1 2 0 3 3 0 2-6 6-6 3-14 4-7 1-12-1-5-1-5-3 1-2 2-3z" stroke="#f6f6f6" fill="#f6f6f6"/>
  <path d="m876 1l-1-1h298v3h-28q-28-1-41-1-14 0-121 0t-107-1z" stroke="#060606" fill="#060606"/>
  <path d="m519 564l-1 1v-1h-3v-1h1v-2h4q3 0 3-1t2-1 2-1 2-1 2-1 3 0q2 0 0 1-2 0-2 1t-4 2q-3 0-3 1t-3 1-3 2z" stroke="#1a1a1a" fill="#1a1a1a"/>
  <path d="m698 239h4q1 0 1 1 0 2 1 2 0 1 0 1 0 1 0 1h1t-7 2l-6 2-1 1q-1 1-3 1h-1t0-1q1 0-1-1-1 0 0-2v-1l6-3q5-2 6-3z" stroke="#0c0c0c" fill="#0c0c0c"/>
  <path d="m870 495h2v1h-1q-1 0-1 2-1 2-3 2t-2 1-2 1-2 1-3 2l-4 1h-1v-1h-1v2h-2l-2 1-1-1v-1h3v-1h1v-1h3v-1q0-1 2-1t2-1 4-2q5-1 5-2t1-1 2-1z" stroke="#1b1b1b" fill="#1b1b1b"/>
  <path d="m530 216v5l1-1v-1h2v2q0 1-11 5t-22 8l-10 4v-1h-1v-1h-1v-2h1v-1h1v-1h3l18-8q18-8 19-8z" stroke="#101010" fill="#101010"/>
  <path d="m636 586v1t-1 1q0 1-2 1t-2 1-3 1-3 1-3 1q-2 0-2 1t-4 1h-4v-1h-1v1h-1v-1h-1v1h-1v-1h-1v-1h-1v-2h2v2h4q4 0 4-1t3-1 3-1 4-2q3 0 5-1 3 0 3-1 1 0 2 0z" stroke="#1b1b1b" fill="#1b1b1b"/>
  <path d="m506 716h-1l-1-1-2-1h3v-2h2v1h1v-3h2q2 0 2-1t2-1 2-1 2-1q3-1 3-2t2-1 2-1 2-1 2-1 3-1q2 0 2-1t2 0q2 0 0 1t-4 3q-1 0-4 1t-3 2-2 1-2 1-2 1-2 1-2 1-2 1-3 3q-4 2-4 2z" stroke="#191919" fill="#191919"/>
  <path d="m298 427l-1-1h-2v-1q0-1-1-1t-1-1-3-1-3-1-1-1-1-1-2-1-3-2q0-2-1-2-1-1 1-2 1 0 2 1t2 1 2 1q0 1 0 2 1 1 2 1 2 0 2 1t2 1 2 1 1 1 1 1 3 2 3 3q0 1-1 1t-1-1-2-1z" stroke="#1e1e1e" fill="#1e1e1e"/>
  <path d="m912 299v-1h4q4 0 4 1t3 1 3 1 1 1 1 1 1 1 1 1q-1 1-4 0-2-1-2-2-1-1-7-1h-6v-2q1 0 1-1z" stroke="#191919" fill="#191919"/>
  <path d="m501 567h1v2q0 1 0 0h-2q-1 0-1 1t-3 1l-2 1h-1l-1 1h-2v-2h1l1-1h2l1-1 1-1h2q2 0 3-1z" stroke="#262626" fill="#262626"/>
  <path d="m846 92h1l39 20q38 20 39 20h1l1 1 1 1h2l1 1 1 1h2v1h-1v1h-3l-1 1-1 1h-2q-1 0-44 18l-44 18-1 1h-1q-1 1-1 1h-1q-2 0-29 11t-31 9q-3-2-3-3t-19-15l-18-13v-1t-10-8l-9-8h-2v-1h-1v-1l-1-1v-1h2l1-1 2-1h1q1 0 1-1h1l17-7q16-8 16-8h2l29-13q29-13 29-13h3l1-1 1-1 11-5q12-5 14-5 2 1 3 1 0 1 1 1z" stroke="#fcfcfc" fill="#fcfcfc"/>
  <path d="m422 708h2q2 1 2 2t1 1 1 1 2 1 2 1v1h1v1h1l1 1 1 1h1v1h1v3h-1v-1h-1v-1h-2v-2h-2l-2-1q-1 0-1-1t-1-1q-1-1-2-2-1-2-3-2t-3-1v-1q0-1 2-1z" stroke="#1a1a1a" fill="#1a1a1a"/>
  <path d="m932 442v-5h1l-1 11q-1 11-2 11h-1v5h-2v1l-1 1v-3h2v-3q0-3 1-3t1-5q0-6 1-6t1-4z" stroke="#171717" fill="#171717"/>
  <path d="m701 100l-18 8h-3v-3h-1v-1h2l1-1 1-1h2l1-1q2-1 14-5 13-6 16-6t3 2-18 8z" stroke="#131313" fill="#131313"/>
  <path d="m421 276l1-2h2l33 18q33 18 35 18 2 1 6 1 4-1 5-1h1v4t1 1v1t-5 2l-4 2-1 1h-1v2h-1l-1 1h-1v1h1v4h2l1-1h2l19-10q20-8 21-9l1-1h3l1-1 1-1h1v1l1 1 1 2-1 1-1 1h-2l-2 1q-1 1-23 11t-28 10q-6 2-13-3l-8-5h-2l-1-1-1-1h-1v-1h-1v-1h1v-1h1v-2h3l1 1h2v1l4 2q4 2 4 2v1h2l1 1 1 1h2v1h1v-1h1v-5h-1v-1h-1v-1h-1v-1h-1q-2 0-27-16-25-15-27-16-3-2-3-3-1-1-3-2l-3-1h-2v-1h1v-1q0-1 1-1t2-3z" stroke="#0b0b0b" fill="#0b0b0b"/>
  <path d="m598 283l1-1h1v2h5v1h-1q0 1-26 12l-27 11-1 1-1 1h-3l-1-2-1-1v-1h1l1-1 1-1h3l22-10q22-10 22-10h2l2-1z" stroke="#0f0f0f" fill="#0f0f0f"/>
  <g stroke="#111" fill="#111">
   <path d="m673 202h1l15 10q15 10 15 11h-2l-2-1h-4v1l1 1v1h-1v-1h-1l-1-1-1-1h-1t-8-6l-9-6v-1h-1v-1h-1t-1-1v-2q0-3 1-3z"/>
   <path d="m488 235v1h1v1h1v1t-3 2q-3 1-26 11l-22 9v1h-1v1h-2v-2h2v-2h1v-1h1v-1h-1l-1-1h-1v-1l24-9q23-10 25-10 1-1 2 0z"/>
  </g>
  <path d="m515 562v2q-1 0-1 1t-3 1-3 1-3 1l-3 1h-1v-1h1t0-1l2-1q1 0 1-1t2-1q3 1 4 0 1-2 2-2t2 0z" stroke="#202020" fill="#202020"/>
  <path d="m847 92v-1l40 19q40 18 41 19l1 1h2l1 1 1 1h1v1l-1 1v2h-1l-1-1-1-1h-2l-1-1-1-1h-1q-1 0-39-20l-39-20z" stroke="#1a1a1a" fill="#1a1a1a"/>
  <path d="m907 300h4v2h-3q-2 0-2 1 0 0-6 1-5 1-5 2t-2 1-2 1-3 2q-4 1-4 2t-2 1-2 1v1h-4v2h-2l-3-1h1l1-1 1-1h1l1-1 2-1h2q2-1 2-2t2-1 2-1 2-1 2-1q1 0 7-3t10-3z" stroke="#181818" fill="#181818"/>
  <path d="m591 281h1v1q0 2 1 2h1t-22 10l-22 10h-3l-1 1-1 1h-2l-1 1-1 1h-3l-1 1q-1 1-21 9l-19 10h-2l-1 1h-2v-4h-1v-1h1l1-1h1v-2h1l1-1 4-2q5-2 5-2h3l1-1 1-1 40-16q40-16 41-17z" stroke="#ebebeb" fill="#ebebeb"/>
  <path d="m668 251h2q0 1-32 15l-32 14h-2l-2 1-1 1h-2l-1 1-2 1h-4v-1h-1v-1h1v-1h1l1-1h2l1-1 1-1 34-13q35-13 36-14z" stroke="#ddd" fill="#ddd"/>
  <path d="m419 262h2l1 1q2 1 0 2-1 1 0 1v1q-1 1-1 1v1h-1v3h1v1h1v1l-1 2q-1 3-2 3t-1 1v1h-2q-1-1-4-2-4-1-4 0v2h-1q-1 1-1 1h-1v-1h-1v-1h-2v1h-1v-1h-1v-2h-1v-1h1v-2h1v-1h1l2-3q2-3 5-3 3-2 4-2t1-2q1-1 2-1 1-1 3-1z" stroke="#171717" fill="#171717"/>
  <path d="m941 342l-3-1v-2q1-1 4-1h3v-1q1 0 3-1 2 0 2-1t4-1q5-1 5-2t2-1q2 1-1 2-4 1-4 2t-2 1q-3 0-3 1t-2 1-2 1-1 1q-2 0-2 1t-3 1z" stroke="#1c1c1c" fill="#1c1c1c"/>
  <path d="m703 555q2 1 1 1t-4 1q-4 1-4 2t-2 1-2 1-2 1-4 2q-2 1-4 1t3-3q4-2 4-3t5-2q6-1 6-1 1-1 3-1z" stroke="#212121" fill="#212121"/>
  <path d="m637 587h-1v-3q1-1 3-1 1 0 4-1 2 0 2-1t3-1q4-1 4-2t3-1 3-1 4-2q3-1 3-2t3-1q2 0 1 1-2 0-2 1t-2 1-2 1-2 1-2 1-2 1-2 1-1 1q-2 0-2 1t-3 1-3 1-2 1-2 1-2 1-3 1z" stroke="#202020" fill="#202020"/>
 </g>
</svg>
