<?xml version="1.0" encoding="iso-8859-1"?>
<!-- Generator: Adobe Illustrator 19.0.0, SVG Export Plug-In . SVG Version: 6.00 Build 0)  -->
<svg version="1.1" id="Layer_1" xmlns="http://www.w3.org/2000/svg" xmlns:xlink="http://www.w3.org/1999/xlink" x="0px" y="0px"
	 viewBox="0 0 297 297" style="enable-background:new 0 0 297 297;" xml:space="preserve">
<g>
	<g>
		<circle style="fill:#096F7F;" cx="148.5" cy="148.5" r="148.5"/>
	</g>
	<g>
		<path style="fill:#0A5D66;" d="M297,148.5c0-10.051-1.004-19.867-2.908-29.358L227.31,56.1L70.07,258.084l46.045,35.365
			C126.541,295.767,137.376,297,148.5,297C230.514,297,297,230.514,297,148.5z"/>
	</g>
	<g>
		<path style="fill:#82D9C8;" d="M82.916,264h131.167c9.343,0,16.917-7.574,16.917-16.917V66.416
			c0-9.343-7.574-16.916-16.917-16.916H82.916C73.574,49.5,66,57.074,66,66.416v180.667C66,256.426,73.574,264,82.916,264z"/>
	</g>
	<g>
		<path style="fill:#FFFFFF;" d="M90.584,98h115.833c4.464,0,8.083-3.619,8.083-8.084V74.084c0-4.464-3.619-8.084-8.083-8.084
			H90.584c-4.464,0-8.084,3.619-8.084,8.084v15.833C82.5,94.381,86.119,98,90.584,98z"/>
	</g>
	<g>
		<path style="fill:#096F7F;" d="M189.167,148.5h17.667c4.234,0,7.667-3.432,7.667-7.667v-17.667c0-4.234-3.432-7.666-7.667-7.666
			h-17.667c-4.234,0-7.667,3.432-7.667,7.666v17.667C181.5,145.068,184.932,148.5,189.167,148.5z"/>
	</g>
	<g>
		<path style="fill:#096F7F;" d="M139.667,148.5h17.667c4.234,0,7.667-3.432,7.667-7.667v-17.667c0-4.234-3.432-7.666-7.667-7.666
			h-17.667c-4.234,0-7.667,3.432-7.667,7.666v17.667C132,145.068,135.432,148.5,139.667,148.5z"/>
	</g>
	<g>
		<path style="fill:#096F7F;" d="M90.166,148.5h17.667c4.234,0,7.666-3.432,7.666-7.667v-17.667c0-4.234-3.432-7.666-7.666-7.666
			H90.166c-4.234,0-7.666,3.432-7.666,7.666v17.667C82.5,145.068,85.932,148.5,90.166,148.5z"/>
	</g>
	<g>
		<path style="fill:#096F7F;" d="M189.167,198h17.667c4.234,0,7.667-3.432,7.667-7.667v-17.667c0-4.234-3.432-7.667-7.667-7.667
			h-17.667c-4.234,0-7.667,3.432-7.667,7.667v17.667C181.5,194.568,184.932,198,189.167,198z"/>
	</g>
	<g>
		<path style="fill:#096F7F;" d="M139.667,198h17.667c4.234,0,7.667-3.432,7.667-7.667v-17.667c0-4.234-3.432-7.667-7.667-7.667
			h-17.667c-4.234,0-7.667,3.432-7.667,7.667v17.667C132,194.568,135.432,198,139.667,198z"/>
	</g>
	<g>
		<path style="fill:#096F7F;" d="M90.166,198h17.667c4.234,0,7.666-3.432,7.666-7.667v-17.667c0-4.234-3.432-7.667-7.666-7.667
			H90.166c-4.234,0-7.666,3.432-7.666,7.667v17.667C82.5,194.568,85.932,198,90.166,198z"/>
	</g>
	<g>
		<path style="fill:#096F7F;" d="M189.167,247.5h17.667c4.234,0,7.667-3.432,7.667-7.667v-17.667c0-4.234-3.432-7.667-7.667-7.667
			h-17.667c-4.234,0-7.667,3.432-7.667,7.667v17.667C181.5,244.068,184.932,247.5,189.167,247.5z"/>
	</g>
	<g>
		<path style="fill:#096F7F;" d="M139.667,247.5h17.667c4.234,0,7.667-3.432,7.667-7.667v-17.667c0-4.234-3.432-7.667-7.667-7.667
			h-17.667c-4.234,0-7.667,3.432-7.667,7.667v17.667C132,244.068,135.432,247.5,139.667,247.5z"/>
	</g>
	<g>
		<path style="fill:#096F7F;" d="M90.166,247.5h17.667c4.234,0,7.666-3.432,7.666-7.667v-17.667c0-4.234-3.432-7.667-7.666-7.667
			H90.166c-4.234,0-7.666,3.432-7.666,7.667v17.667C82.5,244.068,85.932,247.5,90.166,247.5z"/>
	</g>
</g>
<g>
</g>
<g>
</g>
<g>
</g>
<g>
</g>
<g>
</g>
<g>
</g>
<g>
</g>
<g>
</g>
<g>
</g>
<g>
</g>
<g>
</g>
<g>
</g>
<g>
</g>
<g>
</g>
<g>
</g>
</svg>
