<?xml version="1.0" encoding="iso-8859-1"?>
<!-- Generator: Adobe Illustrator 17.1.0, SVG Export Plug-In . SVG Version: 6.00 Build 0)  -->
<!DOCTYPE svg PUBLIC "-//W3C//DTD SVG 1.1//EN" "http://www.w3.org/Graphics/SVG/1.1/DTD/svg11.dtd">
<svg xmlns="http://www.w3.org/2000/svg" xmlns:xlink="http://www.w3.org/1999/xlink" version="1.1" id="Capa_1" x="0px" y="0px" viewBox="0 0 430.142 430.142" style="enable-background:new 0 0 430.142 430.142;" xml:space="preserve" width="512px" height="512px">
<path id="XMLID_57_" d="M378.017,414.142h-36.253v-11.07c0-14.546-11.534-26.443-25.935-27.04  c4.106-22.375,6.284-47.244,6.331-72.61c0.802-3.76,1.537-7.584,2.22-11.456c0.623,0.273,3.957,1.462,5.004,1.462  c3.108,0,6.065-1.822,7.362-4.862c1.282-3.003,0.58-6.35-1.51-8.594c14.738-9.406,26.047-21.515,34.314-36.738  c0.789-1.453,1.109-3.115,0.914-4.758l-3.405-28.761l2.366-1.61c2.8-1.904,4.097-5.366,3.239-8.642l-11.702-44.664  c-5.196-19.837-25.108-35.377-45.332-35.377h-20.571c-4.418,0-8,3.582-8,8v41.586H225.39v-22.361  c9.796,7.534,20.38,11.459,31.264,11.459c4.418,0,8-3.582,8-8s-3.582-8-8-8c-14.359,0-25.874-10.692-33.004-19.662  c-0.007-0.009-2.265-3.001-6.259-3.021h-0.002c0,0-0.001,0-0.001,0h-19.851c-20.223,0-40.136,15.539-45.333,35.377l-11.701,44.664  c-0.868,3.313,0.469,6.81,3.325,8.699l3.202,2.118c-3.688,8.88-8.819,17.92-15.06,26.431c-3.318,4.523-6.881,8.781-10.594,12.733  l-16.491-84.935l9.173-1.724c5.421-1.017,10.109-4.084,13.202-8.637c3.053-4.493,4.167-9.884,3.14-15.179L118.78,79.13  c-0.842-4.338-5.041-7.165-9.378-6.329c-4.337,0.842-7.17,5.041-6.329,9.378l11.618,59.84c0.283,1.459-0.296,2.593-0.667,3.139  c-0.681,1.001-1.717,1.678-2.921,1.903l-9.269,1.742L89.38,84.654c-0.842-4.338-5.04-7.167-9.378-6.329  c-4.337,0.842-7.171,5.041-6.329,9.378l12.435,64.054l-9.171,1.723c-2.438,0.454-4.885-1.128-5.338-3.464L59.98,90.178  c-0.842-4.339-5.042-7.166-9.378-6.329c-4.337,0.843-7.17,5.041-6.329,9.378l11.619,59.839c1.885,9.713,10.52,16.498,20.169,16.497  c1.264,0,2.545-0.116,3.831-0.357l9.267-1.741l18.371,94.615c-0.456,0.351-0.909,0.721-1.366,1.061  c-3.548,2.634-4.289,7.645-1.656,11.191c1.483,1.998,3.72,3.093,6.024,3.21l4.714,24.281c-16.51,4.039-28.436,11.355-28.436,22.39  c0,0.047,0.317,3.06,0.535,3.852l16.993,86.078H60.873c-4.418,0-8,3.582-8,8s3.582,8,8,8h317.144c4.418,0,8-3.582,8-8  S382.435,414.142,378.017,414.142z M303.059,135.422h12.571c12.856,0,26.528,10.73,29.854,23.432l10.27,39.199l-12.738,8.666  c-3.653,2.485-4.6,7.461-2.115,11.114c1.548,2.275,4.063,3.501,6.622,3.501c1.549,0,3.115-0.449,4.493-1.387l0.131-0.089  l2.121,17.917c-6.604,11.426-15.141,20.498-26.239,27.829c1.464-14.271,2.208-29.126,2.208-44.47v-23.75  c0-15.138-12.057-27.544-27.179-28.335V135.422z M170.685,403.071v11.07h-50.039l-13.825-70.031  c12.014,4.3,28.016,6.331,43.947,6.331c7.593,0,14.995-0.468,22.001-1.391c4.38-0.577,7.463-4.596,6.887-8.977  c-0.577-4.38-4.599-7.463-8.977-6.887c-6.315,0.832-13.015,1.254-19.911,1.254c-28.505,0-44.462-6.764-47.623-10.23  c3.162-3.466,19.119-10.229,47.623-10.229c4.824,0,9.593,0.209,14.174,0.62c4.391,0.404,8.289-2.851,8.684-7.252  c0.396-4.4-2.852-8.288-7.252-8.684c-5.056-0.454-10.306-0.685-15.606-0.685c-6.674,0-13.357,0.362-19.758,1.092l-5.977-30.782  c7.091-6.432,13.828-13.93,19.836-22.12c6.327-8.627,11.672-17.791,15.729-26.916l1.128,0.747c1.359,0.899,2.891,1.329,4.407,1.329  c2.595,0,5.141-1.261,6.679-3.587c2.438-3.685,1.427-8.648-2.258-11.086l-13.125-8.684l10.25-39.124  c3.328-12.701,17-23.432,29.856-23.432h11.854v33.628c-15.119,0.796-27.172,13.199-27.172,28.334l-0.004,22.064  c0,29.044,2.791,57.471,8.076,82.278c-0.007,26.529,2.118,51.468,6.324,74.305C182.215,376.631,170.685,388.527,170.685,403.071z   M248.224,414.142h-61.54v-11.07c0-6.104,4.965-11.068,11.068-11.068h8.558c0.015,0,0.03,0.002,0.045,0.002  c0.012,0,0.024-0.002,0.036-0.002h41.832V414.142z M256.224,303.354c-4.418,0-8,3.582-8,8v64.649H212.9  c-4.436-22.883-6.663-48.108-6.609-75.104c0.001-0.573-0.06-1.145-0.18-1.705c-5.166-23.913-7.896-51.488-7.896-79.744l0.004-22.064  c0-6.824,5.704-12.377,12.716-12.377h6.417c0.013,0,0.026,0.002,0.039,0.002s0.026-0.002,0.039-0.002h77.592  c0.013,0,0.026,0.002,0.039,0.002s0.026-0.002,0.039-0.002h6.425c7.011,0,12.715,5.553,12.715,12.377v23.75  c0,16.136-0.843,31.693-2.514,46.538c-1.788-1.04-3.546-2.098-5.255-3.18c-3.732-2.363-8.674-1.253-11.039,2.479  c-2.363,3.732-1.253,8.675,2.48,11.038c3.662,2.319,7.5,4.544,11.475,6.678c-0.894,5.512-1.904,10.916-3.044,16.192  c-0.12,0.555-0.18,1.121-0.18,1.688c0,25.807-2.284,51.036-6.615,73.434h-35.322v-64.649  C264.224,306.936,260.643,303.354,256.224,303.354z M325.764,414.142h-61.54v-22.139h41.771c0.008,0,0.015,0,0.023,0h8.677  c6.103,0,11.068,4.965,11.068,11.068V414.142z M293.209,242.313V207.94c0-4.418-3.582-8-8-8h-57.968c-4.418,0-8,3.582-8,8v34.372  c0,3.354,2.093,6.354,5.242,7.51l28.983,10.644c0.89,0.327,1.824,0.49,2.758,0.49c0.934,0,1.868-0.163,2.758-0.49l28.985-10.644  C291.116,248.666,293.209,245.667,293.209,242.313z M277.209,236.728l-20.985,7.706l-20.983-7.706V215.94h41.968V236.728z   M231.598,113.215c4.829,7.992,14.351,13.443,25.288,13.443c11.747,0,21.86-6.289,26.28-15.26  c15.902-9.631,25.666-26.759,25.666-45.396v-12.93c0-4.75-0.637-9.353-1.813-13.737c5.882-1.763,11.603-3.713,17.099-5.853  c4.118-1.603,6.156-6.239,4.554-10.356s-6.241-6.157-10.356-4.554c-5.701,2.219-11.662,4.226-17.813,6.011  C291.069,9.819,274.544,0,255.759,0c-29.265,0-53.074,23.809-53.074,53.073v12.93C202.685,85.912,213.946,104.137,231.598,113.215z   M269.545,101.298c0,5.074-5.797,9.36-12.658,9.36c-5.574,0-10.446-2.829-12.078-6.61c-0.001-0.001-0.001-0.002-0.002-0.004  c-0.376-0.872-0.58-1.796-0.58-2.746v-7.429c3.887,1.695,8.21,2.614,12.659,2.614s8.771-0.919,12.658-2.614V101.298z M255.759,16  c11.16,0,21.176,4.964,27.979,12.791c-8.896,1.9-18.042,3.352-27.272,4.303c-11.129,1.147-22.077,1.543-32.66,1.212  C230.258,23.363,242.162,16,255.759,16z M218.685,53.073c0-0.993,0.051-1.974,0.128-2.947c4.001,0.202,8.051,0.305,12.145,0.305  c1.363,0,2.738-0.032,4.11-0.055c0.789,3.589,3.983,6.276,7.809,6.276c4.077,0,7.434-3.052,7.93-6.993  c2.426-0.185,4.859-0.398,7.3-0.649c0.62-0.064,1.237-0.138,1.856-0.206c0.081,4.348,3.625,7.849,7.992,7.849c4.418,0,8-3.582,8-8  v-2.081c5.266-0.896,10.476-1.943,15.601-3.132c0.828,3.074,1.277,6.302,1.277,9.634v12.93c0,8.066-2.641,15.72-7.288,21.988v-7.285  c0-4.418-3.582-8-8-8h-3.458c-2.442,0-4.75,1.115-6.268,3.028c-2.324,2.929-6.513,4.749-10.932,4.749  c-4.419,0-8.608-1.82-10.933-4.749c-1.518-1.913-3.825-3.028-6.267-3.028h-3.459c-4.418,0-8,3.582-8,8V90.74  c-6.016-6.691-9.542-15.45-9.542-24.737V53.073z" fill="#0097A7"/>
<g>
</g>
<g>
</g>
<g>
</g>
<g>
</g>
<g>
</g>
<g>
</g>
<g>
</g>
<g>
</g>
<g>
</g>
<g>
</g>
<g>
</g>
<g>
</g>
<g>
</g>
<g>
</g>
<g>
</g>
</svg>
