<?xml version="1.0" encoding="UTF-8" standalone="no"?>
<svg viewBox="0 0 373.05551 441.27698" xmlns="http://www.w3.org/2000/svg">
<g transform="translate(22.52411,-23.41748)">
<g transform="matrix(.5997,0,0,.5997,14.31711,-55.9599)">
<path d="m132.28999,852.63025c0,8.5955-26.71078,15.56353-59.66019,15.56353s-59.6602-6.96803-59.6602-15.56353 26.71078-15.56353 59.6602-15.56353 59.66019,6.96803 59.66019,15.56353z" fill="#808080"/>
<path d="m63.6328,132.36218h24.16297c2.01257,0 3.6328,1.62023 3.6328,3.6328v704.16299c0,2.01257-1.62023,3.6328-3.6328,3.6328h-24.16297c-2.01257,0-3.6328-1.62023-3.6328-3.6328v-704.16299c0-2.01257 1.62023-3.6328 3.6328-3.6328z"/>
<g transform="translate(-2)">
<path d="m11.42857,266.64789h131.42858v11.42857h-131.42858z"/>
<path d="m-258.94696,287.41046h84.44678v10.89361h-84.44678z" transform="matrix(.57127,-.82076,.97588,.21832,0,0)"/>
<path d="m-295.95673,151.87015h84.44678v10.89361h-84.44678z" transform="matrix(-.57127,-.82076,-.97588,.21832,0,0)"/>
<path d="m-59.43293,206.14626h31.55944v11.42857h-31.55944z"/>
<path d="m180.91603,206.14626h27.00109v11.42857h-27.00109z"/>
<path d="m-38.53872,193.52904c0,3.77625-2.04084,6.83751-4.55834,6.83751s-4.55834-3.06126-4.55834-6.83751 2.04084-6.83752 4.55834-6.83752 4.55834,3.06126 4.55834,6.83752z" transform="matrix(1.40909,0,0,1.39394,18.25221,-80.17546)"/>
<path d="m-38.53872,193.52904c0,3.77625-2.04084,6.83751-4.55834,6.83751s-4.55834-3.06126-4.55834-6.83751 2.04084-6.83752 4.55834-6.83752 4.55834,3.06126 4.55834,6.83752z" transform="matrix(.90909,0,0,.48485,-3.50352,84.57137)"/>
<path d="m-227.22585-44.39477h31.55944v4.79826h-31.55944z" transform="matrix(0,-1,1,0,0,0)"/>
<path d="m-38.53872,193.52904c0,3.77625-2.04084,6.83751-4.55834,6.83751s-4.55834-3.06126-4.55834-6.83751 2.04084-6.83752 4.55834-6.83752 4.55834,3.06126 4.55834,6.83752z" transform="matrix(1.40909,0,0,1.39394,256.94359,-78.51788)"/>
<path d="m-38.53872,193.52904c0,3.77625-2.04084,6.83751-4.55834,6.83751s-4.55834-3.06126-4.55834-6.83751 2.04084-6.83752 4.55834-6.83752 4.55834,3.06126 4.55834,6.83752z" transform="matrix(.90909,0,0,.48485,235.18786,86.22895)"/>
<path d="m-227.22585-44.39477h31.55944v4.79826h-31.55944z" transform="matrix(0,-1,1,0,238.69138,1.65758)"/>
</g>
<path d="m132.28999,852.63025c0,8.5955-26.71078,15.56353-59.66019,15.56353s-59.6602-6.96803-59.6602-15.56353 26.71078-15.56353 59.6602-15.56353 59.66019,6.96803 59.66019,15.56353z" fill="#808080" transform="matrix(.75,0,0,.75,431.23943,128.8551)"/>
<g transform="matrix(.5784,0,0,.5784,441.53704,276.18026)">
<path d="m63.6328,132.36218h24.16297c2.01257,0 3.6328,1.62023 3.6328,3.6328v704.16299c0,2.01257-1.62023,3.6328-3.6328,3.6328h-24.16297c-2.01257,0-3.6328-1.62023-3.6328-3.6328v-704.16299c0-2.01257 1.62023-3.6328 3.6328-3.6328z"/>
<g transform="translate(-2)">
<path d="m11.42857,266.64789h131.42858v11.42857h-131.42858z"/>
<path d="m-258.94696,287.41046h84.44678v10.89361h-84.44678z" transform="matrix(.57127,-.82076,.97588,.21832,0,0)"/>
<path d="m-295.95673,151.87015h84.44678v10.89361h-84.44678z" transform="matrix(-.57127,-.82076,-.97588,.21832,0,0)"/>
<path d="m-59.43293,206.14626h31.55944v11.42857h-31.55944z"/>
<path d="m180.91603,206.14626h27.00109v11.42857h-27.00109z"/>
<path d="m-38.53872,193.52904c0,3.77625-2.04084,6.83751-4.55834,6.83751s-4.55834-3.06126-4.55834-6.83751 2.04084-6.83752 4.55834-6.83752 4.55834,3.06126 4.55834,6.83752z" transform="matrix(1.40909,0,0,1.39394,18.25221,-80.17546)"/>
<path d="m-38.53872,193.52904c0,3.77625-2.04084,6.83751-4.55834,6.83751s-4.55834-3.06126-4.55834-6.83751 2.04084-6.83752 4.55834-6.83752 4.55834,3.06126 4.55834,6.83752z" transform="matrix(.90909,0,0,.48485,-3.50352,84.57137)"/>
<path d="m-227.22585-44.39477h31.55944v4.79826h-31.55944z" transform="matrix(0,-1,1,0,0,0)"/>
<path d="m-38.53872,193.52904c0,3.77625-2.04084,6.83751-4.55834,6.83751s-4.55834-3.06126-4.55834-6.83751 2.04084-6.83752 4.55834-6.83752 4.55834,3.06126 4.55834,6.83752z" transform="matrix(1.40909,0,0,1.39394,256.94359,-78.51788)"/>
<path d="m-38.53872,193.52904c0,3.77625-2.04084,6.83751-4.55834,6.83751s-4.55834-3.06126-4.55834-6.83751 2.04084-6.83752 4.55834-6.83752 4.55834,3.06126 4.55834,6.83752z" transform="matrix(.90909,0,0,.48485,235.18786,86.22895)"/>
<path d="m-227.22585-44.39477h31.55944v4.79826h-31.55944z" transform="matrix(0,-1,1,0,238.69138,1.65758)"/>
</g>
</g>
<path d="m196.96405,182.63931c141.29913,256.83934 353.3522,198.83673 353.3522,198.83673" fill="none" stroke="#000"/>
<path d="m-40.37579,182.64328c128.69347,202.38827 455.80415,200.12573 455.80415,200.12573" fill="none" stroke="#000" stroke-width="1.00795"/>
</g>
<path d="m87.17637,88.28414c84.31812,317.26482 84.31812,315.8357 84.31812,315.8357" fill="none" stroke="#000" transform="translate(-22.52411,23.41748)"/>
<path d="m-398.72471,246.91655c0,18.15348-4.79879,32.86978-10.71841,32.86978s-10.7184-14.7163-10.7184-32.86978 4.79879-32.86978 10.7184-32.86978 10.71841,14.7163 10.71841,32.86978z" fill="none" stroke="#000" stroke-linecap="round" stroke-width="5" transform="matrix(.21455,-.1001,.07986,.2227,219.31049,338.59527)"/>
<path d="m187.62209,430.80292c0,.92219-3.39811,1.66977-7.58989,1.66977s-7.58989-.74758-7.58989-1.66977 3.39811-1.66978 7.58989-1.66978 7.58989.74759 7.58989,1.66978z" fill="#b3b3b3" transform="translate(-23.73849,17.95276)"/>
<path d="m176.38905,417.90012 2.73236,6.6791" fill="none" stroke="#000" transform="translate(-22.52411,23.41748)"/>
<path d="m87.17637,88.28414c84.31812,317.26482 84.31812,315.8357 84.31812,315.8357" fill="none" stroke="#000" transform="matrix(-.5154,0,0,.63495,343.98895,144.95057)"/>
<path d="m-398.72471,246.91655c0,18.15348-4.79879,32.86978-10.71841,32.86978s-10.7184-14.7163-10.7184-32.86978 4.79879-32.86978 10.7184-32.86978 10.71841,14.7163 10.71841,32.86978z" fill="none" stroke="#000" stroke-linecap="round" stroke-width="5" transform="matrix(-.11058,-.06356,-.04116,.1414,219.34639,345.07141)"/>
<path d="m187.62209,430.80292c0,.92219-3.39811,1.66977-7.58989,1.66977s-7.58989-.74758-7.58989-1.66977 3.39811-1.66978 7.58989-1.66978 7.58989.74759 7.58989,1.66978z" fill="#b3b3b3" transform="matrix(-.5154,0,0,.63495,344.61485,141.48076)"/>
<path d="m176.38905,417.90012 2.73236,6.6791" fill="none" stroke="#000" transform="matrix(-.5154,0,0,.63495,343.98895,144.95057)"/>
</g>
</svg>
