<?xml version="1.0" encoding="iso-8859-1"?>
<!-- Generator: Adobe Illustrator 16.0.0, SVG Export Plug-In . SVG Version: 6.00 Build 0)  -->
<!DOCTYPE svg PUBLIC "-//W3C//DTD SVG 1.1//EN" "http://www.w3.org/Graphics/SVG/1.1/DTD/svg11.dtd">
<svg version="1.1" id="Capa_1" xmlns="http://www.w3.org/2000/svg" xmlns:xlink="http://www.w3.org/1999/xlink" x="0px" y="0px"
	 width="20.264px" height="20.264px" viewBox="0 0 20.264 20.264" style="enable-background:new 0 0 20.264 20.264;"
	 xml:space="preserve">
<g>
	<path d="M18.999,4.6c-1.061,0.125-1.82,0.668-2.516,1.242c-0.983,0.816-1.302,0.96-2.079,0.045
		c-0.369-0.432-0.647-0.318-0.635,0.108c0.034,1.057-0.522,0.813-1.119,0.625c-0.999-0.322-2.018-0.602-3-0.971
		c-0.474-0.178-1.362-0.55-1.167-0.872c0.677-1.119-0.255-1.273-0.785-1.695c-0.344-0.271-0.161-0.51-0.097-0.863
		C7.883,0.649,7.05-0.1,5.664,0.349c-0.23,0.074-0.502,0.163-0.718,0.105c-1.318-0.355-1.15,0.461-0.913,1.198
		C4.468,3,3.281,5.471,1.933,5.649C0.598,5.83,0.661,6.388,1.31,7.217c0.606,0.776,0.646,1.188-0.524,1.127
		c-0.37-0.021-0.853,0.081-0.778,0.585c0.209,1.432,1.56,2.228,3.097,1.848c-0.309,3.271,1.688,5.837,2.659,8.714
		c0.205,0.614,0.592,0.795,1.294,0.138c1.162-1.094,1.333-2.414,1.312-3.795c-0.013-0.742,0.259-1.224,0.797-1.507
		c1.988-1.048,3.06-3.285,5.283-4.029c0.301-0.101,0.138-0.542,0.072-0.812c-0.101-0.418-0.336-0.813-0.382-1.232
		c-0.049-0.431,0.439-1.107,0.571-0.915c0.512,0.75,1.331,0.238,1.996,0.757c-2.521,1.309,0.68,1.162,0.3,1.952
		c1.235-1.152,1.28-2.892,2.608-3.752c0.353-0.228,0.833-0.523,0.573-0.71C19.787,5.295,19.942,4.49,18.999,4.6z"/>
</g>
<g>
</g>
<g>
</g>
<g>
</g>
<g>
</g>
<g>
</g>
<g>
</g>
<g>
</g>
<g>
</g>
<g>
</g>
<g>
</g>
<g>
</g>
<g>
</g>
<g>
</g>
<g>
</g>
<g>
</g>
</svg>
