<?xml version="1.0" encoding="UTF-8"?>
<!DOCTYPE svg PUBLIC "-//W3C//DTD SVG 1.1//EN" "http://www.w3.org/Graphics/SVG/1.1/DTD/svg11.dtd">
<!-- Creator: CorelDRAW X6 -->
<svg xmlns="http://www.w3.org/2000/svg" xml:space="preserve" width="125mm" height="105mm" version="1.1" style="shape-rendering:geometricPrecision; text-rendering:geometricPrecision; image-rendering:optimizeQuality; fill-rule:evenodd; clip-rule:evenodd"
viewBox="0 0 12500 10500"
 xmlns:xlink="http://www.w3.org/1999/xlink">
 <defs>
  <style type="text/css">
   <![CDATA[
    .str13 {stroke:black;stroke-width:29.92;stroke-linecap:round;stroke-linejoin:round}
    .str11 {stroke:black;stroke-width:31.33;stroke-linecap:round;stroke-linejoin:round}
    .str9 {stroke:black;stroke-width:33.07;stroke-linecap:round;stroke-linejoin:round}
    .str6 {stroke:#2B2A29;stroke-width:33.76}
    .str2 {stroke:black;stroke-width:33.76}
    .str3 {stroke:black;stroke-width:34.03}
    .str1 {stroke:black;stroke-width:34.26;stroke-linecap:round;stroke-linejoin:round}
    .str4 {stroke:black;stroke-width:56.29}
    .str12 {stroke:black;stroke-width:59.85;stroke-linecap:round;stroke-linejoin:round}
    .str10 {stroke:black;stroke-width:62.65;stroke-linecap:round;stroke-linejoin:round}
    .str8 {stroke:black;stroke-width:66.15;stroke-linecap:round;stroke-linejoin:round}
    .str7 {stroke:black;stroke-width:68.55;stroke-linecap:round;stroke-linejoin:round}
    .str0 {stroke:black;stroke-width:102.82;stroke-linecap:round;stroke-linejoin:round}
    .str5 {stroke:black;stroke-width:281.46;stroke-linecap:round}
    .fil3 {fill:none}
    .fil54 {fill:#FEFEFE}
    .fil2 {fill:black}
    .fil1 {fill:gray}
    .fil4 {fill:#B3B3B3}
    .fil104 {fill:yellow}
    .fil0 {fill:white}
    .fil5 {fill:url(#id0)}
    .fil55 {fill:url(#id1)}
    .fil49 {fill:url(#id2)}
    .fil43 {fill:url(#id3)}
    .fil30 {fill:url(#id4)}
    .fil24 {fill:url(#id5)}
    .fil44 {fill:url(#id6)}
    .fil18 {fill:url(#id7)}
    .fil51 {fill:url(#id8)}
    .fil38 {fill:url(#id9)}
    .fil25 {fill:url(#id10)}
    .fil45 {fill:url(#id11)}
    .fil32 {fill:url(#id12)}
    .fil19 {fill:url(#id13)}
    .fil6 {fill:url(#id14)}
    .fil52 {fill:url(#id15)}
    .fil39 {fill:url(#id16)}
    .fil13 {fill:url(#id17)}
    .fil46 {fill:url(#id18)}
    .fil33 {fill:url(#id19)}
    .fil7 {fill:url(#id20)}
    .fil53 {fill:url(#id21)}
    .fil40 {fill:url(#id22)}
    .fil21 {fill:url(#id23)}
    .fil41 {fill:url(#id24)}
    .fil28 {fill:url(#id25)}
    .fil15 {fill:url(#id26)}
    .fil35 {fill:url(#id27)}
    .fil22 {fill:url(#id28)}
    .fil9 {fill:url(#id29)}
    .fil29 {fill:url(#id30)}
    .fil23 {fill:url(#id31)}
    .fil17 {fill:url(#id32)}
    .fil11 {fill:url(#id33)}
    .fil99 {fill:url(#id34)}
    .fil80 {fill:url(#id35)}
    .fil74 {fill:url(#id36)}
    .fil94 {fill:url(#id37)}
    .fil101 {fill:url(#id38)}
    .fil88 {fill:url(#id39)}
    .fil95 {fill:url(#id40)}
    .fil82 {fill:url(#id41)}
    .fil102 {fill:url(#id42)}
    .fil89 {fill:url(#id43)}
    .fil83 {fill:url(#id44)}
    .fil90 {fill:url(#id45)}
    .fil77 {fill:url(#id46)}
    .fil84 {fill:url(#id47)}
    .fil91 {fill:url(#id48)}
    .fil78 {fill:url(#id49)}
    .fil65 {fill:url(#id50)}
    .fil85 {fill:url(#id51)}
    .fil79 {fill:url(#id52)}
    .fil73 {fill:url(#id53)}
    .fil60 {fill:url(#id54)}
    .fil67 {fill:url(#id55)}
    .fil61 {fill:url(#id56)}
    .fil50 {fill:url(#id57)}
    .fil27 {fill:url(#id58)}
    .fil93 {fill:url(#id59)}
    .fil100 {fill:url(#id60)}
    .fil12 {fill:url(#id61)}
    .fil48 {fill:url(#id62)}
    .fil42 {fill:url(#id63)}
    .fil36 {fill:url(#id64)}
    .fil37 {fill:url(#id65)}
    .fil31 {fill:url(#id66)}
    .fil26 {fill:url(#id67)}
    .fil20 {fill:url(#id68)}
    .fil14 {fill:url(#id69)}
    .fil98 {fill:url(#id70)}
    .fil92 {fill:url(#id71)}
    .fil86 {fill:url(#id72)}
    .fil87 {fill:url(#id73)}
    .fil81 {fill:url(#id74)}
    .fil76 {fill:url(#id75)}
    .fil70 {fill:url(#id76)}
    .fil64 {fill:url(#id77)}
    .fil10 {fill:url(#id78)}
    .fil69 {fill:url(#id79)}
    .fil57 {fill:url(#id80)}
    .fil66 {fill:url(#id81)}
    .fil68 {fill:url(#id82)}
    .fil75 {fill:url(#id83)}
    .fil56 {fill:url(#id84)}
    .fil63 {fill:url(#id85)}
    .fil96 {fill:url(#id86)}
    .fil103 {fill:url(#id87)}
    .fil34 {fill:url(#id88)}
    .fil62 {fill:url(#id89)}
    .fil71 {fill:url(#id90)}
    .fil72 {fill:url(#id91)}
    .fil59 {fill:url(#id92)}
    .fil16 {fill:url(#id93)}
    .fil47 {fill:url(#id94)}
    .fil8 {fill:url(#id95)}
    .fil97 {fill:url(#id96)}
    .fil58 {fill:url(#id97)}
   ]]>
  </style>
  <linearGradient id="id0" gradientUnits="userSpaceOnUse" x1="2990.79" y1="3079.2" x2="756.61" y2="5023.54">
   <stop offset="0" style="stop-color:#878787"/>
   <stop offset="0.239216" style="stop-color:#8F8F8E"/>
   <stop offset="0.909804" style="stop-color:#A1A1A1"/>
   <stop offset="1" style="stop-color:#A1A1A1"/>
  </linearGradient>
  <linearGradient id="id1" gradientUnits="userSpaceOnUse" xlink:href="#id0" x1="6187.6" y1="3264.21" x2="3953.4" y2="5208.57">
  </linearGradient>
  <linearGradient id="id2" gradientUnits="userSpaceOnUse" x1="1176.43" y1="5024.88" x2="1054.25" y2="4978.38">
   <stop offset="0" style="stop-color:#9FC8DE"/>
   <stop offset="1" style="stop-color:#3ABFF0"/>
  </linearGradient>
  <linearGradient id="id3" gradientUnits="userSpaceOnUse" xlink:href="#id2" x1="1281.09" y1="4793.38" x2="1158.93" y2="4746.88">
  </linearGradient>
  <linearGradient id="id4" gradientUnits="userSpaceOnUse" xlink:href="#id2" x1="1311.8" y1="4308.62" x2="1189.62" y2="4262.12">
  </linearGradient>
  <linearGradient id="id5" gradientUnits="userSpaceOnUse" xlink:href="#id2" x1="1423.48" y1="4065.71" x2="1301.3" y2="4019.21">
  </linearGradient>
  <linearGradient id="id6" gradientUnits="userSpaceOnUse" xlink:href="#id2" x1="1472.19" y1="4810.22" x2="1350.01" y2="4763.72">
  </linearGradient>
  <linearGradient id="id7" gradientUnits="userSpaceOnUse" xlink:href="#id2" x1="1534.12" y1="3834.74" x2="1411.94" y2="3788.24">
  </linearGradient>
  <linearGradient id="id8" gradientUnits="userSpaceOnUse" xlink:href="#id2" x1="1558.61" y1="5058.56" x2="1436.45" y2="5012.06">
  </linearGradient>
  <linearGradient id="id9" gradientUnits="userSpaceOnUse" xlink:href="#id2" x1="1583.35" y1="4573.28" x2="1461.17" y2="4526.78">
  </linearGradient>
  <linearGradient id="id10" gradientUnits="userSpaceOnUse" xlink:href="#id2" x1="1614.57" y1="4082.55" x2="1492.39" y2="4036.05">
  </linearGradient>
  <linearGradient id="id11" gradientUnits="userSpaceOnUse" xlink:href="#id2" x1="1663.27" y1="4827.07" x2="1541.11" y2="4780.57">
  </linearGradient>
  <linearGradient id="id12" gradientUnits="userSpaceOnUse" xlink:href="#id2" x1="1693.98" y1="4342.32" x2="1571.8" y2="4295.82">
  </linearGradient>
  <linearGradient id="id13" gradientUnits="userSpaceOnUse" xlink:href="#id2" x1="1725.2" y1="3851.58" x2="1603.04" y2="3805.08">
  </linearGradient>
  <linearGradient id="id14" gradientUnits="userSpaceOnUse" xlink:href="#id2" x1="1749.41" y1="3372.28" x2="1627.23" y2="3325.78">
  </linearGradient>
  <linearGradient id="id15" gradientUnits="userSpaceOnUse" xlink:href="#id2" x1="1749.71" y1="5075.41" x2="1627.53" y2="5028.91">
  </linearGradient>
  <linearGradient id="id16" gradientUnits="userSpaceOnUse" xlink:href="#id2" x1="1774.43" y1="4590.13" x2="1652.27" y2="4543.63">
  </linearGradient>
  <linearGradient id="id17" gradientUnits="userSpaceOnUse" xlink:href="#id2" x1="1829.87" y1="3620.09" x2="1707.69" y2="3573.59">
  </linearGradient>
  <linearGradient id="id18" gradientUnits="userSpaceOnUse" xlink:href="#id2" x1="1854.37" y1="4843.92" x2="1732.19" y2="4797.42">
  </linearGradient>
  <linearGradient id="id19" gradientUnits="userSpaceOnUse" xlink:href="#id2" x1="1885.07" y1="4359.16" x2="1762.91" y2="4312.66">
  </linearGradient>
  <linearGradient id="id20" gradientUnits="userSpaceOnUse" xlink:href="#id2" x1="1940.5" y1="3389.12" x2="1818.32" y2="3342.62">
  </linearGradient>
  <linearGradient id="id21" gradientUnits="userSpaceOnUse" xlink:href="#id2" x1="1940.79" y1="5092.25" x2="1818.63" y2="5045.75">
  </linearGradient>
  <linearGradient id="id22" gradientUnits="userSpaceOnUse" xlink:href="#id2" x1="1965.53" y1="4606.98" x2="1843.37" y2="4560.48">
  </linearGradient>
  <linearGradient id="id23" gradientUnits="userSpaceOnUse" xlink:href="#id2" x1="2107.39" y1="3885.29" x2="1985.21" y2="3838.79">
  </linearGradient>
  <linearGradient id="id24" gradientUnits="userSpaceOnUse" xlink:href="#id2" x1="2156.62" y1="4623.82" x2="2034.46" y2="4577.32">
  </linearGradient>
  <linearGradient id="id25" gradientUnits="userSpaceOnUse" xlink:href="#id2" x1="2187.85" y1="4133.11" x2="2065.67" y2="4086.61">
  </linearGradient>
  <linearGradient id="id26" gradientUnits="userSpaceOnUse" xlink:href="#id2" x1="2212.05" y1="3653.79" x2="2089.87" y2="3607.29">
  </linearGradient>
  <linearGradient id="id27" gradientUnits="userSpaceOnUse" xlink:href="#id2" x1="2267.26" y1="4392.86" x2="2145.08" y2="4346.36">
  </linearGradient>
  <linearGradient id="id28" gradientUnits="userSpaceOnUse" xlink:href="#id2" x1="2298.48" y1="3902.13" x2="2176.32" y2="3855.63">
  </linearGradient>
  <linearGradient id="id29" gradientUnits="userSpaceOnUse" xlink:href="#id2" x1="2322.69" y1="3422.83" x2="2200.53" y2="3376.33">
  </linearGradient>
  <linearGradient id="id30" gradientUnits="userSpaceOnUse" xlink:href="#id2" x1="2378.94" y1="4149.94" x2="2256.78" y2="4103.44">
  </linearGradient>
  <linearGradient id="id31" gradientUnits="userSpaceOnUse" xlink:href="#id2" x1="2489.57" y1="3918.98" x2="2367.39" y2="3872.48">
  </linearGradient>
  <linearGradient id="id32" gradientUnits="userSpaceOnUse" xlink:href="#id2" x1="2594.24" y1="3687.48" x2="2472.08" y2="3640.98">
  </linearGradient>
  <linearGradient id="id33" gradientUnits="userSpaceOnUse" xlink:href="#id2" x1="2704.87" y1="3456.51" x2="2582.69" y2="3410.01">
  </linearGradient>
  <linearGradient id="id34" gradientUnits="userSpaceOnUse" xlink:href="#id2" x1="4373.22" y1="5209.88" x2="4251.06" y2="5163.38">
  </linearGradient>
  <linearGradient id="id35" gradientUnits="userSpaceOnUse" xlink:href="#id2" x1="4508.59" y1="4493.63" x2="4386.41" y2="4447.13">
  </linearGradient>
  <linearGradient id="id36" gradientUnits="userSpaceOnUse" xlink:href="#id2" x1="4620.28" y1="4250.72" x2="4498.1" y2="4204.22">
  </linearGradient>
  <linearGradient id="id37" gradientUnits="userSpaceOnUse" xlink:href="#id2" x1="4668.98" y1="4995.23" x2="4546.8" y2="4948.73">
  </linearGradient>
  <linearGradient id="id38" gradientUnits="userSpaceOnUse" xlink:href="#id2" x1="4755.41" y1="5243.58" x2="4633.23" y2="5197.08">
  </linearGradient>
  <linearGradient id="id39" gradientUnits="userSpaceOnUse" xlink:href="#id2" x1="4780.14" y1="4758.29" x2="4657.98" y2="4711.79">
  </linearGradient>
  <linearGradient id="id40" gradientUnits="userSpaceOnUse" xlink:href="#id2" x1="4860.07" y1="5012.08" x2="4737.91" y2="4965.58">
  </linearGradient>
  <linearGradient id="id41" gradientUnits="userSpaceOnUse" xlink:href="#id2" x1="4890.77" y1="4527.32" x2="4768.59" y2="4480.82">
  </linearGradient>
  <linearGradient id="id42" gradientUnits="userSpaceOnUse" xlink:href="#id2" x1="4946.5" y1="5260.42" x2="4824.32" y2="5213.92">
  </linearGradient>
  <linearGradient id="id43" gradientUnits="userSpaceOnUse" xlink:href="#id2" x1="4971.23" y1="4775.14" x2="4849.07" y2="4728.64">
  </linearGradient>
  <linearGradient id="id44" gradientUnits="userSpaceOnUse" xlink:href="#id2" x1="5081.86" y1="4544.17" x2="4959.7" y2="4497.67">
  </linearGradient>
  <linearGradient id="id45" gradientUnits="userSpaceOnUse" xlink:href="#id2" x1="5162.32" y1="4791.99" x2="5040.16" y2="4745.49">
  </linearGradient>
  <linearGradient id="id46" gradientUnits="userSpaceOnUse" xlink:href="#id2" x1="5193.54" y1="4301.27" x2="5071.38" y2="4254.77">
  </linearGradient>
  <linearGradient id="id47" gradientUnits="userSpaceOnUse" xlink:href="#id2" x1="5272.96" y1="4561.02" x2="5150.78" y2="4514.52">
  </linearGradient>
  <linearGradient id="id48" gradientUnits="userSpaceOnUse" xlink:href="#id2" x1="5353.42" y1="4808.83" x2="5231.24" y2="4762.33">
  </linearGradient>
  <linearGradient id="id49" gradientUnits="userSpaceOnUse" xlink:href="#id2" x1="5384.64" y1="4318.1" x2="5262.48" y2="4271.6">
  </linearGradient>
  <linearGradient id="id50" gradientUnits="userSpaceOnUse" xlink:href="#id2" x1="5408.85" y1="3838.8" x2="5286.67" y2="3792.3">
  </linearGradient>
  <linearGradient id="id51" gradientUnits="userSpaceOnUse" xlink:href="#id2" x1="5464.05" y1="4577.87" x2="5341.89" y2="4531.37">
  </linearGradient>
  <linearGradient id="id52" gradientUnits="userSpaceOnUse" xlink:href="#id2" x1="5575.73" y1="4334.95" x2="5453.57" y2="4288.45">
  </linearGradient>
  <linearGradient id="id53" gradientUnits="userSpaceOnUse" xlink:href="#id2" x1="5686.37" y1="4103.99" x2="5564.21" y2="4057.49">
  </linearGradient>
  <linearGradient id="id54" gradientUnits="userSpaceOnUse" xlink:href="#id2" x1="5710.58" y1="3624.68" x2="5588.4" y2="3578.18">
  </linearGradient>
  <linearGradient id="id55" gradientUnits="userSpaceOnUse" xlink:href="#id2" x1="5791.03" y1="3872.49" x2="5668.85" y2="3825.99">
  </linearGradient>
  <linearGradient id="id56" gradientUnits="userSpaceOnUse" xlink:href="#id2" x1="5901.67" y1="3641.53" x2="5779.51" y2="3595.03">
  </linearGradient>
  <linearGradient id="id57" gradientUnits="userSpaceOnUse" xlink:href="#id2" x1="1367.52" y1="5041.7" x2="1245.36" y2="4995.22">
  </linearGradient>
  <linearGradient id="id58" gradientUnits="userSpaceOnUse" xlink:href="#id2" x1="1996.75" y1="4116.24" x2="1874.59" y2="4069.76">
  </linearGradient>
  <linearGradient id="id59" gradientUnits="userSpaceOnUse" xlink:href="#id2" x1="4477.88" y1="4978.37" x2="4355.72" y2="4931.89">
  </linearGradient>
  <linearGradient id="id60" gradientUnits="userSpaceOnUse" xlink:href="#id2" x1="4564.31" y1="5226.71" x2="4442.15" y2="5180.23">
  </linearGradient>
  <linearGradient id="id61" gradientUnits="userSpaceOnUse" xlink:href="#id2" x1="1638.78" y1="3603.23" x2="1516.62" y2="3556.75">
  </linearGradient>
  <linearGradient id="id62" gradientUnits="userSpaceOnUse" xlink:href="#id2" x1="985.33" y1="5008.01" x2="863.17" y2="4961.53">
  </linearGradient>
  <linearGradient id="id63" gradientUnits="userSpaceOnUse" xlink:href="#id2" x1="1089.99" y1="4776.52" x2="967.83" y2="4730.04">
  </linearGradient>
  <linearGradient id="id64" gradientUnits="userSpaceOnUse" xlink:href="#id2" x1="1201.15" y1="4539.58" x2="1078.99" y2="4493.1">
  </linearGradient>
  <linearGradient id="id65" gradientUnits="userSpaceOnUse" xlink:href="#id2" x1="1392.24" y1="4556.42" x2="1270.08" y2="4509.94">
  </linearGradient>
  <linearGradient id="id66" gradientUnits="userSpaceOnUse" xlink:href="#id2" x1="1502.89" y1="4325.46" x2="1380.73" y2="4278.98">
  </linearGradient>
  <linearGradient id="id67" gradientUnits="userSpaceOnUse" xlink:href="#id2" x1="1805.66" y1="4099.39" x2="1683.48" y2="4052.91">
  </linearGradient>
  <linearGradient id="id68" gradientUnits="userSpaceOnUse" xlink:href="#id2" x1="1916.3" y1="3868.42" x2="1794.14" y2="3821.94">
  </linearGradient>
  <linearGradient id="id69" gradientUnits="userSpaceOnUse" xlink:href="#id2" x1="2020.96" y1="3636.93" x2="1898.8" y2="3590.45">
  </linearGradient>
  <linearGradient id="id70" gradientUnits="userSpaceOnUse" xlink:href="#id2" x1="4182.13" y1="5193.02" x2="4059.97" y2="5146.54">
  </linearGradient>
  <linearGradient id="id71" gradientUnits="userSpaceOnUse" xlink:href="#id2" x1="4286.79" y1="4961.53" x2="4164.61" y2="4915.05">
  </linearGradient>
  <linearGradient id="id72" gradientUnits="userSpaceOnUse" xlink:href="#id2" x1="4397.95" y1="4724.58" x2="4275.79" y2="4678.1">
  </linearGradient>
  <linearGradient id="id73" gradientUnits="userSpaceOnUse" xlink:href="#id2" x1="4589.04" y1="4741.43" x2="4466.86" y2="4694.95">
  </linearGradient>
  <linearGradient id="id74" gradientUnits="userSpaceOnUse" xlink:href="#id2" x1="4699.67" y1="4510.47" x2="4577.51" y2="4463.99">
  </linearGradient>
  <linearGradient id="id75" gradientUnits="userSpaceOnUse" xlink:href="#id2" x1="5002.45" y1="4284.4" x2="4880.27" y2="4237.92">
  </linearGradient>
  <linearGradient id="id76" gradientUnits="userSpaceOnUse" xlink:href="#id2" x1="5113.09" y1="4053.44" x2="4990.93" y2="4006.96">
  </linearGradient>
  <linearGradient id="id77" gradientUnits="userSpaceOnUse" xlink:href="#id2" x1="5217.75" y1="3821.95" x2="5095.59" y2="3775.47">
  </linearGradient>
  <linearGradient id="id78" gradientUnits="userSpaceOnUse" xlink:href="#id2" x1="2513.77" y1="3439.65" x2="2391.61" y2="3393.19">
  </linearGradient>
  <linearGradient id="id79" gradientUnits="userSpaceOnUse" xlink:href="#id2" x1="4922" y1="4036.59" x2="4799.82" y2="3990.11">
  </linearGradient>
  <linearGradient id="id80" gradientUnits="userSpaceOnUse" xlink:href="#id2" x1="5137.29" y1="3574.11" x2="5015.13" y2="3527.65">
  </linearGradient>
  <linearGradient id="id81" gradientUnits="userSpaceOnUse" xlink:href="#id2" x1="5599.94" y1="3855.62" x2="5477.78" y2="3809.16">
  </linearGradient>
  <linearGradient id="id82" gradientUnits="userSpaceOnUse" xlink:href="#id2" x1="4730.9" y1="4019.73" x2="4608.74" y2="3973.27">
  </linearGradient>
  <linearGradient id="id83" gradientUnits="userSpaceOnUse" xlink:href="#id2" x1="4811.36" y1="4267.54" x2="4689.2" y2="4221.08">
  </linearGradient>
  <linearGradient id="id84" gradientUnits="userSpaceOnUse" xlink:href="#id2" x1="4946.2" y1="3557.27" x2="4824.04" y2="3510.81">
  </linearGradient>
  <linearGradient id="id85" gradientUnits="userSpaceOnUse" xlink:href="#id2" x1="5026.66" y1="3805.09" x2="4904.48" y2="3758.61">
  </linearGradient>
  <linearGradient id="id86" gradientUnits="userSpaceOnUse" xlink:href="#id2" x1="5051.16" y1="5028.91" x2="4928.98" y2="4982.43">
  </linearGradient>
  <linearGradient id="id87" gradientUnits="userSpaceOnUse" xlink:href="#id2" x1="5137.58" y1="5277.24" x2="5015.42" y2="5230.78">
  </linearGradient>
  <linearGradient id="id88" gradientUnits="userSpaceOnUse" xlink:href="#id2" x1="2076.15" y1="4375.99" x2="1953.99" y2="4329.53">
  </linearGradient>
  <linearGradient id="id89" gradientUnits="userSpaceOnUse" xlink:href="#id2" x1="4835.57" y1="3788.24" x2="4713.41" y2="3741.78">
  </linearGradient>
  <linearGradient id="id90" gradientUnits="userSpaceOnUse" xlink:href="#id2" x1="5304.18" y1="4070.28" x2="5182.02" y2="4023.82">
  </linearGradient>
  <linearGradient id="id91" gradientUnits="userSpaceOnUse" xlink:href="#id2" x1="5495.27" y1="4087.12" x2="5373.11" y2="4040.66">
  </linearGradient>
  <linearGradient id="id92" gradientUnits="userSpaceOnUse" xlink:href="#id2" x1="5519.48" y1="3607.81" x2="5397.32" y2="3561.35">
  </linearGradient>
  <linearGradient id="id93" gradientUnits="userSpaceOnUse" xlink:href="#id2" x1="2403.14" y1="3670.62" x2="2280.98" y2="3624.16">
  </linearGradient>
  <linearGradient id="id94" gradientUnits="userSpaceOnUse" xlink:href="#id2" x1="2045.46" y1="4860.74" x2="1923.3" y2="4814.28">
  </linearGradient>
  <linearGradient id="id95" gradientUnits="userSpaceOnUse" xlink:href="#id2" x1="2131.59" y1="3405.95" x2="2009.43" y2="3359.49">
  </linearGradient>
  <linearGradient id="id96" gradientUnits="userSpaceOnUse" xlink:href="#id2" x1="5242.25" y1="5045.75" x2="5120.09" y2="4999.29">
  </linearGradient>
  <linearGradient id="id97" gradientUnits="userSpaceOnUse" xlink:href="#id2" x1="5328.38" y1="3590.96" x2="5206.22" y2="3544.5">
  </linearGradient>
 </defs>
 <g id="Layer_x0020_1">
  <metadata id="CorelCorpID_0Corel-Layer"/>
  <g id="_777033312">
   <path id="path18716" class="fil0" d="M8182 8081c0,4 0,8 0,12 0,765 -1002,1385 -2237,1385 -1235,0 -2237,-620 -2237,-1385 0,-4 0,-8 0,-12m4473 0l0 0 0 0z"/>
   <polygon id="path13094" class="fil0 str0" points="6484,3358 6622,3078 7889,4627 7471,4593 6484,3358 "/>
   <polygon id="path1072" class="fil0 str0" points="398,8174 5507,9227 5497,5544 3621,5387 3649,4455 2721,3287 1807,4257 1801,5245 403,5125 398,8173 "/>
   <polygon id="path1073" class="fil0 str0" points="5517,9227 7458,7899 7467,4447 6376,3136 5497,5552 5517,9227 "/>
   <polygon id="path1077" class="fil0 str0" points="3624,4475 4261,4289 3625,5395 3624,4475 "/>
   <g>
    <polygon id="path6776" class="fil0 str1" points="2028,4354 2185,4254 2185,5169 2025,5263 2028,4354 "/>
    <polygon id="path6777" class="fil0 str1" points="3379,5385 3382,5279 2184,5169 2023,5263 3379,5385 "/>
    <polygon id="path6778" class="fil0 str1" points="2028,4356 2185,4254 2733,3662 2699,3635 2028,4356 "/>
   </g>
   <g>
    <polygon id="path14959" class="fil0" points="5710,5638 6637,3770 7458,4447 6520,3326 5710,5638 "/>
    <polygon id="path15593" class="fil0" points="4285,4305 3649,5375 5166,3913 3859,3071 4285,4305 "/>
   </g>
   <polygon id="path17467" class="fil0 str1" points="3817,7478 3979,7502 3969,8717 3809,8811 3817,7478 "/>
   <path class="fil1" d="M9524 6090c0,55 -172,100 -384,100 -212,0 -384,-45 -384,-100 0,-55 172,-100 384,-100 212,0 384,45 384,100z"/>
   <path class="fil2" d="M9082 1453l156 0c13,0 23,10 23,23l0 4533c0,13 -10,23 -23,23l-156 0c-13,0 -23,-10 -23,-23l0 -4533c0,-13 10,-23 23,-23z"/>
   <g>
    <polygon class="fil2" points="8733,2317 9579,2317 9579,2391 8733,2391 "/>
    <polygon class="fil2" points="9513,2373 9823,1927 9892,1942 9581,2388 "/>
    <polygon class="fil2" points="8794,2378 8483,1932 8415,1947 8725,2393 "/>
    <polygon class="fil2" points="8277,1928 8480,1928 8480,2001 8277,2001 "/>
    <polygon class="fil2" points="9824,1928 9998,1928 9998,2001 9824,2001 "/>
    <path class="fil2" d="M8427 1821c0,34 -19,61 -41,61 -23,0 -41,-27 -41,-61 0,-34 19,-61 41,-61 23,0 41,27 41,61z"/>
    <path class="fil2" d="M8411 1749c0,12 -12,21 -27,21 -15,0 -27,-10 -27,-21 0,-12 12,-21 27,-21 15,0 27,10 27,21z"/>
    <polygon class="fil2" points="8374,2064 8374,1860 8404,1860 8404,2064 "/>
    <path class="fil2" d="M9964 1832c0,34 -19,61 -41,61 -23,0 -41,-27 -41,-61 0,-34 19,-61 41,-61 23,0 41,27 41,61z"/>
    <path class="fil2" d="M9948 1760c0,12 -12,21 -27,21 -15,0 -27,-10 -27,-21 0,-12 12,-21 27,-21 15,0 27,10 27,21z"/>
    <polygon class="fil2" points="9910,2074 9910,1871 9941,1871 9941,2074 "/>
   </g>
   <path class="fil1" d="M12087 5547c0,42 -129,75 -288,75 -159,0 -288,-34 -288,-75 0,-42 129,-75 288,-75 159,0 288,34 288,75z"/>
   <g>
    <path class="fil2" d="M11752 2872l90 0c7,0 14,6 14,14l0 2622c0,7 -6,14 -14,14l-90 0c-7,0 -14,-6 -14,-14l0 -2622c0,-7 6,-14 14,-14l0 0z"/>
    <g>
     <polygon class="fil2" points="11550,3372 12039,3372 12039,3414 11550,3414 "/>
     <polygon class="fil2" points="12001,3404 12181,3146 12220,3155 12040,3413 "/>
     <polygon class="fil2" points="11585,3407 11405,3149 11366,3158 11545,3416 "/>
     <polygon class="fil2" points="11286,3146 11404,3146 11404,3189 11286,3189 "/>
     <polygon class="fil2" points="12181,3146 12282,3146 12282,3189 12181,3189 "/>
     <path class="fil2" d="M11373 3085c0,20 -11,35 -24,35 -13,0 -24,-16 -24,-35 0,-20 11,-35 24,-35 13,0 24,16 24,35z"/>
     <path class="fil2" d="M11364 3043c0,7 -7,12 -15,12 -9,0 -15,-6 -15,-12 0,-7 7,-12 15,-12 9,0 15,6 15,12z"/>
     <polygon class="fil2" points="11342,3225 11342,3107 11360,3107 11360,3225 "/>
     <path class="fil2" d="M12262 3091c0,20 -11,35 -24,35 -13,0 -24,-16 -24,-35 0,-20 11,-35 24,-35 13,0 24,16 24,35z"/>
     <path class="fil2" d="M12253 3049c0,7 -7,12 -15,12 -9,0 -15,-6 -15,-12 0,-7 7,-12 15,-12 9,0 15,6 15,12z"/>
     <polygon class="fil2" points="12231,3231 12231,3114 12249,3114 12249,3231 "/>
    </g>
   </g>
   <path class="fil3 str2" d="M9940 1777c910,1653 2275,1280 2275,1280"/>
   <path class="fil3 str3" d="M8412 1777c829,1303 2934,1288 2934,1288"/>
   <path class="fil3 str4" d="M9213 2401c905,3406 905,3391 905,3391"/>
   <path class="fil3 str5" d="M10166 5855c16,43 17,84 3,90 -14,6 -37,-24 -53,-67 -16,-43 -17,-84 -3,-90 14,-6 37,24 53,67z"/>
   <path class="fil4" d="M10278 6019c0,10 -36,18 -81,18 -45,0 -81,-8 -81,-18 0,-10 36,-18 81,-18 45,0 81,8 81,18z"/>
   <line class="fil3 str4" x1="10170" y1="5939" x2="10200" y2= "6011" />
   <path class="fil3 str4" d="M11729 3359c-467,2163 -467,2153 -467,2153"/>
   <path class="fil3 str5" d="M11237 5553c-8,28 -9,53 -2,57 7,4 19,-15 27,-43 8,-28 9,-53 2,-57 -7,-4 -19,15 -27,43z"/>
   <path class="fil4" d="M11180 5657c0,6 19,11 42,11 23,0 42,-5 42,-11 0,-6 -19,-11 -42,-11 -23,0 -42,5 -42,11z"/>
   <line class="fil3 str4" x1="11235" y1="5606" x2="11220" y2= "5652" />
   <path class="fil3 str6" d="M8404 2001c15,888 29,1776 23,2461 -6,685 -33,1167 -14,1492 18,325 81,493 -31,637 -112,145 -400,266 -583,343 -183,77 -261,108 -300,127 -39,18 -39,24 -39,29"/>
   <path class="fil5" d="M2817 3319c10,5 23,10 21,11l-878 1905c-4,10 -40,16 -40,16l-1180 -105c-11,-9 2,-11 8,-24l858 -1893c6,-13 22,-20 35,-18l1175 108z"/>
   <path class="fil6" d="M1778 3276c12,1 15,14 10,28l-51 110c-6,15 -24,23 -35,22l-86 -11c-12,-2 -26,-15 -20,-29l49 -104c5,-14 19,-25 31,-24l88 7 16 1z"/>
   <path class="fil7" d="M1969 3292c12,1 15,14 10,28l-51 110c-6,15 -24,23 -35,22l-86 -11c-12,-2 -26,-15 -20,-29l49 -104c5,-14 19,-25 31,-24l88 7 16 1z"/>
   <path class="fil8" d="M2160 3309c12,1 15,14 10,28l-51 110c-6,15 -24,23 -35,22l-86 -11c-12,-2 -26,-15 -20,-29l49 -104c5,-14 19,-25 31,-24l88 7 16 1z"/>
   <path class="fil9" d="M2351 3326c12,1 15,14 10,28l-51 110c-6,15 -24,23 -35,22l-86 -11c-12,-2 -26,-15 -20,-29l49 -104c5,-14 19,-25 31,-24l88 7 16 1z"/>
   <path class="fil10" d="M2542 3343c12,1 15,14 10,28l-51 110c-6,15 -24,23 -35,22l-86 -11c-12,-2 -26,-15 -20,-29l49 -104c5,-14 19,-25 31,-24l88 7 16 1z"/>
   <path class="fil11" d="M2733 3360c12,1 15,14 10,28l-51 110c-6,15 -24,23 -35,22l-86 -11c-12,-2 -26,-15 -20,-29l49 -104c5,-14 19,-25 31,-24l88 7 16 1z"/>
   <path class="fil12" d="M1667 3507c12,1 15,14 10,28l-51 110c-6,15 -24,23 -35,22l-86 -11c-12,-2 -26,-15 -20,-29l49 -104c5,-14 19,-25 31,-24l88 7 16 1z"/>
   <path class="fil13" d="M1858 3523c12,1 15,14 10,28l-51 110c-6,15 -24,23 -35,22l-86 -11c-12,-2 -26,-15 -20,-29l49 -104c5,-14 19,-25 31,-24l88 7 16 1z"/>
   <path class="fil14" d="M2049 3540c12,1 15,14 10,28l-51 110c-6,15 -24,23 -35,22l-86 -11c-12,-2 -26,-15 -20,-29l49 -104c5,-14 19,-25 31,-24l88 7 16 1z"/>
   <path class="fil15" d="M2240 3557c12,1 15,14 10,28l-51 110c-6,15 -24,23 -35,22l-86 -11c-12,-2 -26,-15 -20,-29l49 -104c5,-14 19,-25 31,-24l88 7 16 1z"/>
   <path class="fil16" d="M2431 3574c12,1 15,14 10,28l-51 110c-6,15 -24,23 -35,22l-86 -11c-12,-2 -26,-15 -20,-29l49 -104c5,-14 19,-25 31,-24l88 7 16 1z"/>
   <path class="fil17" d="M2622 3591c12,1 15,14 10,28l-51 110c-6,15 -24,23 -35,22l-86 -11c-12,-2 -26,-15 -20,-29l49 -104c5,-14 19,-25 31,-24l88 7 16 1z"/>
   <path class="fil18" d="M1562 3738c12,1 15,14 10,28l-51 110c-6,15 -24,23 -35,22l-86 -11c-12,-2 -26,-15 -20,-29l49 -104c5,-14 19,-25 31,-24l88 7 16 1z"/>
   <path class="fil19" d="M1753 3755c12,1 15,14 10,28l-51 110c-6,15 -24,23 -35,22l-86 -11c-12,-2 -26,-15 -20,-29l49 -104c5,-14 19,-25 31,-24l88 7 16 1z"/>
   <path class="fil20" d="M1944 3772c12,1 15,14 10,28l-51 110c-6,15 -24,23 -35,22l-86 -11c-12,-2 -26,-15 -20,-29l49 -104c5,-14 19,-25 31,-24l88 7 16 1z"/>
   <path class="fil21" d="M2136 3789c12,1 15,14 10,28l-51 110c-6,15 -24,23 -35,22l-86 -11c-12,-2 -26,-15 -20,-29l49 -104c5,-14 19,-25 31,-24l88 7 16 1z"/>
   <path class="fil22" d="M2327 3805c12,1 15,14 10,28l-51 110c-6,15 -24,23 -35,22l-86 -11c-12,-2 -26,-15 -20,-29l49 -104c5,-14 19,-25 31,-24l88 7 16 1z"/>
   <path class="fil23" d="M2518 3822c12,1 15,14 10,28l-51 110c-6,15 -24,23 -35,22l-86 -11c-12,-2 -26,-15 -20,-29l49 -104c5,-14 19,-25 31,-24l88 7 16 1z"/>
   <path class="fil24" d="M1452 3969c12,1 15,14 10,28l-51 110c-6,15 -24,23 -35,22l-86 -11c-12,-2 -26,-15 -20,-29l49 -104c5,-14 19,-25 31,-24l88 7 16 1z"/>
   <path class="fil25" d="M1643 3986c12,1 15,14 10,28l-51 110c-6,15 -24,23 -35,22l-86 -11c-12,-2 -26,-15 -20,-29l49 -104c5,-14 19,-25 31,-24l88 7 16 1z"/>
   <path class="fil26" d="M1834 4003c12,1 15,14 10,28l-51 110c-6,15 -24,23 -35,22l-86 -11c-12,-2 -26,-15 -20,-29l49 -104c5,-14 19,-25 31,-24l88 7 16 1z"/>
   <path class="fil27" d="M2025 4020c12,1 15,14 10,28l-51 110c-6,15 -24,23 -35,22l-86 -11c-12,-2 -26,-15 -20,-29l49 -104c5,-14 19,-25 31,-24l88 7 16 1z"/>
   <path class="fil28" d="M2216 4036c12,1 15,14 10,28l-51 110c-6,15 -24,23 -35,22l-86 -11c-12,-2 -26,-15 -20,-29l49 -104c5,-14 19,-25 31,-24l88 7 16 1z"/>
   <path class="fil29" d="M2407 4053c12,1 15,14 10,28l-51 110c-6,15 -24,23 -35,22l-86 -11c-12,-2 -26,-15 -20,-29l49 -104c5,-14 19,-25 31,-24l88 7 16 1z"/>
   <path class="fil30" d="M1340 4212c12,1 15,14 10,28l-51 110c-6,15 -24,23 -35,22l-86 -11c-12,-2 -26,-15 -20,-29l49 -104c5,-14 19,-25 31,-24l88 7 16 1z"/>
   <path class="fil31" d="M1531 4229c12,1 15,14 10,28l-51 110c-6,15 -24,23 -35,22l-86 -11c-12,-2 -26,-15 -20,-29l49 -104c5,-14 19,-25 31,-24l88 7 16 1z"/>
   <path class="fil32" d="M1722 4246c12,1 15,14 10,28l-51 110c-6,15 -24,23 -35,22l-86 -11c-12,-2 -26,-15 -20,-29l49 -104c5,-14 19,-25 31,-24l88 7 16 1z"/>
   <path class="fil33" d="M1913 4263c12,1 15,14 10,28l-51 110c-6,15 -24,23 -35,22l-86 -11c-12,-2 -26,-15 -20,-29l49 -104c5,-14 19,-25 31,-24l88 7 16 1z"/>
   <path class="fil34" d="M2104 4279c12,1 15,14 10,28l-51 110c-6,15 -24,23 -35,22l-86 -11c-12,-2 -26,-15 -20,-29l49 -104c5,-14 19,-25 31,-24l88 7 16 1z"/>
   <path class="fil35" d="M2295 4296c12,1 15,14 10,28l-51 110c-6,15 -24,23 -35,22l-86 -11c-12,-2 -26,-15 -20,-29l49 -104c5,-14 19,-25 31,-24l88 7 16 1z"/>
   <path class="fil36" d="M1229 4443c12,1 15,14 10,28l-51 110c-6,15 -24,23 -35,22l-86 -11c-12,-2 -26,-15 -20,-29l49 -104c5,-14 19,-25 31,-24l88 7 16 1z"/>
   <path class="fil37" d="M1420 4460c12,1 15,14 10,28l-51 110c-6,15 -24,23 -35,22l-86 -11c-12,-2 -26,-15 -20,-29l49 -104c5,-14 19,-25 31,-24l88 7 16 1z"/>
   <path class="fil38" d="M1611 4477c12,1 15,14 10,28l-51 110c-6,15 -24,23 -35,22l-86 -11c-12,-2 -26,-15 -20,-29l49 -104c5,-14 19,-25 31,-24l88 7 16 1z"/>
   <path class="fil39" d="M1803 4493c12,1 15,14 10,28l-51 110c-6,15 -24,23 -35,22l-86 -11c-12,-2 -26,-15 -20,-29l49 -104c5,-14 19,-25 31,-24l88 7 16 1z"/>
   <path class="fil40" d="M1994 4510c12,1 15,14 10,28l-51 110c-6,15 -24,23 -35,22l-86 -11c-12,-2 -26,-15 -20,-29l49 -104c5,-14 19,-25 31,-24l88 7 16 1z"/>
   <path class="fil41" d="M2185 4527c12,1 15,14 10,28l-51 110c-6,15 -24,23 -35,22l-86 -11c-12,-2 -26,-15 -20,-29l49 -104c5,-14 19,-25 31,-24l88 7 16 1z"/>
   <path class="fil42" d="M1118 4680c12,1 15,14 10,28l-51 110c-6,15 -24,23 -35,22l-86 -11c-12,-2 -26,-15 -20,-29l49 -104c5,-14 19,-25 31,-24l88 7 16 1z"/>
   <path class="fil43" d="M1309 4697c12,1 15,14 10,28l-51 110c-6,15 -24,23 -35,22l-86 -11c-12,-2 -26,-15 -20,-29l49 -104c5,-14 19,-25 31,-24l88 7 16 1z"/>
   <path class="fil44" d="M1500 4714c12,1 15,14 10,28l-51 110c-6,15 -24,23 -35,22l-86 -11c-12,-2 -26,-15 -20,-29l49 -104c5,-14 19,-25 31,-24l88 7 16 1z"/>
   <path class="fil45" d="M1691 4730c12,1 15,14 10,28l-51 110c-6,15 -24,23 -35,22l-86 -11c-12,-2 -26,-15 -20,-29l49 -104c5,-14 19,-25 31,-24l88 7 16 1z"/>
   <path class="fil46" d="M1882 4747c12,1 15,14 10,28l-51 110c-6,15 -24,23 -35,22l-86 -11c-12,-2 -26,-15 -20,-29l49 -104c5,-14 19,-25 31,-24l88 7 16 1z"/>
   <path class="fil47" d="M2074 4764c12,1 15,14 10,28l-51 110c-6,15 -24,23 -35,22l-86 -11c-12,-2 -26,-15 -20,-29l49 -104c5,-14 19,-25 31,-24l88 7 16 1z"/>
   <path class="fil48" d="M1013 4911c12,1 15,14 10,28l-51 110c-6,15 -24,23 -35,22l-86 -11c-12,-2 -26,-15 -20,-29l49 -104c5,-14 19,-25 31,-24l88 7 16 1z"/>
   <path class="fil49" d="M1205 4928c12,1 15,14 10,28l-51 110c-6,15 -24,23 -35,22l-86 -11c-12,-2 -26,-15 -20,-29l49 -104c5,-14 19,-25 31,-24l88 7 16 1z"/>
   <path class="fil50" d="M1396 4945c12,1 15,14 10,28l-51 110c-6,15 -24,23 -35,22l-86 -11c-12,-2 -26,-15 -20,-29l49 -104c5,-14 19,-25 31,-24l88 7 16 1z"/>
   <path class="fil51" d="M1587 4962c12,1 15,14 10,28l-51 110c-6,15 -24,23 -35,22l-86 -11c-12,-2 -26,-15 -20,-29l49 -104c5,-14 19,-25 31,-24l88 7 16 1z"/>
   <path class="fil52" d="M1778 4979c12,1 15,14 10,28l-51 110c-6,15 -24,23 -35,22l-86 -11c-12,-2 -26,-15 -20,-29l49 -104c5,-14 19,-25 31,-24l88 7 16 1z"/>
   <path class="fil53" d="M1969 4996c12,1 15,14 10,28l-51 110c-6,15 -24,23 -35,22l-86 -11c-12,-2 -26,-15 -20,-29l49 -104c5,-14 19,-25 31,-24l88 7 16 1z"/>
   <polygon id="path1079" class="fil0 str0" points="2722,3285 3846,3081 4271,4289 3626,4469 2722,3285 "/>
   <g>
    <polygon id="path1080" class="fil0 str7" points="3805,8809 3810,7470 4844,7622 4848,9013 3805,8809 "/>
    <polygon id="path1085" class="fil0 str7" points="2020,5264 2021,4350 2702,3624 3383,4509 3380,5391 2020,5264 "/>
    <polygon id="path1086" class="fil0 str7" points="3658,8782 3813,8811 3970,8723 4846,8911 4845,9007 5051,9045 4664,9321 3206,9005 3658,8782 "/>
    <polygon id="path1087" class="fil0 str7" points="3207,9004 3212,9072 4664,9402 4664,9321 3207,9004 "/>
    <polygon id="path1088" class="fil0 str7" points="4663,9402 5048,9131 5049,9046 4665,9319 4663,9402 "/>
   </g>
   <polygon id="path1075" class="fil3 str0" points="6618,3068 1567,3025 120,5272 1713,5432 1802,5252 1806,4254 2717,3286 3846,3081 4259,4294 3521,5600 5629,5806 6618,3068 "/>
   <path class="fil54" d="M2720 3586c55,-108 98,-101 -1,-205 -1,-1 -3,-7 -5,-6l-847 903c-1,1 3,4 5,5l106 77c2,1 -3,-23 11,-36l715 -741c1,-1 16,4 16,2z"/>
   <polygon class="fil54" points="1866,5265 1978,5265 1978,4275 1866,4275 "/>
   <polygon class="fil54" points="3668,5463 5425,5651 5465,5468 3749,5322 "/>
   <g>
    <path class="fil55" d="M6014 3504c10,5 23,10 21,11l-877 1905c-4,10 -40,16 -40,16l-1180 -105c-11,-9 2,-11 8,-24l858 -1893c6,-13 22,-20 35,-18l1175 108z"/>
    <path class="fil56" d="M4974 3461c12,1 15,14 10,28l-51 110c-6,15 -24,23 -35,22l-86 -11c-12,-2 -26,-15 -20,-29l49 -104c5,-14 19,-25 31,-24l88 7 16 1z"/>
    <path class="fil57" d="M5165 3477c12,1 15,14 10,28l-51 110c-6,15 -24,23 -35,22l-86 -11c-12,-2 -26,-15 -20,-29l49 -104c5,-14 19,-25 31,-24l88 7 16 1z"/>
    <path class="fil58" d="M5356 3494c12,1 15,14 10,28l-51 110c-6,15 -24,23 -35,22l-86 -11c-12,-2 -26,-15 -20,-29l49 -104c5,-14 19,-25 31,-24l88 7 16 1z"/>
    <path class="fil59" d="M5548 3511c12,1 15,14 10,28l-51 110c-6,15 -24,23 -35,22l-86 -11c-12,-2 -26,-15 -20,-29l49 -104c5,-14 19,-25 31,-24l88 7 16 1z"/>
    <path class="fil60" d="M5739 3528c12,1 15,14 10,28l-51 110c-6,15 -24,23 -35,22l-86 -11c-12,-2 -26,-15 -20,-29l49 -104c5,-14 19,-25 31,-24l88 7 16 1z"/>
    <path class="fil61" d="M5930 3545c12,1 15,14 10,28l-51 110c-6,15 -24,23 -35,22l-86 -11c-12,-2 -26,-15 -20,-29l49 -104c5,-14 19,-25 31,-24l88 7 16 1z"/>
    <path class="fil62" d="M4864 3692c12,1 15,14 10,28l-51 110c-6,15 -24,23 -35,22l-86 -11c-12,-2 -26,-15 -20,-29l49 -104c5,-14 19,-25 31,-24l88 7 16 1z"/>
    <path class="fil63" d="M5055 3708c12,1 15,14 10,28l-51 110c-6,15 -24,23 -35,22l-86 -11c-12,-2 -26,-15 -20,-29l49 -104c5,-14 19,-25 31,-24l88 7 16 1z"/>
    <path class="fil64" d="M5246 3725c12,1 15,14 10,28l-51 110c-6,15 -24,23 -35,22l-86 -11c-12,-2 -26,-15 -20,-29l49 -104c5,-14 19,-25 31,-24l88 7 16 1z"/>
    <path class="fil65" d="M5437 3742c12,1 15,14 10,28l-51 110c-6,15 -24,23 -35,22l-86 -11c-12,-2 -26,-15 -20,-29l49 -104c5,-14 19,-25 31,-24l88 7 16 1z"/>
    <path class="fil66" d="M5628 3759c12,1 15,14 10,28l-51 110c-6,15 -24,23 -35,22l-86 -11c-12,-2 -26,-15 -20,-29l49 -104c5,-14 19,-25 31,-24l88 7 16 1z"/>
    <path class="fil67" d="M5819 3776c12,1 15,14 10,28l-51 110c-6,15 -24,23 -35,22l-86 -11c-12,-2 -26,-15 -20,-29l49 -104c5,-14 19,-25 31,-24l88 7 16 1z"/>
    <path class="fil68" d="M4759 3923c12,1 15,14 10,28l-51 110c-6,15 -24,23 -35,22l-86 -11c-12,-2 -26,-15 -20,-29l49 -104c5,-14 19,-25 31,-24l88 7 16 1z"/>
    <path class="fil69" d="M4950 3940c12,1 15,14 10,28l-51 110c-6,15 -24,23 -35,22l-86 -11c-12,-2 -26,-15 -20,-29l49 -104c5,-14 19,-25 31,-24l88 7 16 1z"/>
    <path class="fil70" d="M5141 3957c12,1 15,14 10,28l-51 110c-6,15 -24,23 -35,22l-86 -11c-12,-2 -26,-15 -20,-29l49 -104c5,-14 19,-25 31,-24l88 7 16 1z"/>
    <path class="fil71" d="M5332 3974c12,1 15,14 10,28l-51 110c-6,15 -24,23 -35,22l-86 -11c-12,-2 -26,-15 -20,-29l49 -104c5,-14 19,-25 31,-24l88 7 16 1z"/>
    <path class="fil72" d="M5523 3990c12,1 15,14 10,28l-51 110c-6,15 -24,23 -35,22l-86 -11c-12,-2 -26,-15 -20,-29l49 -104c5,-14 19,-25 31,-24l88 7 16 1z"/>
    <path class="fil73" d="M5714 4007c12,1 15,14 10,28l-51 110c-6,15 -24,23 -35,22l-86 -11c-12,-2 -26,-15 -20,-29l49 -104c5,-14 19,-25 31,-24l88 7 16 1z"/>
    <path class="fil74" d="M4648 4154c12,1 15,14 10,28l-51 110c-6,15 -24,23 -35,22l-86 -11c-12,-2 -26,-15 -20,-29l49 -104c5,-14 19,-25 31,-24l88 7 16 1z"/>
    <path class="fil75" d="M4839 4171c12,1 15,14 10,28l-51 110c-6,15 -24,23 -35,22l-86 -11c-12,-2 -26,-15 -20,-29l49 -104c5,-14 19,-25 31,-24l88 7 16 1z"/>
    <path class="fil76" d="M5031 4188c12,1 15,14 10,28l-51 110c-6,15 -24,23 -35,22l-86 -11c-12,-2 -26,-15 -20,-29l49 -104c5,-14 19,-25 31,-24l88 7 16 1z"/>
    <path class="fil77" d="M5222 4205c12,1 15,14 10,28l-51 110c-6,15 -24,23 -35,22l-86 -11c-12,-2 -26,-15 -20,-29l49 -104c5,-14 19,-25 31,-24l88 7 16 1z"/>
    <path class="fil78" d="M5413 4221c12,1 15,14 10,28l-51 110c-6,15 -24,23 -35,22l-86 -11c-12,-2 -26,-15 -20,-29l49 -104c5,-14 19,-25 31,-24l88 7 16 1z"/>
    <path class="fil79" d="M5604 4238c12,1 15,14 10,28l-51 110c-6,15 -24,23 -35,22l-86 -11c-12,-2 -26,-15 -20,-29l49 -104c5,-14 19,-25 31,-24l88 7 16 1z"/>
    <path class="fil80" d="M4537 4397c12,1 15,14 10,28l-51 110c-6,15 -24,23 -35,22l-86 -11c-12,-2 -26,-15 -20,-29l49 -104c5,-14 19,-25 31,-24l88 7 16 1z"/>
    <path class="fil81" d="M4728 4414c12,1 15,14 10,28l-51 110c-6,15 -24,23 -35,22l-86 -11c-12,-2 -26,-15 -20,-29l49 -104c5,-14 19,-25 31,-24l88 7 16 1z"/>
    <path class="fil82" d="M4919 4431c12,1 15,14 10,28l-51 110c-6,15 -24,23 -35,22l-86 -11c-12,-2 -26,-15 -20,-29l49 -104c5,-14 19,-25 31,-24l88 7 16 1z"/>
    <path class="fil83" d="M5110 4448c12,1 15,14 10,28l-51 110c-6,15 -24,23 -35,22l-86 -11c-12,-2 -26,-15 -20,-29l49 -104c5,-14 19,-25 31,-24l88 7 16 1z"/>
    <path class="fil84" d="M5301 4464c12,1 15,14 10,28l-51 110c-6,15 -24,23 -35,22l-86 -11c-12,-2 -26,-15 -20,-29l49 -104c5,-14 19,-25 31,-24l88 7 16 1z"/>
    <path class="fil85" d="M5492 4481c12,1 15,14 10,28l-51 110c-6,15 -24,23 -35,22l-86 -11c-12,-2 -26,-15 -20,-29l49 -104c5,-14 19,-25 31,-24l88 7 16 1z"/>
    <path class="fil86" d="M4426 4628c12,1 15,14 10,28l-51 110c-6,15 -24,23 -35,22l-86 -11c-12,-2 -26,-15 -20,-29l49 -104c5,-14 19,-25 31,-24l88 7 16 1z"/>
    <path class="fil87" d="M4617 4645c12,1 15,14 10,28l-51 110c-6,15 -24,23 -35,22l-86 -11c-12,-2 -26,-15 -20,-29l49 -104c5,-14 19,-25 31,-24l88 7 16 1z"/>
    <path class="fil88" d="M4808 4662c12,1 15,14 10,28l-51 110c-6,15 -24,23 -35,22l-86 -11c-12,-2 -26,-15 -20,-29l49 -104c5,-14 19,-25 31,-24l88 7 16 1z"/>
    <path class="fil89" d="M4999 4678c12,1 15,14 10,28l-51 110c-6,15 -24,23 -35,22l-86 -11c-12,-2 -26,-15 -20,-29l49 -104c5,-14 19,-25 31,-24l88 7 16 1z"/>
    <path class="fil90" d="M5190 4695c12,1 15,14 10,28l-51 110c-6,15 -24,23 -35,22l-86 -11c-12,-2 -26,-15 -20,-29l49 -104c5,-14 19,-25 31,-24l88 7 16 1z"/>
    <path class="fil91" d="M5382 4712c12,1 15,14 10,28l-51 110c-6,15 -24,23 -35,22l-86 -11c-12,-2 -26,-15 -20,-29l49 -104c5,-14 19,-25 31,-24l88 7 16 1z"/>
    <path class="fil92" d="M4315 4865c12,1 15,14 10,28l-51 110c-6,15 -24,23 -35,22l-86 -11c-12,-2 -26,-15 -20,-29l49 -104c5,-14 19,-25 31,-24l88 7 16 1z"/>
    <path class="fil93" d="M4506 4882c12,1 15,14 10,28l-51 110c-6,15 -24,23 -35,22l-86 -11c-12,-2 -26,-15 -20,-29l49 -104c5,-14 19,-25 31,-24l88 7 16 1z"/>
    <path class="fil94" d="M4697 4899c12,1 15,14 10,28l-51 110c-6,15 -24,23 -35,22l-86 -11c-12,-2 -26,-15 -20,-29l49 -104c5,-14 19,-25 31,-24l88 7 16 1z"/>
    <path class="fil95" d="M4888 4915c12,1 15,14 10,28l-51 110c-6,15 -24,23 -35,22l-86 -11c-12,-2 -26,-15 -20,-29l49 -104c5,-14 19,-25 31,-24l88 7 16 1z"/>
    <path class="fil96" d="M5079 4932c12,1 15,14 10,28l-51 110c-6,15 -24,23 -35,22l-86 -11c-12,-2 -26,-15 -20,-29l49 -104c5,-14 19,-25 31,-24l88 7 16 1z"/>
    <path class="fil97" d="M5270 4949c12,1 15,14 10,28l-51 110c-6,15 -24,23 -35,22l-86 -11c-12,-2 -26,-15 -20,-29l49 -104c5,-14 19,-25 31,-24l88 7 16 1z"/>
    <path class="fil98" d="M4210 5096c12,1 15,14 10,28l-51 110c-6,15 -24,23 -35,22l-86 -11c-12,-2 -26,-15 -20,-29l49 -104c5,-14 19,-25 31,-24l88 7 16 1z"/>
    <path class="fil99" d="M4401 5113c12,1 15,14 10,28l-51 110c-6,15 -24,23 -35,22l-86 -11c-12,-2 -26,-15 -20,-29l49 -104c5,-14 19,-25 31,-24l88 7 16 1z"/>
    <path class="fil100" d="M4592 5130c12,1 15,14 10,28l-51 110c-6,15 -24,23 -35,22l-86 -11c-12,-2 -26,-15 -20,-29l49 -104c5,-14 19,-25 31,-24l88 7 16 1z"/>
    <path class="fil101" d="M4784 5147c12,1 15,14 10,28l-51 110c-6,15 -24,23 -35,22l-86 -11c-12,-2 -26,-15 -20,-29l49 -104c5,-14 19,-25 31,-24l88 7 16 1z"/>
    <path class="fil102" d="M4975 5164c12,1 15,14 10,28l-51 110c-6,15 -24,23 -35,22l-86 -11c-12,-2 -26,-15 -20,-29l49 -104c5,-14 19,-25 31,-24l88 7 16 1z"/>
    <path class="fil103" d="M5166 5181c12,1 15,14 10,28l-51 110c-6,15 -24,23 -35,22l-86 -11c-12,-2 -26,-15 -20,-29l49 -104c5,-14 19,-25 31,-24l88 7 16 1z"/>
    <polygon class="fil54" points="5328,5714 5587,5740 6530,3130 6309,3127 "/>
   </g>
   <polygon class="fil54" points="1677,5367 1740,5231 347,5058 230,5223 "/>
   <polygon class="fil54" points="376,5070 753,5112 764,5087 381,5033 "/>
   <g id="g11186">
    <polygon id="path1164" class="fil104 str8" points="5006,6104 5000,6897 3893,6761 3896,5996 5006,6104 "/>
    <g>
     <polygon id="path9291" class="fil104 str9" points="3901,5995 4062,6013 4060,6664 3898,6759 3901,5995 "/>
     <polygon id="path9293" class="fil104 str9" points="4994,6894 4997,6787 4060,6666 3897,6761 4994,6894 "/>
    </g>
   </g>
   <g id="g11179">
    <polygon id="path11163" class="fil104 str10" points="3341,5912 3335,6658 2277,6529 2281,5811 3341,5913 "/>
    <g>
     <polygon id="path11164" class="fil104 str11" points="2286,5810 2440,5827 2437,6439 2282,6528 2286,5810 "/>
     <polygon id="path11165" class="fil104 str11" points="3330,6654 3333,6554 2437,6441 2282,6530 3330,6654 "/>
    </g>
   </g>
   <g id="g11175">
    <polygon id="path11169" class="fil104 str12" points="1786,5739 1780,6451 770,6328 773,5642 1786,5739 "/>
    <g>
     <polygon id="path11170" class="fil104 str13" points="778,5641 925,5657 922,6242 774,6327 778,5641 "/>
     <polygon id="path11171" class="fil104 str13" points="1775,6448 1778,6351 922,6243 774,6329 1775,6448 "/>
    </g>
   </g>
   <g id="g13080">
    <polygon id="path1081" class="fil104 str8" points="3261,7307 3254,8042 2236,7854 2239,7146 "/>
    <g>
     <polygon id="path11829" class="fil104 str9" points="3252,8034 3255,7927 2405,7753 2243,7848 3252,8034 "/>
     <polygon id="path12452" class="fil104 str9" points="2242,7151 2413,7175 2403,7753 2241,7848 2242,7151 "/>
    </g>
   </g>
   <g id="g13087">
    <polygon id="path13088" class="fil104 str8" points="1699,7064 1693,7757 760,7579 762,6911 1699,7064 "/>
    <g>
     <polygon id="path13089" class="fil104 str9" points="1690,7750 1694,7649 914,7484 766,7574 1690,7750 "/>
     <polygon id="path13090" class="fil104 str9" points="765,6916 922,6939 913,7485 764,7574 765,6916 "/>
    </g>
   </g>
  </g>
 </g>
</svg>
