<?xml version="1.0" encoding="iso-8859-1"?>
<!-- Generator: Adobe Illustrator 18.0.0, SVG Export Plug-In . SVG Version: 6.00 Build 0)  -->
<!DOCTYPE svg PUBLIC "-//W3C//DTD SVG 1.1//EN" "http://www.w3.org/Graphics/SVG/1.1/DTD/svg11.dtd">
<svg version="1.1" id="Capa_1" xmlns="http://www.w3.org/2000/svg" xmlns:xlink="http://www.w3.org/1999/xlink" x="0px" y="0px"
	 viewBox="0 0 491.724 491.724" style="enable-background:new 0 0 491.724 491.724;" xml:space="preserve">
<g>
	<path d="M406.37,278.59l-37.631-117.239c-0.048-0.149-0.104-0.296-0.169-0.44c-11.994-26.753-33.702-39.562-55.306-32.624
		l-6.86,2.203c-19.291,6.193-33.005,26.335-33.349,48.983c-0.004,0.256,0.025,0.505,0.065,0.75l-58.319,70.487
		c-3.579,4.325-5.614,9.573-5.903,15.078l-1.084-1.084c2.927-9.727,0.337-20.294-6.965-27.596
		c-5.239-5.239-12.207-8.124-19.62-8.124c-2.021,0-4.045,0.221-6.017,0.656c-1.516,0.335-2.729,1.469-3.163,2.959
		c-0.435,1.49-0.023,3.099,1.074,4.196l11.294,11.294l2.338,8.724l-5.456,5.456l-8.723-2.338l-11.294-11.294
		c-1.097-1.097-2.705-1.51-4.196-1.074c-1.49,0.435-2.624,1.647-2.959,3.163c-2.059,9.319,0.733,18.903,7.468,25.637
		c5.24,5.241,12.208,8.127,19.621,8.127c2.725,0,5.396-0.391,7.973-1.163l37.699,37.7c2.063,2.062,4.804,3.198,7.721,3.198
		c2.916,0,5.658-1.136,7.721-3.198l3.183-3.183c2.063-2.063,3.198-4.805,3.198-7.721c0-2.916-1.136-5.658-3.198-7.721l-9.383-9.384
		c7.206-0.389,13.895-3.742,18.523-9.336l33.451-40.43l18.069,67.285c0.302,1.123,1.05,2.073,2.071,2.629
		c0.63,0.343,1.329,0.518,2.033,0.518c0.437,0,0.875-0.067,1.299-0.203l2.34-0.751v147.872c0,17.161,13.961,31.122,31.121,31.122
		c17.161,0,31.123-13.961,31.123-31.122V292.75l27.463-8.815C405.857,283.218,407.086,280.825,406.37,278.59z M309.002,138.582
		l6.859-2.202c20.814-6.683,37.143,10.75,44.856,27.797l30.15,93.934l-65.064,21.291l-17.392-60.7l26.992-32.624
		c4.404-5.322,6.472-12.04,5.821-18.918c-0.649-6.877-3.939-13.089-9.262-17.493c-4.627-3.829-10.477-5.937-16.474-5.937
		c-7.74,0-15.006,3.417-19.937,9.375l-12.392,14.977C286.875,154.142,296.663,142.543,309.002,138.582z M240.209,310.122
		c0,0.646-0.251,1.254-0.708,1.71l-3.183,3.183c-0.914,0.913-2.507,0.914-3.42,0L193.3,275.417c-0.814-0.813-1.9-1.245-3.006-1.245
		c-0.552,0-1.108,0.107-1.638,0.329c-2.363,0.987-4.866,1.488-7.441,1.488c-5.142,0-9.975-2.002-13.61-5.638
		c-2.345-2.345-4.001-5.189-4.888-8.259l4.654,4.654c0.528,0.527,1.184,0.907,1.905,1.1l12.193,3.268
		c1.466,0.393,3.031-0.026,4.105-1.1l8.926-8.926c1.074-1.074,1.493-2.639,1.1-4.105l-3.268-12.194
		c-0.193-0.721-0.572-1.378-1.1-1.905l-4.65-4.65c3.09,0.889,5.92,2.55,8.256,4.885c5.547,5.547,7.175,13.811,4.149,21.052
		c-0.665,1.59-0.303,3.425,0.916,4.644l15.06,15.06c0.92,1.086,1.934,2.103,3.04,3.041l21.497,21.498
		C239.958,308.869,240.209,309.476,240.209,310.122z M248.102,278.262c-3.31,4.001-8.189,6.294-13.388,6.294
		c-3.984,0-7.871-1.392-10.962-3.915l-2.531-2.53c-2.136-2.632-3.453-5.832-3.779-9.283c-0.436-4.617,0.952-9.126,3.908-12.7
		l80.754-97.604c3.31-4,8.189-6.294,13.388-6.294c4.022,0,7.949,1.416,11.056,3.985c3.573,2.956,5.781,7.127,6.218,11.744
		c0.436,4.616-0.952,9.126-3.908,12.699L248.102,278.262z M345.036,483.224c-12.474,0-22.621-10.148-22.621-22.622v-10.318h43.002
		c0.826,0,1.59-0.246,2.242-0.653v10.971C367.659,473.076,357.51,483.224,345.036,483.224z M367.659,442.437
		c-0.652-0.407-1.416-0.653-2.242-0.653h-43.002v-10.548h6.91c2.348,0,4.25-1.903,4.25-4.25c0-2.347-1.902-4.25-4.25-4.25h-6.91
		V310.001l45.244-14.522V442.437z M313.224,304.024l-18.479-68.804l7.101-8.581l17.002,59.343c0.318,1.11,1.074,2.043,2.094,2.584
		c0.62,0.329,1.305,0.496,1.992,0.496c0.444,0,0.891-0.07,1.321-0.211l69.211-22.648l3.511,10.938L313.224,304.024z"/>
	<path d="M355.368,376.017c2.348,0,4.25-1.903,4.25-4.25v-59.313c0-2.347-1.902-4.25-4.25-4.25c-2.348,0-4.25,1.903-4.25,4.25
		v59.313C351.118,374.114,353.02,376.017,355.368,376.017z"/>
	<path d="M182.449,91.324c0.43,0,0.868-0.066,1.3-0.204l47.335-15.193c-0.69,6.842,0.11,13.96,2.446,21.238
		c4.28,13.333,13.494,24.2,25.947,30.602c7.523,3.868,15.684,5.825,23.906,5.825c5.387,0,10.802-0.84,16.078-2.534
		c12.683-4.07,22.186-10.854,28.273-20.155c2.507-2.441,14.983-15.741,15.853-39.333c0.429-11.619-1.797-21.924-6.603-30.697
		c0.644-1.025,0.863-2.308,0.465-3.551C330.285,14.998,308.995,0,284.471,0c-6.204,0-12.387,0.975-18.376,2.897
		c-28.712,9.216-45.52,37.945-39.108,65.416l-45.836,14.712c-2.235,0.718-3.465,3.111-2.748,5.346
		C178.982,90.175,180.651,91.324,182.449,91.324z M296.864,122.963c-9.813,3.149-20.186,2.773-29.637-0.999
		c1.249-1.082,1.803-2.841,1.267-4.513c-0.718-2.235-3.113-3.462-5.346-2.748l-5.715,1.835c-2.14-1.566-4.123-3.31-5.928-5.216
		l7.528-2.417c2.314-0.743,4.776-0.54,6.936,0.571c2.16,1.11,3.758,2.995,4.5,5.31l1.581,4.923c0.579,1.803,2.249,2.951,4.046,2.951
		c0.431,0,0.868-0.066,1.301-0.205c2.234-0.718,3.465-3.111,2.747-5.346l-1.581-4.921c-1.435-4.475-4.528-8.123-8.708-10.271
		c-4.181-2.149-8.945-2.541-13.42-1.105l-10.417,3.344c-1.821-2.974-3.303-6.183-4.395-9.588c-2.446-7.621-2.94-14.668-1.528-21.533
		l20.084-6.446c0.258,0.073,0.525,0.126,0.803,0.149c19.718,1.643,24.179,16.712,26.812,30.707c0.47,2.497,0.81,4.301,1.357,5.685
		c0.823,2.082,3.12,3.166,5.251,2.483l11.266-3.617c2.235-0.717,3.465-3.11,2.748-5.345l-5.552-17.3
		c-0.653-2.036-0.476-4.204,0.502-6.105c0.977-1.901,2.637-3.308,4.672-3.961c4.208-1.352,8.717,0.974,10.065,5.174
		c1.067,3.326-0.12,6.925-2.956,8.955c-1.073,0.769-1.729,1.992-1.773,3.312c-0.096,2.833-0.176,15.351,5.393,22.107
		C313.735,115.158,306.387,119.906,296.864,122.963z M335.093,71.255c-0.57,15.468-6.984,25.849-10.75,30.655
		c-1.589-3.186-2.404-8.6-2.485-13.042c4.558-4.319,6.302-10.889,4.338-17.01c-2.781-8.665-12.097-13.448-20.757-10.671
		c-4.197,1.348-7.619,4.249-9.635,8.169c-2.015,3.921-2.382,8.392-1.035,12.589l4.253,13.254l-2.83,0.909
		c-0.016-0.079-0.03-0.158-0.045-0.237c-1.609-8.551-4.971-26.392-20.965-34.1l54.056-17.351
		C333.5,51.946,335.473,60.959,335.093,71.255z M268.693,10.99c5.148-1.652,10.457-2.49,15.778-2.49
		c19.308,0,36.225,10.864,43.389,27.435l-92.765,29.776c-0.658-3.036-0.97-6.087-0.976-9.117l35.708-11.446
		c2.235-0.717,3.467-3.109,2.75-5.345c-0.717-2.235-3.11-3.465-5.344-2.75l-32.153,10.306c0.605-2.874,1.488-5.687,2.632-8.403
		l12.74-4.168c2.231-0.73,3.448-3.13,2.718-5.361c-0.73-2.231-3.133-3.449-5.36-2.718l-3.547,1.16
		C250.244,20.268,258.608,14.227,268.693,10.99z"/>
	<path d="M135.4,405.063h-1.151V253.895h1.151c7.857,0,14.25-6.393,14.25-14.25v-0.667c0-7.857-6.393-14.25-14.25-14.25h-1.151
		V73.563h1.151c7.857,0,14.25-6.393,14.25-14.25v-0.667c0-7.857-6.393-14.25-14.25-14.25h-1.151V6.313c0-2.347-1.903-4.25-4.25-4.25
		h-25.197c-2.347,0-4.25,1.903-4.25,4.25v38.083H99.4c-7.857,0-14.25,6.393-14.25,14.25v0.667c0,7.857,6.393,14.25,14.25,14.25
		h1.151v151.166H99.4c-7.857,0-14.25,6.393-14.25,14.25v0.667c0,7.857,6.393,14.25,14.25,14.25h1.151v151.167H99.4
		c-7.857,0-14.25,6.393-14.25,14.25v0.666c0,7.857,6.393,14.25,14.25,14.25h1.151v38.084c0,2.347,1.903,4.25,4.25,4.25h25.197
		c2.347,0,4.25-1.903,4.25-4.25v-38.084h1.151c7.857,0,14.25-6.393,14.25-14.25v-0.666
		C149.65,411.455,143.257,405.063,135.4,405.063z M109.051,10.563h16.697v33.833h-16.697V10.563z M93.65,59.313v-0.667
		c0-3.17,2.58-5.75,5.75-5.75h36c3.17,0,5.75,2.58,5.75,5.75v0.667c0,3.17-2.58,5.75-5.75,5.75h-36
		C96.229,65.063,93.65,62.483,93.65,59.313z M109.051,73.563h16.697v151.166h-16.697V73.563z M93.65,239.645v-0.667
		c0-3.17,2.58-5.75,5.75-5.75h36c3.17,0,5.75,2.58,5.75,5.75v0.667c0,3.17-2.58,5.75-5.75,5.75h-36
		C96.229,245.395,93.65,242.816,93.65,239.645z M109.051,253.895h16.697v151.167h-16.697V253.895z M125.748,468.063h-16.697v-33.834
		h16.697V468.063z M141.15,419.978c0,3.17-2.58,5.75-5.75,5.75h-36c-3.17,0-5.75-2.58-5.75-5.75v-0.666c0-3.17,2.58-5.75,5.75-5.75
		h36c3.17,0,5.75,2.58,5.75,5.75V419.978z"/>
	<path d="M328.751,250.369c0.609,1.758,2.255,2.861,4.017,2.861c0.461,0,0.93-0.076,1.391-0.235l26-9
		c2.218-0.768,3.393-3.188,2.626-5.406c-0.768-2.218-3.186-3.393-5.407-2.626l-26,9C329.16,245.73,327.984,248.151,328.751,250.369z
		"/>
	<path d="M146.768,106.229c-2.347,0-4.25,1.903-4.25,4.25v77c0,2.347,1.903,4.25,4.25,4.25c2.347,0,4.25-1.903,4.25-4.25v-77
		C151.018,108.131,149.115,106.229,146.768,106.229z"/>
	<path d="M145.768,316.228c-2.347,0-4.25,1.903-4.25,4.25v61c0,2.347,1.903,4.25,4.25,4.25c2.347,0,4.25-1.903,4.25-4.25v-61
		C150.018,318.131,148.115,316.228,145.768,316.228z"/>
</g>
<g>
</g>
<g>
</g>
<g>
</g>
<g>
</g>
<g>
</g>
<g>
</g>
<g>
</g>
<g>
</g>
<g>
</g>
<g>
</g>
<g>
</g>
<g>
</g>
<g>
</g>
<g>
</g>
<g>
</g>
</svg>
